%TF.GenerationSoftware,KiCad,Pcbnew,7.0.5-0*%
%TF.CreationDate,2023-07-13T17:44:08+01:00*%
%TF.ProjectId,M5-Notecard,4d352d4e-6f74-4656-9361-72642e6b6963,V01L04*%
%TF.SameCoordinates,Original*%
%TF.FileFunction,Soldermask,Top*%
%TF.FilePolarity,Negative*%
%FSLAX46Y46*%
G04 Gerber Fmt 4.6, Leading zero omitted, Abs format (unit mm)*
G04 Created by KiCad (PCBNEW 7.0.5-0) date 2023-07-13 17:44:08*
%MOMM*%
%LPD*%
G01*
G04 APERTURE LIST*
G04 Aperture macros list*
%AMRoundRect*
0 Rectangle with rounded corners*
0 $1 Rounding radius*
0 $2 $3 $4 $5 $6 $7 $8 $9 X,Y pos of 4 corners*
0 Add a 4 corners polygon primitive as box body*
4,1,4,$2,$3,$4,$5,$6,$7,$8,$9,$2,$3,0*
0 Add four circle primitives for the rounded corners*
1,1,$1+$1,$2,$3*
1,1,$1+$1,$4,$5*
1,1,$1+$1,$6,$7*
1,1,$1+$1,$8,$9*
0 Add four rect primitives between the rounded corners*
20,1,$1+$1,$2,$3,$4,$5,0*
20,1,$1+$1,$4,$5,$6,$7,0*
20,1,$1+$1,$6,$7,$8,$9,0*
20,1,$1+$1,$8,$9,$2,$3,0*%
%AMFreePoly0*
4,1,13,0.535355,0.535355,0.550000,0.500000,0.550000,-0.500000,0.535355,-0.535355,0.500000,-0.550000,-2.500000,-0.550000,-2.535355,-0.535355,-2.550000,-0.500000,-2.550000,0.500000,-2.535355,0.535355,-2.500000,0.550000,0.500000,0.550000,0.535355,0.535355,0.535355,0.535355,$1*%
G04 Aperture macros list end*
%ADD10RoundRect,0.050000X-0.900000X0.900000X-0.900000X-0.900000X0.900000X-0.900000X0.900000X0.900000X0*%
%ADD11C,1.900000*%
%ADD12RoundRect,0.050000X0.900000X-2.200000X0.900000X2.200000X-0.900000X2.200000X-0.900000X-2.200000X0*%
%ADD13O,1.900000X4.100000*%
%ADD14O,4.100000X1.900000*%
%ADD15RoundRect,0.050000X0.900000X0.900000X-0.900000X0.900000X-0.900000X-0.900000X0.900000X-0.900000X0*%
%ADD16C,2.300000*%
%ADD17C,1.800000*%
%ADD18FreePoly0,0.000000*%
%ADD19FreePoly0,180.000000*%
%ADD20C,1.100000*%
%ADD21RoundRect,0.287500X-0.300000X-0.237500X0.300000X-0.237500X0.300000X0.237500X-0.300000X0.237500X0*%
%ADD22RoundRect,0.200000X0.150000X0.625000X-0.150000X0.625000X-0.150000X-0.625000X0.150000X-0.625000X0*%
%ADD23RoundRect,0.300000X0.350000X0.650000X-0.350000X0.650000X-0.350000X-0.650000X0.350000X-0.650000X0*%
%ADD24RoundRect,0.300000X-0.325000X-0.650000X0.325000X-0.650000X0.325000X0.650000X-0.325000X0.650000X0*%
%ADD25RoundRect,0.287500X-0.250000X-0.237500X0.250000X-0.237500X0.250000X0.237500X-0.250000X0.237500X0*%
%ADD26RoundRect,0.287500X-0.237500X0.300000X-0.237500X-0.300000X0.237500X-0.300000X0.237500X0.300000X0*%
%ADD27RoundRect,0.287500X0.237500X-0.300000X0.237500X0.300000X-0.237500X0.300000X-0.237500X-0.300000X0*%
%ADD28C,1.250000*%
%ADD29C,1.750000*%
%ADD30RoundRect,0.050000X-0.150000X-0.775000X0.150000X-0.775000X0.150000X0.775000X-0.150000X0.775000X0*%
%ADD31RoundRect,0.050000X-0.600000X-1.375000X0.600000X-1.375000X0.600000X1.375000X-0.600000X1.375000X0*%
%ADD32C,3.300000*%
%ADD33RoundRect,0.050000X0.925000X2.350000X-0.925000X2.350000X-0.925000X-2.350000X0.925000X-2.350000X0*%
%ADD34RoundRect,0.050000X-0.325000X-0.762500X0.325000X-0.762500X0.325000X0.762500X-0.325000X0.762500X0*%
%ADD35RoundRect,0.050000X-1.550000X1.300000X-1.550000X-1.300000X1.550000X-1.300000X1.550000X1.300000X0*%
%ADD36RoundRect,0.200000X-0.825000X-0.150000X0.825000X-0.150000X0.825000X0.150000X-0.825000X0.150000X0*%
%ADD37RoundRect,0.300000X0.325000X0.650000X-0.325000X0.650000X-0.325000X-0.650000X0.325000X-0.650000X0*%
%ADD38RoundRect,0.200000X0.150000X-0.587500X0.150000X0.587500X-0.150000X0.587500X-0.150000X-0.587500X0*%
%ADD39C,6.100000*%
G04 APERTURE END LIST*
D10*
%TO.C,J6*%
X-13287888Y-11214000D03*
D11*
X-13287888Y-15024000D03*
%TD*%
D12*
%TO.C,J5*%
X-15573888Y-13084000D03*
D13*
X-9773888Y-13084000D03*
D14*
X-12573888Y-8284000D03*
%TD*%
D15*
%TO.C,J7*%
X-27477888Y-46300000D03*
D11*
X-31287888Y-46300000D03*
X-35097888Y-46300000D03*
X-38907888Y-46300000D03*
%TD*%
D16*
%TO.C,H8*%
X-51207888Y-47000000D03*
%TD*%
%TO.C,H7*%
X-15207888Y-47000000D03*
%TD*%
%TO.C,H6*%
X-15207888Y-3000000D03*
%TD*%
%TO.C,H5*%
X-51207888Y-3000000D03*
%TD*%
D17*
%TO.C,J1*%
X-53477888Y-42780000D03*
D18*
X-53477888Y-42780000D03*
D17*
X-50937888Y-42780000D03*
D19*
X-50937888Y-42780000D03*
D17*
X-53477888Y-40240000D03*
D18*
X-53477888Y-40240000D03*
D17*
X-50937888Y-40240000D03*
D19*
X-50937888Y-40240000D03*
D17*
X-53477888Y-37700000D03*
D18*
X-53477888Y-37700000D03*
D17*
X-50937888Y-37700000D03*
D19*
X-50937888Y-37700000D03*
D17*
X-53477888Y-35160000D03*
D18*
X-53477888Y-35160000D03*
D17*
X-50937888Y-35160000D03*
D19*
X-50937888Y-35160000D03*
D17*
X-53477888Y-32620000D03*
D18*
X-53477888Y-32620000D03*
D17*
X-50937888Y-32620000D03*
D19*
X-50937888Y-32620000D03*
D17*
X-53477888Y-30080000D03*
D18*
X-53477888Y-30080000D03*
D17*
X-50937888Y-30080000D03*
D19*
X-50937888Y-30080000D03*
D17*
X-53477888Y-27540000D03*
D18*
X-53477888Y-27540000D03*
D17*
X-50937888Y-27540000D03*
D19*
X-50937888Y-27540000D03*
D17*
X-53477888Y-25000000D03*
D18*
X-53477888Y-25000000D03*
D17*
X-50937888Y-25000000D03*
D19*
X-50937888Y-25000000D03*
D17*
X-53477888Y-22460000D03*
D18*
X-53477888Y-22460000D03*
D17*
X-50937888Y-22460000D03*
D19*
X-50937888Y-22460000D03*
D17*
X-53477888Y-19920000D03*
D18*
X-53477888Y-19920000D03*
D17*
X-50937888Y-19920000D03*
D19*
X-50937888Y-19920000D03*
D17*
X-53477888Y-17380000D03*
D18*
X-53477888Y-17380000D03*
D17*
X-50937888Y-17380000D03*
D19*
X-50937888Y-17380000D03*
D17*
X-53477888Y-14840000D03*
D18*
X-53477888Y-14840000D03*
D17*
X-50937888Y-14840000D03*
D19*
X-50937888Y-14840000D03*
D17*
X-53477888Y-12300000D03*
D18*
X-53477888Y-12300000D03*
D17*
X-50937888Y-12300000D03*
D19*
X-50937888Y-12300000D03*
D17*
X-53477888Y-9760000D03*
D18*
X-53477888Y-9760000D03*
D17*
X-50937888Y-9760000D03*
D19*
X-50937888Y-9760000D03*
D17*
X-53477888Y-7220000D03*
D18*
X-53477888Y-7220000D03*
D17*
X-50937888Y-7220000D03*
D19*
X-50937888Y-7220000D03*
D20*
X-52207888Y-41510000D03*
X-52207888Y-38970000D03*
X-52207888Y-11030000D03*
X-52207888Y-8490000D03*
%TD*%
D21*
%TO.C,C5*%
X-13896388Y-27178000D03*
X-12171388Y-27178000D03*
%TD*%
D22*
%TO.C,J3*%
X-44039888Y-46027000D03*
X-45039888Y-46027000D03*
X-46039888Y-46027000D03*
X-47039888Y-46027000D03*
D23*
X-42739888Y-48552000D03*
X-48339888Y-48552000D03*
%TD*%
D24*
%TO.C,C9*%
X-14000888Y-39116000D03*
X-11050888Y-39116000D03*
%TD*%
D25*
%TO.C,R5*%
X-15724388Y-43688000D03*
X-13899388Y-43688000D03*
%TD*%
D26*
%TO.C,C8*%
X-16107888Y-23737500D03*
X-16107888Y-25462500D03*
%TD*%
D27*
%TO.C,C10*%
X-16007888Y-21062500D03*
X-16007888Y-19337500D03*
%TD*%
D25*
%TO.C,R6*%
X-11556888Y-43688000D03*
X-9731888Y-43688000D03*
%TD*%
D28*
%TO.C,J2*%
X-42207888Y-7374100D03*
D29*
X-22207888Y-7374100D03*
D30*
X-41457888Y-2099100D03*
X-41207888Y-9649100D03*
X-40957888Y-2099100D03*
X-40707888Y-9649100D03*
X-40457888Y-2099100D03*
X-40207888Y-9649100D03*
X-39957888Y-2099100D03*
X-39707888Y-9649100D03*
X-39457888Y-2099100D03*
X-39207888Y-9649100D03*
X-38957888Y-2099100D03*
X-38707888Y-9649100D03*
X-38457888Y-2099100D03*
X-38207888Y-9649100D03*
X-37957888Y-2099100D03*
X-37707888Y-9649100D03*
X-37457888Y-2099100D03*
X-37207888Y-9649100D03*
X-36957888Y-2099100D03*
X-36707888Y-9649100D03*
X-36457888Y-2099100D03*
X-36207888Y-9649100D03*
X-35957888Y-2099100D03*
X-33707888Y-9649100D03*
X-33457888Y-2099100D03*
X-33207888Y-9649100D03*
X-32957888Y-2099100D03*
X-32707888Y-9649100D03*
X-32457888Y-2099100D03*
X-32207888Y-9649100D03*
X-31957888Y-2099100D03*
X-31707888Y-9649100D03*
X-31457888Y-2099100D03*
X-31207888Y-9649100D03*
X-30957888Y-2099100D03*
X-30707888Y-9649100D03*
X-30457888Y-2099100D03*
X-30207888Y-9649100D03*
X-29957888Y-2099100D03*
X-29707888Y-9649100D03*
X-29457888Y-2099100D03*
X-29207888Y-9649100D03*
X-28957888Y-2099100D03*
X-28707888Y-9649100D03*
X-28457888Y-2099100D03*
X-28207888Y-9649100D03*
X-27957888Y-2099100D03*
X-27707888Y-9649100D03*
X-27457888Y-2099100D03*
X-27207888Y-9649100D03*
X-26957888Y-2099100D03*
X-26707888Y-9649100D03*
X-26457888Y-2099100D03*
X-26207888Y-9649100D03*
X-25957888Y-2099100D03*
X-25707888Y-9649100D03*
X-25457888Y-2099100D03*
X-25207888Y-9649100D03*
X-24957888Y-2099100D03*
X-24707888Y-9649100D03*
X-24457888Y-2099100D03*
X-24207888Y-9649100D03*
X-23957888Y-2099100D03*
X-23707888Y-9649100D03*
X-23457888Y-2099100D03*
X-23207888Y-9649100D03*
X-22957888Y-2099100D03*
D31*
X-42557888Y-2874100D03*
X-21857888Y-2874100D03*
%TD*%
D24*
%TO.C,C1*%
X-14000888Y-41656000D03*
X-11050888Y-41656000D03*
%TD*%
D32*
%TO.C,H1*%
X-55207888Y-3000000D03*
%TD*%
%TO.C,H2*%
X-11207888Y-3000000D03*
%TD*%
%TO.C,H3*%
X-11207888Y-47000000D03*
%TD*%
%TO.C,H4*%
X-55207888Y-47000000D03*
%TD*%
D33*
%TO.C,L1*%
X-11207888Y-31600000D03*
X-14557888Y-31600000D03*
%TD*%
D34*
%TO.C,IC1*%
X-10307888Y-19176000D03*
X-11577888Y-19176000D03*
X-12847888Y-19176000D03*
X-14117888Y-19176000D03*
X-14117888Y-24600000D03*
X-12847888Y-24600000D03*
X-11577888Y-24600000D03*
X-10307888Y-24600000D03*
D35*
X-12212888Y-21888000D03*
%TD*%
D36*
%TO.C,U1*%
X-23082888Y-43695000D03*
X-23082888Y-44965000D03*
X-23082888Y-46235000D03*
X-23082888Y-47505000D03*
X-18132888Y-47505000D03*
X-18132888Y-46235000D03*
X-18132888Y-44965000D03*
X-18132888Y-43695000D03*
%TD*%
D37*
%TO.C,C7*%
X-17146888Y-6134000D03*
X-20096888Y-6134000D03*
%TD*%
D24*
%TO.C,C6*%
X-14000888Y-36576000D03*
X-11050888Y-36576000D03*
%TD*%
D38*
%TO.C,Q1*%
X-46495888Y-6017500D03*
X-44595888Y-6017500D03*
X-45545888Y-4142500D03*
%TD*%
D39*
%TO.C,MP1*%
X-32207888Y-41000000D03*
%TD*%
M02*
