%TF.GenerationSoftware,KiCad,Pcbnew,7.0.5-0*%
%TF.CreationDate,2023-07-13T17:44:08+01:00*%
%TF.ProjectId,M5-Notecard,4d352d4e-6f74-4656-9361-72642e6b6963,V01L04*%
%TF.SameCoordinates,Original*%
%TF.FileFunction,Paste,Bot*%
%TF.FilePolarity,Positive*%
%FSLAX46Y46*%
G04 Gerber Fmt 4.6, Leading zero omitted, Abs format (unit mm)*
G04 Created by KiCad (PCBNEW 7.0.5-0) date 2023-07-13 17:44:08*
%MOMM*%
%LPD*%
G01*
G04 APERTURE LIST*
%ADD10C,0.100000*%
G04 APERTURE END LIST*
%TO.C,J1*%
D10*
X-48524888Y-43224500D02*
X-50239388Y-43224500D01*
X-50239388Y-42335500D01*
X-48524888Y-42335500D01*
X-48524888Y-43224500D01*
G36*
X-48524888Y-43224500D02*
G01*
X-50239388Y-43224500D01*
X-50239388Y-42335500D01*
X-48524888Y-42335500D01*
X-48524888Y-43224500D01*
G37*
X-48524888Y-40684500D02*
X-50239388Y-40684500D01*
X-50239388Y-39795500D01*
X-48524888Y-39795500D01*
X-48524888Y-40684500D01*
G36*
X-48524888Y-40684500D02*
G01*
X-50239388Y-40684500D01*
X-50239388Y-39795500D01*
X-48524888Y-39795500D01*
X-48524888Y-40684500D01*
G37*
X-48524888Y-38144500D02*
X-50239388Y-38144500D01*
X-50239388Y-37255500D01*
X-48524888Y-37255500D01*
X-48524888Y-38144500D01*
G36*
X-48524888Y-38144500D02*
G01*
X-50239388Y-38144500D01*
X-50239388Y-37255500D01*
X-48524888Y-37255500D01*
X-48524888Y-38144500D01*
G37*
X-48524888Y-35604500D02*
X-50239388Y-35604500D01*
X-50239388Y-34715500D01*
X-48524888Y-34715500D01*
X-48524888Y-35604500D01*
G36*
X-48524888Y-35604500D02*
G01*
X-50239388Y-35604500D01*
X-50239388Y-34715500D01*
X-48524888Y-34715500D01*
X-48524888Y-35604500D01*
G37*
X-48524888Y-33064500D02*
X-50239388Y-33064500D01*
X-50239388Y-32175500D01*
X-48524888Y-32175500D01*
X-48524888Y-33064500D01*
G36*
X-48524888Y-33064500D02*
G01*
X-50239388Y-33064500D01*
X-50239388Y-32175500D01*
X-48524888Y-32175500D01*
X-48524888Y-33064500D01*
G37*
X-48524888Y-30524500D02*
X-50239388Y-30524500D01*
X-50239388Y-29635500D01*
X-48524888Y-29635500D01*
X-48524888Y-30524500D01*
G36*
X-48524888Y-30524500D02*
G01*
X-50239388Y-30524500D01*
X-50239388Y-29635500D01*
X-48524888Y-29635500D01*
X-48524888Y-30524500D01*
G37*
X-48524888Y-27984500D02*
X-50239388Y-27984500D01*
X-50239388Y-27095500D01*
X-48524888Y-27095500D01*
X-48524888Y-27984500D01*
G36*
X-48524888Y-27984500D02*
G01*
X-50239388Y-27984500D01*
X-50239388Y-27095500D01*
X-48524888Y-27095500D01*
X-48524888Y-27984500D01*
G37*
X-48524888Y-25444500D02*
X-50239388Y-25444500D01*
X-50239388Y-24555500D01*
X-48524888Y-24555500D01*
X-48524888Y-25444500D01*
G36*
X-48524888Y-25444500D02*
G01*
X-50239388Y-25444500D01*
X-50239388Y-24555500D01*
X-48524888Y-24555500D01*
X-48524888Y-25444500D01*
G37*
X-48524888Y-22904500D02*
X-50239388Y-22904500D01*
X-50239388Y-22015500D01*
X-48524888Y-22015500D01*
X-48524888Y-22904500D01*
G36*
X-48524888Y-22904500D02*
G01*
X-50239388Y-22904500D01*
X-50239388Y-22015500D01*
X-48524888Y-22015500D01*
X-48524888Y-22904500D01*
G37*
X-48524888Y-20364500D02*
X-50239388Y-20364500D01*
X-50239388Y-19475500D01*
X-48524888Y-19475500D01*
X-48524888Y-20364500D01*
G36*
X-48524888Y-20364500D02*
G01*
X-50239388Y-20364500D01*
X-50239388Y-19475500D01*
X-48524888Y-19475500D01*
X-48524888Y-20364500D01*
G37*
X-48524888Y-17824500D02*
X-50239388Y-17824500D01*
X-50239388Y-16935500D01*
X-48524888Y-16935500D01*
X-48524888Y-17824500D01*
G36*
X-48524888Y-17824500D02*
G01*
X-50239388Y-17824500D01*
X-50239388Y-16935500D01*
X-48524888Y-16935500D01*
X-48524888Y-17824500D01*
G37*
X-48524888Y-15284500D02*
X-50239388Y-15284500D01*
X-50239388Y-14395500D01*
X-48524888Y-14395500D01*
X-48524888Y-15284500D01*
G36*
X-48524888Y-15284500D02*
G01*
X-50239388Y-15284500D01*
X-50239388Y-14395500D01*
X-48524888Y-14395500D01*
X-48524888Y-15284500D01*
G37*
X-48524888Y-12744500D02*
X-50239388Y-12744500D01*
X-50239388Y-11855500D01*
X-48524888Y-11855500D01*
X-48524888Y-12744500D01*
G36*
X-48524888Y-12744500D02*
G01*
X-50239388Y-12744500D01*
X-50239388Y-11855500D01*
X-48524888Y-11855500D01*
X-48524888Y-12744500D01*
G37*
X-48524888Y-10204500D02*
X-50239388Y-10204500D01*
X-50239388Y-9315500D01*
X-48524888Y-9315500D01*
X-48524888Y-10204500D01*
G36*
X-48524888Y-10204500D02*
G01*
X-50239388Y-10204500D01*
X-50239388Y-9315500D01*
X-48524888Y-9315500D01*
X-48524888Y-10204500D01*
G37*
X-48524888Y-7664500D02*
X-50239388Y-7664500D01*
X-50239388Y-6775500D01*
X-48524888Y-6775500D01*
X-48524888Y-7664500D01*
G36*
X-48524888Y-7664500D02*
G01*
X-50239388Y-7664500D01*
X-50239388Y-6775500D01*
X-48524888Y-6775500D01*
X-48524888Y-7664500D01*
G37*
X-54176388Y-43224500D02*
X-55890888Y-43224500D01*
X-55890888Y-42335500D01*
X-54176388Y-42335500D01*
X-54176388Y-43224500D01*
G36*
X-54176388Y-43224500D02*
G01*
X-55890888Y-43224500D01*
X-55890888Y-42335500D01*
X-54176388Y-42335500D01*
X-54176388Y-43224500D01*
G37*
X-54176388Y-40684500D02*
X-55890888Y-40684500D01*
X-55890888Y-39795500D01*
X-54176388Y-39795500D01*
X-54176388Y-40684500D01*
G36*
X-54176388Y-40684500D02*
G01*
X-55890888Y-40684500D01*
X-55890888Y-39795500D01*
X-54176388Y-39795500D01*
X-54176388Y-40684500D01*
G37*
X-54176388Y-38144500D02*
X-55890888Y-38144500D01*
X-55890888Y-37255500D01*
X-54176388Y-37255500D01*
X-54176388Y-38144500D01*
G36*
X-54176388Y-38144500D02*
G01*
X-55890888Y-38144500D01*
X-55890888Y-37255500D01*
X-54176388Y-37255500D01*
X-54176388Y-38144500D01*
G37*
X-54176388Y-35604500D02*
X-55890888Y-35604500D01*
X-55890888Y-34715500D01*
X-54176388Y-34715500D01*
X-54176388Y-35604500D01*
G36*
X-54176388Y-35604500D02*
G01*
X-55890888Y-35604500D01*
X-55890888Y-34715500D01*
X-54176388Y-34715500D01*
X-54176388Y-35604500D01*
G37*
X-54176388Y-33064500D02*
X-55890888Y-33064500D01*
X-55890888Y-32175500D01*
X-54176388Y-32175500D01*
X-54176388Y-33064500D01*
G36*
X-54176388Y-33064500D02*
G01*
X-55890888Y-33064500D01*
X-55890888Y-32175500D01*
X-54176388Y-32175500D01*
X-54176388Y-33064500D01*
G37*
X-54176388Y-30524500D02*
X-55890888Y-30524500D01*
X-55890888Y-29635500D01*
X-54176388Y-29635500D01*
X-54176388Y-30524500D01*
G36*
X-54176388Y-30524500D02*
G01*
X-55890888Y-30524500D01*
X-55890888Y-29635500D01*
X-54176388Y-29635500D01*
X-54176388Y-30524500D01*
G37*
X-54176388Y-27984500D02*
X-55890888Y-27984500D01*
X-55890888Y-27095500D01*
X-54176388Y-27095500D01*
X-54176388Y-27984500D01*
G36*
X-54176388Y-27984500D02*
G01*
X-55890888Y-27984500D01*
X-55890888Y-27095500D01*
X-54176388Y-27095500D01*
X-54176388Y-27984500D01*
G37*
X-54176388Y-25444500D02*
X-55890888Y-25444500D01*
X-55890888Y-24555500D01*
X-54176388Y-24555500D01*
X-54176388Y-25444500D01*
G36*
X-54176388Y-25444500D02*
G01*
X-55890888Y-25444500D01*
X-55890888Y-24555500D01*
X-54176388Y-24555500D01*
X-54176388Y-25444500D01*
G37*
X-54176388Y-22904500D02*
X-55890888Y-22904500D01*
X-55890888Y-22015500D01*
X-54176388Y-22015500D01*
X-54176388Y-22904500D01*
G36*
X-54176388Y-22904500D02*
G01*
X-55890888Y-22904500D01*
X-55890888Y-22015500D01*
X-54176388Y-22015500D01*
X-54176388Y-22904500D01*
G37*
X-54176388Y-20364500D02*
X-55890888Y-20364500D01*
X-55890888Y-19475500D01*
X-54176388Y-19475500D01*
X-54176388Y-20364500D01*
G36*
X-54176388Y-20364500D02*
G01*
X-55890888Y-20364500D01*
X-55890888Y-19475500D01*
X-54176388Y-19475500D01*
X-54176388Y-20364500D01*
G37*
X-54176388Y-17824500D02*
X-55890888Y-17824500D01*
X-55890888Y-16935500D01*
X-54176388Y-16935500D01*
X-54176388Y-17824500D01*
G36*
X-54176388Y-17824500D02*
G01*
X-55890888Y-17824500D01*
X-55890888Y-16935500D01*
X-54176388Y-16935500D01*
X-54176388Y-17824500D01*
G37*
X-54176388Y-15284500D02*
X-55890888Y-15284500D01*
X-55890888Y-14395500D01*
X-54176388Y-14395500D01*
X-54176388Y-15284500D01*
G36*
X-54176388Y-15284500D02*
G01*
X-55890888Y-15284500D01*
X-55890888Y-14395500D01*
X-54176388Y-14395500D01*
X-54176388Y-15284500D01*
G37*
X-54176388Y-12744500D02*
X-55890888Y-12744500D01*
X-55890888Y-11855500D01*
X-54176388Y-11855500D01*
X-54176388Y-12744500D01*
G36*
X-54176388Y-12744500D02*
G01*
X-55890888Y-12744500D01*
X-55890888Y-11855500D01*
X-54176388Y-11855500D01*
X-54176388Y-12744500D01*
G37*
X-54176388Y-10204500D02*
X-55890888Y-10204500D01*
X-55890888Y-9315500D01*
X-54176388Y-9315500D01*
X-54176388Y-10204500D01*
G36*
X-54176388Y-10204500D02*
G01*
X-55890888Y-10204500D01*
X-55890888Y-9315500D01*
X-54176388Y-9315500D01*
X-54176388Y-10204500D01*
G37*
X-54176388Y-7664500D02*
X-55890888Y-7664500D01*
X-55890888Y-6775500D01*
X-54176388Y-6775500D01*
X-54176388Y-7664500D01*
G36*
X-54176388Y-7664500D02*
G01*
X-55890888Y-7664500D01*
X-55890888Y-6775500D01*
X-54176388Y-6775500D01*
X-54176388Y-7664500D01*
G37*
%TD*%
M02*
