%TF.GenerationSoftware,KiCad,Pcbnew,7.0.5-0*%
%TF.CreationDate,2023-07-13T17:44:08+01:00*%
%TF.ProjectId,M5-Notecard,4d352d4e-6f74-4656-9361-72642e6b6963,V01L04*%
%TF.SameCoordinates,Original*%
%TF.FileFunction,Soldermask,Bot*%
%TF.FilePolarity,Negative*%
%FSLAX46Y46*%
G04 Gerber Fmt 4.6, Leading zero omitted, Abs format (unit mm)*
G04 Created by KiCad (PCBNEW 7.0.5-0) date 2023-07-13 17:44:08*
%MOMM*%
%LPD*%
G01*
G04 APERTURE LIST*
G04 Aperture macros list*
%AMRoundRect*
0 Rectangle with rounded corners*
0 $1 Rounding radius*
0 $2 $3 $4 $5 $6 $7 $8 $9 X,Y pos of 4 corners*
0 Add a 4 corners polygon primitive as box body*
4,1,4,$2,$3,$4,$5,$6,$7,$8,$9,$2,$3,0*
0 Add four circle primitives for the rounded corners*
1,1,$1+$1,$2,$3*
1,1,$1+$1,$4,$5*
1,1,$1+$1,$6,$7*
1,1,$1+$1,$8,$9*
0 Add four rect primitives between the rounded corners*
20,1,$1+$1,$2,$3,$4,$5,0*
20,1,$1+$1,$4,$5,$6,$7,0*
20,1,$1+$1,$6,$7,$8,$9,0*
20,1,$1+$1,$8,$9,$2,$3,0*%
%AMFreePoly0*
4,1,13,0.535355,0.535355,0.550000,0.500000,0.550000,-0.500000,0.535355,-0.535355,0.500000,-0.550000,-2.500000,-0.550000,-2.535355,-0.535355,-2.550000,-0.500000,-2.550000,0.500000,-2.535355,0.535355,-2.500000,0.550000,0.500000,0.550000,0.535355,0.535355,0.535355,0.535355,$1*%
%AMFreePoly1*
4,1,35,0.535355,0.785355,0.550000,0.750000,0.550000,-0.750000,0.535355,-0.785355,0.500000,-0.800000,0.000000,-0.800000,-0.012286,-0.794911,-0.071157,-0.794911,-0.085244,-0.792886,-0.221795,-0.752791,-0.234740,-0.746879,-0.354462,-0.669938,-0.365217,-0.660618,-0.458414,-0.553063,-0.466109,-0.541091,-0.525228,-0.411637,-0.529237,-0.397982,-0.549491,-0.257116,-0.550000,-0.250000,-0.550000,0.250000,
-0.549491,0.257116,-0.529237,0.397982,-0.525228,0.411637,-0.466109,0.541091,-0.458414,0.553063,-0.365217,0.660618,-0.354462,0.669938,-0.234740,0.746879,-0.221795,0.752791,-0.085244,0.792886,-0.071157,0.794911,-0.012286,0.794911,0.000000,0.800000,0.500000,0.800000,0.535355,0.785355,0.535355,0.785355,$1*%
%AMFreePoly2*
4,1,35,0.012286,0.794911,0.071157,0.794911,0.085244,0.792886,0.221795,0.752791,0.234740,0.746879,0.354462,0.669938,0.365217,0.660618,0.458414,0.553063,0.466109,0.541091,0.525228,0.411637,0.529237,0.397982,0.549491,0.257116,0.550000,0.250000,0.550000,-0.250000,0.549491,-0.257116,0.529237,-0.397982,0.525228,-0.411637,0.466109,-0.541091,0.458414,-0.553063,0.365217,-0.660618,
0.354462,-0.669938,0.234740,-0.746879,0.221795,-0.752791,0.085244,-0.792886,0.071157,-0.794911,0.012286,-0.794911,0.000000,-0.800000,-0.500000,-0.800000,-0.535355,-0.785355,-0.550000,-0.750000,-0.550000,0.750000,-0.535355,0.785355,-0.500000,0.800000,0.000000,0.800000,0.012286,0.794911,0.012286,0.794911,$1*%
%AMFreePoly3*
4,1,35,0.012286,0.794911,0.071157,0.794911,0.085244,0.792886,0.221795,0.752791,0.234740,0.746879,0.354462,0.669938,0.365217,0.660618,0.458414,0.553063,0.466109,0.541091,0.525228,0.411637,0.529237,0.397982,0.549491,0.257116,0.550000,0.250000,0.550000,-0.250000,0.549491,-0.257116,0.529237,-0.397982,0.525228,-0.411637,0.466109,-0.541091,0.458414,-0.553063,0.365217,-0.660618,
0.354462,-0.669938,0.234740,-0.746879,0.221795,-0.752791,0.085244,-0.792886,0.071157,-0.794911,0.012286,-0.794911,0.000000,-0.800000,-0.550000,-0.800000,-0.585355,-0.785355,-0.600000,-0.750000,-0.600000,0.750000,-0.585355,0.785355,-0.550000,0.800000,0.000000,0.800000,0.012286,0.794911,0.012286,0.794911,$1*%
%AMFreePoly4*
4,1,35,0.585355,0.785355,0.600000,0.750000,0.600000,-0.750000,0.585355,-0.785355,0.550000,-0.800000,0.000000,-0.800000,-0.012286,-0.794911,-0.071157,-0.794911,-0.085244,-0.792886,-0.221795,-0.752791,-0.234740,-0.746879,-0.354462,-0.669938,-0.365217,-0.660618,-0.458414,-0.553063,-0.466109,-0.541091,-0.525228,-0.411637,-0.529237,-0.397982,-0.549491,-0.257116,-0.550000,-0.250000,-0.550000,0.250000,
-0.549491,0.257116,-0.529237,0.397982,-0.525228,0.411637,-0.466109,0.541091,-0.458414,0.553063,-0.365217,0.660618,-0.354462,0.669938,-0.234740,0.746879,-0.221795,0.752791,-0.085244,0.792886,-0.071157,0.794911,-0.012286,0.794911,0.000000,0.800000,0.550000,0.800000,0.585355,0.785355,0.585355,0.785355,$1*%
G04 Aperture macros list end*
%ADD10RoundRect,0.050000X-0.900000X0.900000X-0.900000X-0.900000X0.900000X-0.900000X0.900000X0.900000X0*%
%ADD11C,1.900000*%
%ADD12RoundRect,0.050000X0.900000X-2.200000X0.900000X2.200000X-0.900000X2.200000X-0.900000X-2.200000X0*%
%ADD13O,1.900000X4.100000*%
%ADD14O,4.100000X1.900000*%
%ADD15RoundRect,0.050000X0.900000X0.900000X-0.900000X0.900000X-0.900000X-0.900000X0.900000X-0.900000X0*%
%ADD16C,2.300000*%
%ADD17C,1.800000*%
%ADD18FreePoly0,0.000000*%
%ADD19FreePoly0,180.000000*%
%ADD20C,1.100000*%
%ADD21FreePoly1,0.000000*%
%ADD22FreePoly2,0.000000*%
%ADD23FreePoly3,0.000000*%
%ADD24RoundRect,0.050000X-0.500000X-0.750000X0.500000X-0.750000X0.500000X0.750000X-0.500000X0.750000X0*%
%ADD25FreePoly4,0.000000*%
%ADD26C,1.250000*%
%ADD27C,1.750000*%
%ADD28C,3.300000*%
%ADD29C,6.100000*%
G04 APERTURE END LIST*
D10*
%TO.C,J6*%
X-13287888Y-11214000D03*
D11*
X-13287888Y-15024000D03*
%TD*%
D12*
%TO.C,J5*%
X-15573888Y-13084000D03*
D13*
X-9773888Y-13084000D03*
D14*
X-12573888Y-8284000D03*
%TD*%
D15*
%TO.C,J7*%
X-27477888Y-46300000D03*
D11*
X-31287888Y-46300000D03*
X-35097888Y-46300000D03*
X-38907888Y-46300000D03*
%TD*%
D16*
%TO.C,H8*%
X-51207888Y-47000000D03*
%TD*%
%TO.C,H7*%
X-15207888Y-47000000D03*
%TD*%
%TO.C,H6*%
X-15207888Y-3000000D03*
%TD*%
%TO.C,H5*%
X-51207888Y-3000000D03*
%TD*%
D17*
%TO.C,J1*%
X-53477888Y-42780000D03*
D18*
X-53477888Y-42780000D03*
D17*
X-50937888Y-42780000D03*
D19*
X-50937888Y-42780000D03*
D17*
X-53477888Y-40240000D03*
D18*
X-53477888Y-40240000D03*
D17*
X-50937888Y-40240000D03*
D19*
X-50937888Y-40240000D03*
D17*
X-53477888Y-37700000D03*
D18*
X-53477888Y-37700000D03*
D17*
X-50937888Y-37700000D03*
D19*
X-50937888Y-37700000D03*
D17*
X-53477888Y-35160000D03*
D18*
X-53477888Y-35160000D03*
D17*
X-50937888Y-35160000D03*
D19*
X-50937888Y-35160000D03*
D17*
X-53477888Y-32620000D03*
D18*
X-53477888Y-32620000D03*
D17*
X-50937888Y-32620000D03*
D19*
X-50937888Y-32620000D03*
D17*
X-53477888Y-30080000D03*
D18*
X-53477888Y-30080000D03*
D17*
X-50937888Y-30080000D03*
D19*
X-50937888Y-30080000D03*
D17*
X-53477888Y-27540000D03*
D18*
X-53477888Y-27540000D03*
D17*
X-50937888Y-27540000D03*
D19*
X-50937888Y-27540000D03*
D17*
X-53477888Y-25000000D03*
D18*
X-53477888Y-25000000D03*
D17*
X-50937888Y-25000000D03*
D19*
X-50937888Y-25000000D03*
D17*
X-53477888Y-22460000D03*
D18*
X-53477888Y-22460000D03*
D17*
X-50937888Y-22460000D03*
D19*
X-50937888Y-22460000D03*
D17*
X-53477888Y-19920000D03*
D18*
X-53477888Y-19920000D03*
D17*
X-50937888Y-19920000D03*
D19*
X-50937888Y-19920000D03*
D17*
X-53477888Y-17380000D03*
D18*
X-53477888Y-17380000D03*
D17*
X-50937888Y-17380000D03*
D19*
X-50937888Y-17380000D03*
D17*
X-53477888Y-14840000D03*
D18*
X-53477888Y-14840000D03*
D17*
X-50937888Y-14840000D03*
D19*
X-50937888Y-14840000D03*
D17*
X-53477888Y-12300000D03*
D18*
X-53477888Y-12300000D03*
D17*
X-50937888Y-12300000D03*
D19*
X-50937888Y-12300000D03*
D17*
X-53477888Y-9760000D03*
D18*
X-53477888Y-9760000D03*
D17*
X-50937888Y-9760000D03*
D19*
X-50937888Y-9760000D03*
D17*
X-53477888Y-7220000D03*
D18*
X-53477888Y-7220000D03*
D17*
X-50937888Y-7220000D03*
D19*
X-50937888Y-7220000D03*
D20*
X-52207888Y-41510000D03*
X-52207888Y-38970000D03*
X-52207888Y-11030000D03*
X-52207888Y-8490000D03*
%TD*%
D21*
%TO.C,JP7*%
X-43147888Y-12230000D03*
D22*
X-41847888Y-12230000D03*
%TD*%
D21*
%TO.C,JP6*%
X-43147888Y-35090000D03*
D22*
X-41847888Y-35090000D03*
%TD*%
%TO.C,JP4*%
X-41847888Y-30010000D03*
D21*
X-43147888Y-30010000D03*
%TD*%
%TO.C,JP3*%
X-43147888Y-22390000D03*
D22*
X-41847888Y-22390000D03*
%TD*%
D21*
%TO.C,JP2*%
X-43147888Y-32550000D03*
D22*
X-41847888Y-32550000D03*
%TD*%
D21*
%TO.C,JP1*%
X-43147888Y-24930000D03*
D22*
X-41847888Y-24930000D03*
%TD*%
D23*
%TO.C,JP5*%
X-21893888Y-14478000D03*
D24*
X-23193888Y-14478000D03*
D25*
X-24493888Y-14478000D03*
%TD*%
D26*
%TO.C,J2*%
X-42207888Y-7374100D03*
D27*
X-22207888Y-7374100D03*
%TD*%
D28*
%TO.C,H1*%
X-55207888Y-3000000D03*
%TD*%
%TO.C,H2*%
X-11207888Y-3000000D03*
%TD*%
%TO.C,H3*%
X-11207888Y-47000000D03*
%TD*%
%TO.C,H4*%
X-55207888Y-47000000D03*
%TD*%
D29*
%TO.C,MP1*%
X-32207888Y-41000000D03*
%TD*%
D21*
%TO.C,JP8*%
X-43147888Y-37630000D03*
D22*
X-41847888Y-37630000D03*
%TD*%
M02*
