%TF.GenerationSoftware,KiCad,Pcbnew,7.0.5-0*%
%TF.CreationDate,2023-07-13T17:44:08+01:00*%
%TF.ProjectId,M5-Notecard,4d352d4e-6f74-4656-9361-72642e6b6963,V01L04*%
%TF.SameCoordinates,Original*%
%TF.FileFunction,Copper,L2,Bot*%
%TF.FilePolarity,Positive*%
%FSLAX46Y46*%
G04 Gerber Fmt 4.6, Leading zero omitted, Abs format (unit mm)*
G04 Created by KiCad (PCBNEW 7.0.5-0) date 2023-07-13 17:44:08*
%MOMM*%
%LPD*%
G01*
G04 APERTURE LIST*
G04 Aperture macros list*
%AMFreePoly0*
4,1,6,0.500000,-0.500000,-0.500000,-0.500000,-2.500000,-0.500000,-2.500000,0.500000,0.500000,0.500000,0.500000,-0.500000,0.500000,-0.500000,$1*%
%AMFreePoly1*
4,1,19,0.500000,-0.750000,0.000000,-0.750000,0.000000,-0.744911,-0.071157,-0.744911,-0.207708,-0.704816,-0.327430,-0.627875,-0.420627,-0.520320,-0.479746,-0.390866,-0.500000,-0.250000,-0.500000,0.250000,-0.479746,0.390866,-0.420627,0.520320,-0.327430,0.627875,-0.207708,0.704816,-0.071157,0.744911,0.000000,0.744911,0.000000,0.750000,0.500000,0.750000,0.500000,-0.750000,0.500000,-0.750000,
$1*%
%AMFreePoly2*
4,1,19,0.000000,0.744911,0.071157,0.744911,0.207708,0.704816,0.327430,0.627875,0.420627,0.520320,0.479746,0.390866,0.500000,0.250000,0.500000,-0.250000,0.479746,-0.390866,0.420627,-0.520320,0.327430,-0.627875,0.207708,-0.704816,0.071157,-0.744911,0.000000,-0.744911,0.000000,-0.750000,-0.500000,-0.750000,-0.500000,0.750000,0.000000,0.750000,0.000000,0.744911,0.000000,0.744911,
$1*%
%AMFreePoly3*
4,1,19,0.000000,0.744911,0.071157,0.744911,0.207708,0.704816,0.327430,0.627875,0.420627,0.520320,0.479746,0.390866,0.500000,0.250000,0.500000,-0.250000,0.479746,-0.390866,0.420627,-0.520320,0.327430,-0.627875,0.207708,-0.704816,0.071157,-0.744911,0.000000,-0.744911,0.000000,-0.750000,-0.550000,-0.750000,-0.550000,0.750000,0.000000,0.750000,0.000000,0.744911,0.000000,0.744911,
$1*%
%AMFreePoly4*
4,1,19,0.550000,-0.750000,0.000000,-0.750000,0.000000,-0.744911,-0.071157,-0.744911,-0.207708,-0.704816,-0.327430,-0.627875,-0.420627,-0.520320,-0.479746,-0.390866,-0.500000,-0.250000,-0.500000,0.250000,-0.479746,0.390866,-0.420627,0.520320,-0.327430,0.627875,-0.207708,0.704816,-0.071157,0.744911,0.000000,0.744911,0.000000,0.750000,0.550000,0.750000,0.550000,-0.750000,0.550000,-0.750000,
$1*%
G04 Aperture macros list end*
%TA.AperFunction,ComponentPad*%
%ADD10R,1.800000X1.800000*%
%TD*%
%TA.AperFunction,ComponentPad*%
%ADD11C,1.800000*%
%TD*%
%TA.AperFunction,ComponentPad*%
%ADD12R,1.800000X4.400000*%
%TD*%
%TA.AperFunction,ComponentPad*%
%ADD13O,1.800000X4.000000*%
%TD*%
%TA.AperFunction,ComponentPad*%
%ADD14O,4.000000X1.800000*%
%TD*%
%TA.AperFunction,ComponentPad*%
%ADD15C,1.700000*%
%TD*%
%TA.AperFunction,SMDPad,CuDef*%
%ADD16FreePoly0,0.000000*%
%TD*%
%TA.AperFunction,SMDPad,CuDef*%
%ADD17FreePoly0,180.000000*%
%TD*%
%TA.AperFunction,SMDPad,CuDef*%
%ADD18FreePoly1,0.000000*%
%TD*%
%TA.AperFunction,SMDPad,CuDef*%
%ADD19FreePoly2,0.000000*%
%TD*%
%TA.AperFunction,SMDPad,CuDef*%
%ADD20FreePoly3,0.000000*%
%TD*%
%TA.AperFunction,SMDPad,CuDef*%
%ADD21R,1.000000X1.500000*%
%TD*%
%TA.AperFunction,SMDPad,CuDef*%
%ADD22FreePoly4,0.000000*%
%TD*%
%TA.AperFunction,WasherPad*%
%ADD23C,6.000000*%
%TD*%
%TA.AperFunction,ViaPad*%
%ADD24C,0.800000*%
%TD*%
%TA.AperFunction,Conductor*%
%ADD25C,0.300000*%
%TD*%
%TA.AperFunction,Conductor*%
%ADD26C,1.200000*%
%TD*%
%TA.AperFunction,Conductor*%
%ADD27C,0.800000*%
%TD*%
%TA.AperFunction,Conductor*%
%ADD28C,0.600000*%
%TD*%
%TA.AperFunction,Conductor*%
%ADD29C,0.200000*%
%TD*%
%TA.AperFunction,Conductor*%
%ADD30C,0.400000*%
%TD*%
G04 APERTURE END LIST*
%TA.AperFunction,EtchedComponent*%
%TO.C,JP7*%
G36*
X-42247888Y-12530000D02*
G01*
X-42747888Y-12530000D01*
X-42747888Y-11930000D01*
X-42247888Y-11930000D01*
X-42247888Y-12530000D01*
G37*
%TD.AperFunction*%
%TA.AperFunction,EtchedComponent*%
%TO.C,JP6*%
G36*
X-42247888Y-35390000D02*
G01*
X-42747888Y-35390000D01*
X-42747888Y-34790000D01*
X-42247888Y-34790000D01*
X-42247888Y-35390000D01*
G37*
%TD.AperFunction*%
%TA.AperFunction,EtchedComponent*%
%TO.C,JP4*%
G36*
X-42247888Y-30310000D02*
G01*
X-42747888Y-30310000D01*
X-42747888Y-29710000D01*
X-42247888Y-29710000D01*
X-42247888Y-30310000D01*
G37*
%TD.AperFunction*%
%TA.AperFunction,EtchedComponent*%
%TO.C,JP3*%
G36*
X-42247888Y-22690000D02*
G01*
X-42747888Y-22690000D01*
X-42747888Y-22090000D01*
X-42247888Y-22090000D01*
X-42247888Y-22690000D01*
G37*
%TD.AperFunction*%
%TA.AperFunction,EtchedComponent*%
%TO.C,JP2*%
G36*
X-42247888Y-32850000D02*
G01*
X-42747888Y-32850000D01*
X-42747888Y-32250000D01*
X-42247888Y-32250000D01*
X-42247888Y-32850000D01*
G37*
%TD.AperFunction*%
%TA.AperFunction,EtchedComponent*%
%TO.C,JP1*%
G36*
X-42247888Y-25230000D02*
G01*
X-42747888Y-25230000D01*
X-42747888Y-24630000D01*
X-42247888Y-24630000D01*
X-42247888Y-25230000D01*
G37*
%TD.AperFunction*%
%TA.AperFunction,EtchedComponent*%
%TO.C,JP5*%
G36*
X-23593888Y-14778000D02*
G01*
X-24093888Y-14778000D01*
X-24093888Y-14178000D01*
X-23593888Y-14178000D01*
X-23593888Y-14778000D01*
G37*
%TD.AperFunction*%
%TA.AperFunction,EtchedComponent*%
%TO.C,JP8*%
G36*
X-42247888Y-37930000D02*
G01*
X-42747888Y-37930000D01*
X-42747888Y-37330000D01*
X-42247888Y-37330000D01*
X-42247888Y-37930000D01*
G37*
%TD.AperFunction*%
%TD*%
D10*
%TO.P,J6,1,1*%
%TO.N,GND*%
X-13287888Y-11214000D03*
D11*
%TO.P,J6,2,2*%
%TO.N,+12V*%
X-13287888Y-15024000D03*
%TD*%
D12*
%TO.P,J5,1*%
%TO.N,+12V*%
X-15573888Y-13084000D03*
D13*
%TO.P,J5,2*%
%TO.N,GND*%
X-9773888Y-13084000D03*
D14*
%TO.P,J5,3*%
X-12573888Y-8284000D03*
%TD*%
D10*
%TO.P,J7,1,1*%
%TO.N,GND*%
X-27477888Y-46300000D03*
D11*
%TO.P,J7,2,2*%
%TO.N,+12V*%
X-31287888Y-46300000D03*
%TO.P,J7,3,3*%
%TO.N,/RS485_A*%
X-35097888Y-46300000D03*
%TO.P,J7,4,4*%
%TO.N,/RS485_B*%
X-38907888Y-46300000D03*
%TD*%
D15*
%TO.P,J1,30,Pin_30*%
%TO.N,+12V*%
X-53477888Y-42780000D03*
D16*
X-53477888Y-42780000D03*
D15*
%TO.P,J1,29,Pin_29*%
%TO.N,+BATT*%
X-50937888Y-42780000D03*
D17*
X-50937888Y-42780000D03*
D15*
%TO.P,J1,28,Pin_28*%
%TO.N,+12V*%
X-53477888Y-40240000D03*
D16*
X-53477888Y-40240000D03*
D15*
%TO.P,J1,27,Pin_27*%
%TO.N,+5V*%
X-50937888Y-40240000D03*
D17*
X-50937888Y-40240000D03*
D15*
%TO.P,J1,26,Pin_26*%
%TO.N,+12V*%
X-53477888Y-37700000D03*
D16*
X-53477888Y-37700000D03*
D15*
%TO.P,J1,25,Pin_25*%
%TO.N,unconnected-(J1-Pin_25-Pad25)*%
X-50937888Y-37700000D03*
D17*
X-50937888Y-37700000D03*
D15*
%TO.P,J1,24,Pin_24*%
%TO.N,/RS485_DE*%
X-53477888Y-35160000D03*
D16*
X-53477888Y-35160000D03*
D15*
%TO.P,J1,23,Pin_23*%
%TO.N,/GPIO0*%
X-50937888Y-35160000D03*
D17*
X-50937888Y-35160000D03*
D15*
%TO.P,J1,22,Pin_22*%
%TO.N,/ATTN*%
X-53477888Y-32620000D03*
D16*
X-53477888Y-32620000D03*
D15*
%TO.P,J1,21,Pin_21*%
%TO.N,/AUX_EN*%
X-50937888Y-32620000D03*
D17*
X-50937888Y-32620000D03*
D15*
%TO.P,J1,20,Pin_20*%
%TO.N,/extSDA*%
X-53477888Y-30080000D03*
D16*
X-53477888Y-30080000D03*
D15*
%TO.P,J1,19,Pin_19*%
%TO.N,/extSCL*%
X-50937888Y-30080000D03*
D17*
X-50937888Y-30080000D03*
D15*
%TO.P,J1,18,Pin_18*%
%TO.N,/intSDA*%
X-53477888Y-27540000D03*
D16*
X-53477888Y-27540000D03*
D15*
%TO.P,J1,17,Pin_17*%
%TO.N,/intSCL*%
X-50937888Y-27540000D03*
D17*
X-50937888Y-27540000D03*
D15*
%TO.P,J1,16,Pin_16*%
%TO.N,/RXD2*%
X-53477888Y-25000000D03*
D16*
X-53477888Y-25000000D03*
D15*
%TO.P,J1,15,Pin_15*%
%TO.N,/TXD2*%
X-50937888Y-25000000D03*
D17*
X-50937888Y-25000000D03*
D15*
%TO.P,J1,14,Pin_14*%
%TO.N,/RXD0*%
X-53477888Y-22460000D03*
D16*
X-53477888Y-22460000D03*
D15*
%TO.P,J1,13,Pin_13*%
%TO.N,/TXD0*%
X-50937888Y-22460000D03*
D17*
X-50937888Y-22460000D03*
D15*
%TO.P,J1,12,Pin_12*%
%TO.N,unconnected-(J1-Pin_12-Pad12)*%
X-53477888Y-19920000D03*
D16*
X-53477888Y-19920000D03*
D15*
%TO.P,J1,11,Pin_11*%
%TO.N,+3V3*%
X-50937888Y-19920000D03*
D17*
X-50937888Y-19920000D03*
D15*
%TO.P,J1,10,Pin_10*%
%TO.N,unconnected-(J1-Pin_10-Pad10)*%
X-53477888Y-17380000D03*
D16*
X-53477888Y-17380000D03*
D15*
%TO.P,J1,9,Pin_9*%
%TO.N,unconnected-(J1-Pin_9-Pad9)*%
X-50937888Y-17380000D03*
D17*
X-50937888Y-17380000D03*
D15*
%TO.P,J1,8,Pin_8*%
%TO.N,unconnected-(J1-Pin_8-Pad8)*%
X-53477888Y-14840000D03*
D16*
X-53477888Y-14840000D03*
D15*
%TO.P,J1,7,Pin_7*%
%TO.N,unconnected-(J1-Pin_7-Pad7)*%
X-50937888Y-14840000D03*
D17*
X-50937888Y-14840000D03*
D15*
%TO.P,J1,6,Pin_6*%
%TO.N,GND*%
X-53477888Y-12300000D03*
D16*
X-53477888Y-12300000D03*
D15*
%TO.P,J1,5,Pin_5*%
%TO.N,/EN*%
X-50937888Y-12300000D03*
D17*
X-50937888Y-12300000D03*
D15*
%TO.P,J1,4,Pin_4*%
%TO.N,GND*%
X-53477888Y-9760000D03*
D16*
X-53477888Y-9760000D03*
D15*
%TO.P,J1,3,Pin_3*%
%TO.N,unconnected-(J1-Pin_3-Pad3)*%
X-50937888Y-9760000D03*
D17*
X-50937888Y-9760000D03*
D15*
%TO.P,J1,2,Pin_2*%
%TO.N,GND*%
X-53477888Y-7220000D03*
D16*
X-53477888Y-7220000D03*
D15*
%TO.P,J1,1,Pin_1*%
%TO.N,unconnected-(J1-Pin_1-Pad1)*%
X-50937888Y-7220000D03*
D17*
X-50937888Y-7220000D03*
%TD*%
D18*
%TO.P,JP7,1,A*%
%TO.N,/EN*%
X-43147888Y-12230000D03*
D19*
%TO.P,JP7,2,B*%
%TO.N,Net-(J2-AUX4)*%
X-41847888Y-12230000D03*
%TD*%
D18*
%TO.P,JP6,1,A*%
%TO.N,/GPIO0*%
X-43147888Y-35090000D03*
D19*
%TO.P,JP6,2,B*%
%TO.N,Net-(J2-AUX3)*%
X-41847888Y-35090000D03*
%TD*%
%TO.P,JP4,2,B*%
%TO.N,Net-(J2-AUX_EN_P)*%
X-41847888Y-30010000D03*
D18*
%TO.P,JP4,1,A*%
%TO.N,/AUX_EN*%
X-43147888Y-30010000D03*
%TD*%
%TO.P,JP3,1,A*%
%TO.N,/TXD0*%
X-43147888Y-22390000D03*
D19*
%TO.P,JP3,2,B*%
%TO.N,Net-(J2-AUX_RX_P)*%
X-41847888Y-22390000D03*
%TD*%
D18*
%TO.P,JP2,1,A*%
%TO.N,/ATTN*%
X-43147888Y-32550000D03*
D19*
%TO.P,JP2,2,B*%
%TO.N,Net-(J2-ATTN_P)*%
X-41847888Y-32550000D03*
%TD*%
D18*
%TO.P,JP1,1,A*%
%TO.N,/RXD0*%
X-43147888Y-24930000D03*
D19*
%TO.P,JP1,2,B*%
%TO.N,Net-(J2-AUX_TX_P)*%
X-41847888Y-24930000D03*
%TD*%
D20*
%TO.P,JP5,3,B*%
%TO.N,+BATT*%
X-21893888Y-14478000D03*
D21*
%TO.P,JP5,2,C*%
%TO.N,/VMODEM*%
X-23193888Y-14478000D03*
D22*
%TO.P,JP5,1,A*%
%TO.N,+5V*%
X-24493888Y-14478000D03*
%TD*%
D23*
%TO.P,MP1,*%
%TO.N,*%
X-32207888Y-41000000D03*
%TD*%
D18*
%TO.P,JP8,1,A*%
%TO.N,/RS485_DE*%
X-43147888Y-37630000D03*
D19*
%TO.P,JP8,2,B*%
%TO.N,Net-(JP8-B)*%
X-41847888Y-37630000D03*
%TD*%
D24*
%TO.N,GND*%
X-20526888Y-18326000D03*
%TO.N,+12V*%
X-17605888Y-14897000D03*
%TO.N,GND*%
X-13668888Y-1181000D03*
X-13033888Y-5499000D03*
X-9096888Y-7023000D03*
X-9350888Y-9690000D03*
X-11382888Y-10960000D03*
%TO.N,+12V*%
X-12525888Y-17564000D03*
X-16335888Y-16802000D03*
%TO.N,GND*%
X-45545888Y-23660000D03*
X-39703888Y-23914000D03*
X-45037888Y-29248000D03*
X-45545888Y-26454000D03*
X-28019888Y-40424000D03*
X-36655888Y-42710000D03*
X-29543888Y-25946000D03*
X-19383888Y-15278000D03*
X-20653888Y-21120000D03*
X-19637888Y-25184000D03*
X-25987888Y-18072000D03*
X-25987888Y-24422000D03*
X-26749888Y-31534000D03*
X-30051888Y-31534000D03*
X-39957888Y-35852000D03*
X-37925888Y-34074000D03*
%TO.N,+5V*%
X-22431888Y-34836000D03*
%TO.N,GND*%
X-8969888Y-19850000D03*
X-8969888Y-22644000D03*
X-8969888Y-17818000D03*
X-16843888Y-26962000D03*
X-15573888Y-27470000D03*
%TO.N,+5V*%
X-21923888Y-30518000D03*
X-21542888Y-32423000D03*
X-22177888Y-33566000D03*
X-21415888Y-35598000D03*
X-22431888Y-36868000D03*
%TO.N,GND*%
X-57229888Y-23660000D03*
X-26241888Y-44234000D03*
X-39195888Y-49060000D03*
X-45799888Y-49187000D03*
X-53927888Y-49314000D03*
X-57229888Y-45504000D03*
X-29035888Y-18834000D03*
X-31829888Y-22644000D03*
X-35131888Y-26454000D03*
X-38941888Y-29248000D03*
X-25733888Y-11468000D03*
X-29035888Y-11468000D03*
X-36655888Y-11976000D03*
X-36655888Y-15786000D03*
X-38687888Y-18326000D03*
X-39449888Y-12738000D03*
X-41481888Y-16294000D03*
X-33099888Y-11468000D03*
X-33099888Y-13754000D03*
X-33353888Y-16548000D03*
X-34623888Y-18834000D03*
X-36909888Y-21120000D03*
X-39195888Y-21374000D03*
X-41227888Y-20104000D03*
X-43513888Y-18834000D03*
X-45799888Y-21120000D03*
X-45545888Y-15278000D03*
X-46561888Y-13500000D03*
X-46307888Y-17056000D03*
X-44021888Y-14262000D03*
X-44783888Y-11214000D03*
X-34877888Y-7658000D03*
X-37671888Y-5880000D03*
X-39957888Y-7912000D03*
X-42243888Y-5880000D03*
X-31321888Y-5880000D03*
X-13287888Y-48806000D03*
X-15827888Y-49060000D03*
X-18621888Y-49314000D03*
X-13541888Y-45250000D03*
X-9223888Y-45250000D03*
X-9477888Y-41948000D03*
X-9477888Y-40170000D03*
X-9477888Y-38392000D03*
X-9477888Y-36614000D03*
X-44275888Y-1054000D03*
X-34623888Y-2324000D03*
X-52911888Y-1054000D03*
X-49609888Y-4610000D03*
X-57229888Y-9690000D03*
X-57229888Y-13754000D03*
X-57229888Y-5118000D03*
X-19383888Y-11214000D03*
X-19383888Y-7912000D03*
X-20145888Y-4610000D03*
X-19383888Y-3086000D03*
X-17859888Y-3086000D03*
X-19637888Y-1562000D03*
X-20907888Y-48298000D03*
X-19891888Y-47536000D03*
%TO.N,+3V3*%
X-44783888Y-47550000D03*
%TO.N,/extSCL*%
X-48593888Y-46012000D03*
%TO.N,/extSDA*%
X-47069888Y-47536000D03*
%TO.N,/VMODEM*%
X-23701888Y-6388000D03*
X-23193888Y-11468000D03*
%TO.N,/EN*%
X-45799888Y-7658000D03*
%TO.N,+5V*%
X-21923888Y-28994000D03*
%TO.N,+3V3*%
X-20653888Y-43726000D03*
X-47069888Y-30530500D03*
%TO.N,Net-(J2-AUX3)*%
X-29606388Y-8274598D03*
%TO.N,Net-(J2-AUX4)*%
X-32820694Y-8274598D03*
%TO.N,Net-(J2-ATTN_P)*%
X-28527888Y-7366000D03*
%TO.N,Net-(J2-AUX_EN_P)*%
X-27458388Y-7620000D03*
%TO.N,Net-(J2-AUX_RX_P)*%
X-26338350Y-6760845D03*
%TO.N,Net-(J2-AUX_TX_P)*%
X-25905216Y-8210672D03*
%TO.N,Net-(JP8-B)*%
X-47323888Y-36068000D03*
%TO.N,/FB*%
X-12779888Y-43688000D03*
X-16967877Y-24597034D03*
%TD*%
D25*
%TO.N,/extSDA*%
X-47069888Y-47536000D02*
X-48466888Y-48933000D01*
X-57148888Y-30945000D02*
X-56283888Y-30080000D01*
X-48466888Y-48933000D02*
X-52276888Y-48933000D01*
X-52276888Y-48933000D02*
X-52911888Y-48298000D01*
X-54181888Y-44361000D02*
X-55995734Y-44361000D01*
X-55995734Y-44361000D02*
X-57148888Y-43207845D01*
X-52911888Y-48298000D02*
X-52911888Y-45631000D01*
X-52911888Y-45631000D02*
X-54181888Y-44361000D01*
X-57148888Y-43207845D02*
X-57148888Y-30945000D01*
X-56283888Y-30080000D02*
X-53477888Y-30080000D01*
%TO.N,/extSCL*%
X-51838865Y-45504000D02*
X-52365888Y-45504000D01*
X-52137888Y-31280000D02*
X-50937888Y-30080000D01*
X-54016888Y-43853000D02*
X-55899864Y-43853000D01*
X-50068911Y-46012000D02*
X-50584911Y-45496000D01*
X-52365888Y-45504000D02*
X-54016888Y-43853000D01*
X-50584911Y-45496000D02*
X-51830865Y-45496000D01*
X-51830865Y-45496000D02*
X-51838865Y-45504000D01*
X-55632864Y-31280000D02*
X-52137888Y-31280000D01*
X-55899864Y-43853000D02*
X-56721888Y-43030976D01*
X-48593888Y-46012000D02*
X-50068911Y-46012000D01*
X-56721888Y-43030976D02*
X-56721888Y-32369024D01*
X-56721888Y-32369024D02*
X-55632864Y-31280000D01*
D26*
%TO.N,+5V*%
X-22177888Y-33566000D02*
X-24114888Y-35503000D01*
X-24114888Y-35503000D02*
X-34528888Y-35503000D01*
X-34528888Y-35503000D02*
X-39265888Y-40240000D01*
X-39265888Y-40240000D02*
X-50937888Y-40240000D01*
%TO.N,+12V*%
X-16335888Y-16802000D02*
X-15284888Y-16802000D01*
X-15284888Y-16802000D02*
X-13287888Y-14805000D01*
X-15573888Y-13084000D02*
X-15573888Y-16040000D01*
X-15573888Y-16040000D02*
X-16335888Y-16802000D01*
X-16335888Y-16895500D02*
X-18167877Y-18727489D01*
X-16335888Y-16802000D02*
X-16335888Y-16895500D01*
X-18167877Y-38445989D02*
X-20710889Y-40989000D01*
X-18167877Y-18727489D02*
X-18167877Y-38445989D01*
X-25976888Y-40989000D02*
X-31287888Y-46300000D01*
X-20710889Y-40989000D02*
X-25976888Y-40989000D01*
%TO.N,+BATT*%
X-50937888Y-42780000D02*
X-39519888Y-42780000D01*
X-39519888Y-42780000D02*
X-33569888Y-36830000D01*
X-33569888Y-36830000D02*
X-29543888Y-36830000D01*
X-21260550Y-39662000D02*
X-19637888Y-38039338D01*
X-29543888Y-36830000D02*
X-26711888Y-39662000D01*
X-19637888Y-38039338D02*
X-19637888Y-27978000D01*
X-26711888Y-39662000D02*
X-21260550Y-39662000D01*
X-19637888Y-27978000D02*
X-22431888Y-25184000D01*
X-21893888Y-16518000D02*
X-21893888Y-14478000D01*
X-22431888Y-25184000D02*
X-22431888Y-17056000D01*
X-22431888Y-17056000D02*
X-21893888Y-16518000D01*
%TO.N,+5V*%
X-22177888Y-33058000D02*
X-22177888Y-33566000D01*
X-21542888Y-32423000D02*
X-21542888Y-30899000D01*
X-21542888Y-32423000D02*
X-22177888Y-33058000D01*
X-21542888Y-30899000D02*
X-21923888Y-30518000D01*
X-21923888Y-30518000D02*
X-21923888Y-28994000D01*
X-21923888Y-28994000D02*
X-21923888Y-27724000D01*
X-21923888Y-27724000D02*
X-23955888Y-25692000D01*
X-23955888Y-25692000D02*
X-23955888Y-17056000D01*
X-23955888Y-17056000D02*
X-24493888Y-16518000D01*
X-24493888Y-16518000D02*
X-24493888Y-14478000D01*
%TO.N,+12V*%
X-31287888Y-46300000D02*
X-32117806Y-46300000D01*
X-51827888Y-44430000D02*
X-53477888Y-42780000D01*
X-32117806Y-46300000D02*
X-33987806Y-44430000D01*
X-33987806Y-44430000D02*
X-51827888Y-44430000D01*
D27*
X-53477888Y-42780000D02*
X-53477888Y-37700000D01*
D28*
%TO.N,GND*%
X-57229888Y-9614000D02*
X-57337888Y-9506000D01*
X-57229888Y-9690000D02*
X-57229888Y-9614000D01*
X-57153888Y-9690000D02*
X-57229888Y-9690000D01*
%TO.N,/VMODEM*%
X-23193888Y-14478000D02*
X-23193888Y-11468000D01*
D29*
%TO.N,Net-(J2-AUX3)*%
X-29606388Y-8274598D02*
X-29978888Y-8647098D01*
X-29978888Y-8647098D02*
X-29978888Y-18819448D01*
X-40720888Y-29561448D02*
X-40720888Y-33963000D01*
X-29978888Y-18819448D02*
X-40720888Y-29561448D01*
X-40720888Y-33963000D02*
X-41847888Y-35090000D01*
%TO.N,Net-(J2-ATTN_P)*%
X-28527888Y-7366000D02*
X-29687740Y-7366000D01*
X-30305888Y-7984148D02*
X-30305888Y-18684000D01*
X-41049203Y-29427315D02*
X-41047888Y-29428629D01*
X-29687740Y-7366000D02*
X-30305888Y-7984148D01*
X-30305888Y-18684000D02*
X-41049203Y-29427315D01*
X-41047888Y-29428629D02*
X-41047888Y-31750000D01*
X-41047888Y-31750000D02*
X-41847888Y-32550000D01*
%TO.N,Net-(J2-AUX_EN_P)*%
X-41847888Y-30010000D02*
X-41847888Y-29763552D01*
X-27458388Y-7182500D02*
X-27458388Y-7620000D01*
X-41847888Y-29763552D02*
X-30632888Y-18548552D01*
X-29450188Y-6666000D02*
X-27974888Y-6666000D01*
X-30632888Y-18548552D02*
X-30632888Y-7848700D01*
X-30632888Y-7848700D02*
X-29450188Y-6666000D01*
X-27974888Y-6666000D02*
X-27458388Y-7182500D01*
%TO.N,/RS485_DE*%
X-43147888Y-37630000D02*
X-47583624Y-37630000D01*
X-52327888Y-36310000D02*
X-53477888Y-35160000D01*
X-47583624Y-37630000D02*
X-48903624Y-36310000D01*
X-48903624Y-36310000D02*
X-52327888Y-36310000D01*
%TO.N,Net-(JP8-B)*%
X-47323888Y-36068000D02*
X-47031888Y-36360000D01*
X-47031888Y-36360000D02*
X-42743624Y-36360000D01*
X-41847888Y-37255736D02*
X-41847888Y-37630000D01*
X-42743624Y-36360000D02*
X-41847888Y-37255736D01*
D25*
%TO.N,/AUX_EN*%
X-50937888Y-32620000D02*
X-48098727Y-32620000D01*
X-46053888Y-30264000D02*
X-45799888Y-30010000D01*
X-48098727Y-32620000D02*
X-46053888Y-30575161D01*
X-45799888Y-30010000D02*
X-43147888Y-30010000D01*
X-46053888Y-30575161D02*
X-46053888Y-30264000D01*
%TO.N,/ATTN*%
X-43147888Y-32550000D02*
X-44557888Y-33960000D01*
X-44557888Y-33960000D02*
X-52137888Y-33960000D01*
X-52137888Y-33960000D02*
X-53477888Y-32620000D01*
%TO.N,/GPIO0*%
X-43147888Y-35090000D02*
X-43185888Y-35052000D01*
X-43185888Y-35052000D02*
X-50829888Y-35052000D01*
X-50829888Y-35052000D02*
X-50937888Y-35160000D01*
%TO.N,/RXD0*%
X-45941888Y-24892000D02*
X-43185888Y-24892000D01*
X-43185888Y-24892000D02*
X-43147888Y-24930000D01*
D29*
%TO.N,Net-(J2-AUX_TX_P)*%
X-25905216Y-8210672D02*
X-26495888Y-7620000D01*
X-29585636Y-6339000D02*
X-30959888Y-7713252D01*
X-26495888Y-7620000D02*
X-26495888Y-7592550D01*
X-26495888Y-7592550D02*
X-27749438Y-6339000D01*
X-27749438Y-6339000D02*
X-29585636Y-6339000D01*
X-37476784Y-24930000D02*
X-41847888Y-24930000D01*
X-30959888Y-7713252D02*
X-30959888Y-18413104D01*
X-30959888Y-18413104D02*
X-37476784Y-24930000D01*
%TO.N,Net-(J2-AUX_RX_P)*%
X-41809888Y-22352000D02*
X-35361232Y-22352000D01*
X-35361232Y-22352000D02*
X-31321888Y-18312656D01*
X-41847888Y-22390000D02*
X-41809888Y-22352000D01*
X-31321888Y-7612804D02*
X-29721084Y-6012000D01*
X-27595888Y-6012000D02*
X-26749888Y-6858000D01*
X-31321888Y-18312656D02*
X-31321888Y-7612804D01*
X-29721084Y-6012000D02*
X-27595888Y-6012000D01*
X-26749888Y-6858000D02*
X-26435505Y-6858000D01*
X-26435505Y-6858000D02*
X-26338350Y-6760845D01*
D25*
%TO.N,/TXD0*%
X-50937888Y-22460000D02*
X-50829888Y-22352000D01*
X-50829888Y-22352000D02*
X-43185888Y-22352000D01*
X-43185888Y-22352000D02*
X-43147888Y-22390000D01*
D29*
%TO.N,Net-(J2-AUX4)*%
X-41847888Y-12230000D02*
X-40719888Y-12230000D01*
X-32820694Y-8864806D02*
X-32820694Y-8274598D01*
X-40719888Y-12230000D02*
X-38649888Y-10160000D01*
X-38649888Y-10160000D02*
X-34115888Y-10160000D01*
X-34115888Y-10160000D02*
X-32820694Y-8864806D01*
%TO.N,/EN*%
X-45179888Y-12230000D02*
X-43147888Y-12230000D01*
X-45179888Y-12230000D02*
X-47757888Y-12230000D01*
X-47757888Y-12230000D02*
X-47827888Y-12300000D01*
X-45799888Y-7658000D02*
X-46561888Y-8420000D01*
X-46561888Y-8420000D02*
X-46561888Y-10848000D01*
X-46561888Y-10848000D02*
X-45179888Y-12230000D01*
X-47827888Y-12300000D02*
X-50937888Y-12300000D01*
D30*
%TO.N,+3V3*%
X-23485888Y-47790000D02*
X-44543888Y-47790000D01*
X-20653888Y-44958000D02*
X-23485888Y-47790000D01*
X-20653888Y-43726000D02*
X-20653888Y-44958000D01*
X-44543888Y-47790000D02*
X-44783888Y-47550000D01*
X-50937888Y-19920000D02*
X-52187888Y-21170000D01*
X-56377888Y-21792000D02*
X-56377888Y-28322000D01*
X-52187888Y-21170000D02*
X-55755888Y-21170000D01*
X-55755888Y-21170000D02*
X-56377888Y-21792000D01*
X-56377888Y-28322000D02*
X-55909888Y-28790000D01*
X-55909888Y-28790000D02*
X-48035888Y-28790000D01*
X-47069888Y-29756000D02*
X-47069888Y-30530500D01*
X-48035888Y-28790000D02*
X-47069888Y-29756000D01*
D25*
%TO.N,/FB*%
X-12779888Y-43688000D02*
X-12779888Y-28785023D01*
X-12779888Y-28785023D02*
X-16967877Y-24597034D01*
%TO.N,/RXD0*%
X-47173888Y-23660000D02*
X-52277888Y-23660000D01*
X-45941888Y-24892000D02*
X-47173888Y-23660000D01*
X-52277888Y-23660000D02*
X-53477888Y-22460000D01*
D28*
%TO.N,GND*%
X-53477888Y-9760000D02*
X-57083888Y-9760000D01*
X-57337888Y-9506000D02*
X-57337888Y-12046000D01*
X-57083888Y-7220000D02*
X-57337888Y-7474000D01*
X-57083888Y-12300000D02*
X-53477888Y-12300000D01*
X-53477888Y-7220000D02*
X-57083888Y-7220000D01*
X-57083888Y-9760000D02*
X-57153888Y-9690000D01*
X-57337888Y-12046000D02*
X-57083888Y-12300000D01*
X-57337888Y-7474000D02*
X-57337888Y-9506000D01*
%TD*%
%TA.AperFunction,Conductor*%
%TO.N,/VMODEM*%
G36*
X-22275747Y-5616104D02*
G01*
X-22217779Y-5635679D01*
X-22182388Y-5685590D01*
X-22177888Y-5715097D01*
X-22177888Y-6196828D01*
X-22196795Y-6255019D01*
X-22246295Y-6290983D01*
X-22267477Y-6295380D01*
X-22413115Y-6309287D01*
X-22610927Y-6367370D01*
X-22794162Y-6461834D01*
X-22794165Y-6461836D01*
X-22956218Y-6589275D01*
X-23091226Y-6745083D01*
X-23194300Y-6923613D01*
X-23194302Y-6923618D01*
X-23261729Y-7118436D01*
X-23261731Y-7118443D01*
X-23291070Y-7322497D01*
X-23291070Y-7322503D01*
X-23281260Y-7528428D01*
X-23281259Y-7528435D01*
X-23232658Y-7728771D01*
X-23147017Y-7916302D01*
X-23147016Y-7916304D01*
X-23147015Y-7916305D01*
X-23027430Y-8084238D01*
X-22878226Y-8226504D01*
X-22878224Y-8226505D01*
X-22878222Y-8226507D01*
X-22704800Y-8337958D01*
X-22704785Y-8337966D01*
X-22597712Y-8380831D01*
X-22513402Y-8414584D01*
X-22310968Y-8453600D01*
X-22310965Y-8453600D01*
X-22276888Y-8453600D01*
X-22218697Y-8472507D01*
X-22182733Y-8522007D01*
X-22177888Y-8552600D01*
X-22177888Y-12855000D01*
X-22196795Y-12913191D01*
X-22246295Y-12949155D01*
X-22276888Y-12954000D01*
X-24422880Y-12954000D01*
X-24481071Y-12935093D01*
X-24492884Y-12925004D01*
X-24688892Y-12728996D01*
X-24716669Y-12674479D01*
X-24717888Y-12658992D01*
X-24717888Y-5688145D01*
X-24698981Y-5629954D01*
X-24649481Y-5593990D01*
X-24617752Y-5589152D01*
X-22275747Y-5616104D01*
G37*
%TD.AperFunction*%
%TD*%
%TA.AperFunction,Conductor*%
%TO.N,GND*%
G36*
X-49698097Y-202051D02*
G01*
X-49662153Y-207744D01*
X-49635047Y-212037D01*
X-49597557Y-224218D01*
X-49549626Y-248639D01*
X-49517734Y-271811D01*
X-49479700Y-309845D01*
X-49456528Y-341738D01*
X-49432108Y-389666D01*
X-49419926Y-427157D01*
X-49409940Y-490205D01*
X-49408389Y-509916D01*
X-49408388Y-1960118D01*
X-49408388Y-2068995D01*
X-49383989Y-2191656D01*
X-49381468Y-2204328D01*
X-49328663Y-2331811D01*
X-49283359Y-2399613D01*
X-49252003Y-2446541D01*
X-49251998Y-2446547D01*
X-49154436Y-2544109D01*
X-49154430Y-2544114D01*
X-49039699Y-2620775D01*
X-48912216Y-2673580D01*
X-48776881Y-2700500D01*
X-48776880Y-2700500D01*
X-45638896Y-2700500D01*
X-45638895Y-2700500D01*
X-45503560Y-2673580D01*
X-45376077Y-2620775D01*
X-45261346Y-2544114D01*
X-45163774Y-2446542D01*
X-45087113Y-2331811D01*
X-45034308Y-2204328D01*
X-45007388Y-2068993D01*
X-45007388Y-2000000D01*
X-45007388Y-1960118D01*
X-45007388Y-509916D01*
X-45005837Y-490206D01*
X-45003810Y-477410D01*
X-44995851Y-427154D01*
X-44983671Y-389669D01*
X-44959247Y-341734D01*
X-44936080Y-309848D01*
X-44898040Y-271808D01*
X-44866154Y-248641D01*
X-44818219Y-224217D01*
X-44780732Y-212037D01*
X-44743154Y-206085D01*
X-44717679Y-202051D01*
X-44697969Y-200500D01*
X-44668006Y-200500D01*
X-10343127Y-200500D01*
X-10275006Y-220502D01*
X-10254032Y-237405D01*
X-8445293Y-2046143D01*
X-8411268Y-2108455D01*
X-8408388Y-2135238D01*
X-8408388Y-11268943D01*
X-8428390Y-11337064D01*
X-8482046Y-11383557D01*
X-8552320Y-11393661D01*
X-8616900Y-11364167D01*
X-8640308Y-11335820D01*
X-8640598Y-11336024D01*
X-8643156Y-11332372D01*
X-8643502Y-11331952D01*
X-8643751Y-11331522D01*
X-8774224Y-11145187D01*
X-8774229Y-11145181D01*
X-8935070Y-10984340D01*
X-8935076Y-10984335D01*
X-9121405Y-10853866D01*
X-9327560Y-10757734D01*
X-9327563Y-10757733D01*
X-9519888Y-10706199D01*
X-9519888Y-11672313D01*
X-9535843Y-11656359D01*
X-9648740Y-11598835D01*
X-9773888Y-11579014D01*
X-9899036Y-11598835D01*
X-10011933Y-11656359D01*
X-10027888Y-11672314D01*
X-10027888Y-10706199D01*
X-10220214Y-10757733D01*
X-10220217Y-10757734D01*
X-10426372Y-10853866D01*
X-10612701Y-10984335D01*
X-10612707Y-10984340D01*
X-10773548Y-11145181D01*
X-10773553Y-11145187D01*
X-10904022Y-11331516D01*
X-11000154Y-11537671D01*
X-11000156Y-11537676D01*
X-11059029Y-11757397D01*
X-11073888Y-11927243D01*
X-11073888Y-12830000D01*
X-10173888Y-12830000D01*
X-10173888Y-13338000D01*
X-11073889Y-13338000D01*
X-11110793Y-13374904D01*
X-11113754Y-13371943D01*
X-11147546Y-13401225D01*
X-11217820Y-13411329D01*
X-11282400Y-13381835D01*
X-11288983Y-13375706D01*
X-12097350Y-12567339D01*
X-12131376Y-12505027D01*
X-12126311Y-12434212D01*
X-12097350Y-12389149D01*
X-12060250Y-12352048D01*
X-12060249Y-12352046D01*
X-12002723Y-12239146D01*
X-11987888Y-12145480D01*
X-11987888Y-11468000D01*
X-12743663Y-11468000D01*
X-12703332Y-11370631D01*
X-12682711Y-11214000D01*
X-12703332Y-11057369D01*
X-12743663Y-10960000D01*
X-11987889Y-10960000D01*
X-11987889Y-10282520D01*
X-12002723Y-10188853D01*
X-12060249Y-10075953D01*
X-12060250Y-10075951D01*
X-12149840Y-9986361D01*
X-12149842Y-9986360D01*
X-12262742Y-9928834D01*
X-12356408Y-9914000D01*
X-13033888Y-9914000D01*
X-13033888Y-10669775D01*
X-13131257Y-10629444D01*
X-13248565Y-10614000D01*
X-13327211Y-10614000D01*
X-13444519Y-10629444D01*
X-13541888Y-10669775D01*
X-13541888Y-9914000D01*
X-14219368Y-9914000D01*
X-14313035Y-9928834D01*
X-14425935Y-9986360D01*
X-14425937Y-9986361D01*
X-14515527Y-10075951D01*
X-14515528Y-10075953D01*
X-14573054Y-10188853D01*
X-14587888Y-10282519D01*
X-14587888Y-10357500D01*
X-14607890Y-10425621D01*
X-14661546Y-10472114D01*
X-14713888Y-10483500D01*
X-16394549Y-10483500D01*
X-16462670Y-10463498D01*
X-16500547Y-10425621D01*
X-16571501Y-10315215D01*
X-16571502Y-10315213D01*
X-16617251Y-10262417D01*
X-16634023Y-10247884D01*
X-16727709Y-10166703D01*
X-16860657Y-10105985D01*
X-16920408Y-10088441D01*
X-16927696Y-10086301D01*
X-16927700Y-10086300D01*
X-17072370Y-10065500D01*
X-18243888Y-10065500D01*
X-18243896Y-10065500D01*
X-18337784Y-10075595D01*
X-18353045Y-10077236D01*
X-18353047Y-10077236D01*
X-18353053Y-10077237D01*
X-18404556Y-10088441D01*
X-18508714Y-10123109D01*
X-18631673Y-10202130D01*
X-18631675Y-10202131D01*
X-18684471Y-10247880D01*
X-18780184Y-10358337D01*
X-18780185Y-10358338D01*
X-18840903Y-10491286D01*
X-18858563Y-10551432D01*
X-18860587Y-10558326D01*
X-18860588Y-10558330D01*
X-18879504Y-10689901D01*
X-18881388Y-10703003D01*
X-18881388Y-16637403D01*
X-18879918Y-16664828D01*
X-18879916Y-16664858D01*
X-18875610Y-16704898D01*
X-18866820Y-16759146D01*
X-18815742Y-16896092D01*
X-18782258Y-16957413D01*
X-18762641Y-16983618D01*
X-18694668Y-17074418D01*
X-18456723Y-17312364D01*
X-18401293Y-17367794D01*
X-18367268Y-17430106D01*
X-18372333Y-17500922D01*
X-18401294Y-17545984D01*
X-18865758Y-18010449D01*
X-18866901Y-18011563D01*
X-18930929Y-18072427D01*
X-18965961Y-18122758D01*
X-18968843Y-18126580D01*
X-19007574Y-18174079D01*
X-19007578Y-18174085D01*
X-19023451Y-18204474D01*
X-19027586Y-18211299D01*
X-19047171Y-18239438D01*
X-19071349Y-18295778D01*
X-19073403Y-18300102D01*
X-19101785Y-18354436D01*
X-19101788Y-18354445D01*
X-19111219Y-18387404D01*
X-19113896Y-18394923D01*
X-19127417Y-18426429D01*
X-19127417Y-18426430D01*
X-19139756Y-18486471D01*
X-19140897Y-18491119D01*
X-19157764Y-18550071D01*
X-19157765Y-18550078D01*
X-19160369Y-18584266D01*
X-19161477Y-18592167D01*
X-19168377Y-18625749D01*
X-19168377Y-18687051D01*
X-19168559Y-18691836D01*
X-19173214Y-18752963D01*
X-19173214Y-18752969D01*
X-19171740Y-18764541D01*
X-19168882Y-18786987D01*
X-19168377Y-18794941D01*
X-19168377Y-26728401D01*
X-19188379Y-26796522D01*
X-19242035Y-26843015D01*
X-19312309Y-26853119D01*
X-19376889Y-26823625D01*
X-19383472Y-26817496D01*
X-21394483Y-24806485D01*
X-21428509Y-24744173D01*
X-21431388Y-24717390D01*
X-21431388Y-17522610D01*
X-21411386Y-17454489D01*
X-21394489Y-17433520D01*
X-21195929Y-17234960D01*
X-21194864Y-17233923D01*
X-21130835Y-17173059D01*
X-21095811Y-17122736D01*
X-21092932Y-17118919D01*
X-21087047Y-17111700D01*
X-21054190Y-17071407D01*
X-21038305Y-17040995D01*
X-21034191Y-17034204D01*
X-21014593Y-17006049D01*
X-20990411Y-16949695D01*
X-20988375Y-16945407D01*
X-20959979Y-16891049D01*
X-20950548Y-16858085D01*
X-20947870Y-16850566D01*
X-20934347Y-16819055D01*
X-20922037Y-16759149D01*
X-20922007Y-16758999D01*
X-20920873Y-16754377D01*
X-20904001Y-16695418D01*
X-20901397Y-16661207D01*
X-20900290Y-16653324D01*
X-20897018Y-16637403D01*
X-20893388Y-16619741D01*
X-20893388Y-16558436D01*
X-20893206Y-16553650D01*
X-20888551Y-16492524D01*
X-20892884Y-16458502D01*
X-20893388Y-16450546D01*
X-20893388Y-14427258D01*
X-20893389Y-14427239D01*
X-20908814Y-14275566D01*
X-20908814Y-14275562D01*
X-20969729Y-14081412D01*
X-21010555Y-14007859D01*
X-21021283Y-13982208D01*
X-21040360Y-13917236D01*
X-21060270Y-13873641D01*
X-21100086Y-13786455D01*
X-21100089Y-13786450D01*
X-21162484Y-13689361D01*
X-21256638Y-13580700D01*
X-21343865Y-13505117D01*
X-21415329Y-13459190D01*
X-21464818Y-13427385D01*
X-21569805Y-13379439D01*
X-21707751Y-13338935D01*
X-21707756Y-13338933D01*
X-21707759Y-13338933D01*
X-21772455Y-13329631D01*
X-21837034Y-13300139D01*
X-21875418Y-13240413D01*
X-21875418Y-13169416D01*
X-21866793Y-13147718D01*
X-21811141Y-13038495D01*
X-21792234Y-12980304D01*
X-21772388Y-12855000D01*
X-21772388Y-8552600D01*
X-21773537Y-8538000D01*
X-14951689Y-8538000D01*
X-14900155Y-8730325D01*
X-14900154Y-8730328D01*
X-14804022Y-8936483D01*
X-14673553Y-9122812D01*
X-14673548Y-9122818D01*
X-14512707Y-9283659D01*
X-14512701Y-9283664D01*
X-14326372Y-9414133D01*
X-14120217Y-9510265D01*
X-14120212Y-9510267D01*
X-13900491Y-9569140D01*
X-13730645Y-9584000D01*
X-12827888Y-9584000D01*
X-12827888Y-8684000D01*
X-12319888Y-8684000D01*
X-12319888Y-9584000D01*
X-11417131Y-9584000D01*
X-11247286Y-9569140D01*
X-11027565Y-9510267D01*
X-11027560Y-9510265D01*
X-10821405Y-9414133D01*
X-10635076Y-9283664D01*
X-10635070Y-9283659D01*
X-10474229Y-9122818D01*
X-10474224Y-9122812D01*
X-10343755Y-8936483D01*
X-10247623Y-8730328D01*
X-10247622Y-8730325D01*
X-10196087Y-8538000D01*
X-11162202Y-8538000D01*
X-11146247Y-8522045D01*
X-11088723Y-8409148D01*
X-11068902Y-8284000D01*
X-11088723Y-8158852D01*
X-11146247Y-8045955D01*
X-11162202Y-8030000D01*
X-10196088Y-8030000D01*
X-10247622Y-7837674D01*
X-10247623Y-7837671D01*
X-10343755Y-7631516D01*
X-10474224Y-7445187D01*
X-10474229Y-7445181D01*
X-10635070Y-7284340D01*
X-10635076Y-7284335D01*
X-10821405Y-7153866D01*
X-11027560Y-7057734D01*
X-11027565Y-7057732D01*
X-11247286Y-6998859D01*
X-11417131Y-6984000D01*
X-12319888Y-6984000D01*
X-12319888Y-7884000D01*
X-12827888Y-7884000D01*
X-12827888Y-6984000D01*
X-13730645Y-6984000D01*
X-13900491Y-6998859D01*
X-14120212Y-7057732D01*
X-14120217Y-7057734D01*
X-14326372Y-7153866D01*
X-14512701Y-7284335D01*
X-14512707Y-7284340D01*
X-14673548Y-7445181D01*
X-14673553Y-7445187D01*
X-14804022Y-7631516D01*
X-14900154Y-7837671D01*
X-14900155Y-7837674D01*
X-14951689Y-8030000D01*
X-13985574Y-8030000D01*
X-14001529Y-8045955D01*
X-14059053Y-8158852D01*
X-14078874Y-8284000D01*
X-14059053Y-8409148D01*
X-14001529Y-8522045D01*
X-13985574Y-8538000D01*
X-14951689Y-8538000D01*
X-21773537Y-8538000D01*
X-21777379Y-8489172D01*
X-21779608Y-8475096D01*
X-21781068Y-8465877D01*
X-21771967Y-8395466D01*
X-21726244Y-8341153D01*
X-21714368Y-8334182D01*
X-21621612Y-8286364D01*
X-21459559Y-8158924D01*
X-21324554Y-8003120D01*
X-21221474Y-7824580D01*
X-21154046Y-7629759D01*
X-21136696Y-7509089D01*
X-21124706Y-7425700D01*
X-21134515Y-7219781D01*
X-21134516Y-7219776D01*
X-21134516Y-7219772D01*
X-21183120Y-7019424D01*
X-21268761Y-6831895D01*
X-21268764Y-6831891D01*
X-21268766Y-6831887D01*
X-21388341Y-6663968D01*
X-21388350Y-6663958D01*
X-21437782Y-6616825D01*
X-21537550Y-6521696D01*
X-21537553Y-6521694D01*
X-21537555Y-6521692D01*
X-21710984Y-6410237D01*
X-21716315Y-6407489D01*
X-21715246Y-6405414D01*
X-21762978Y-6367870D01*
X-21786192Y-6300776D01*
X-21784784Y-6275090D01*
X-21772388Y-6196828D01*
X-21772388Y-5715097D01*
X-21772388Y-5715088D01*
X-21777023Y-5653965D01*
X-21777023Y-5653963D01*
X-21781521Y-5624466D01*
X-21790262Y-5586621D01*
X-21795316Y-5564736D01*
X-21796256Y-5562838D01*
X-21851606Y-5451042D01*
X-21851607Y-5451040D01*
X-21851607Y-5451039D01*
X-21886491Y-5401843D01*
X-21886902Y-5401245D01*
X-21887004Y-5401120D01*
X-21975672Y-5310388D01*
X-21975673Y-5310387D01*
X-21975674Y-5310386D01*
X-21991868Y-5301899D01*
X-22088038Y-5251496D01*
X-22088042Y-5251494D01*
X-22088045Y-5251493D01*
X-22146013Y-5231918D01*
X-22146014Y-5231918D01*
X-22271085Y-5210630D01*
X-24455019Y-5185498D01*
X-24613086Y-5183679D01*
X-24613087Y-5183679D01*
X-24613092Y-5183679D01*
X-24678858Y-5188283D01*
X-24678878Y-5188285D01*
X-24710603Y-5193122D01*
X-24774789Y-5208337D01*
X-24887829Y-5265934D01*
X-24937333Y-5301901D01*
X-25027040Y-5391609D01*
X-25084635Y-5504648D01*
X-25103542Y-5562838D01*
X-25123389Y-5688148D01*
X-25123389Y-7556230D01*
X-25143391Y-7624351D01*
X-25197047Y-7670844D01*
X-25267321Y-7680947D01*
X-25331902Y-7651454D01*
X-25338484Y-7645325D01*
X-25402954Y-7580855D01*
X-25402956Y-7580854D01*
X-25555691Y-7484884D01*
X-25646089Y-7453252D01*
X-25703780Y-7411873D01*
X-25729943Y-7345873D01*
X-25716269Y-7276205D01*
X-25711160Y-7267287D01*
X-25672931Y-7206443D01*
X-25612561Y-7110367D01*
X-25552982Y-6940100D01*
X-25532785Y-6760845D01*
X-25552982Y-6581590D01*
X-25612561Y-6411323D01*
X-25612563Y-6411320D01*
X-25612563Y-6411319D01*
X-25708533Y-6258584D01*
X-25708534Y-6258582D01*
X-25836088Y-6131028D01*
X-25836090Y-6131027D01*
X-25988825Y-6035057D01*
X-25988828Y-6035056D01*
X-25996530Y-6032361D01*
X-26159095Y-5975477D01*
X-26338350Y-5955280D01*
X-26517605Y-5975477D01*
X-26517608Y-5975477D01*
X-26517608Y-5975478D01*
X-26687872Y-6035055D01*
X-26687873Y-6035056D01*
X-26711585Y-6049955D01*
X-26779906Y-6069259D01*
X-26847819Y-6048562D01*
X-26867713Y-6032361D01*
X-27194351Y-5705723D01*
X-27211253Y-5684751D01*
X-27213745Y-5680872D01*
X-27213750Y-5680868D01*
X-27252928Y-5646920D01*
X-27256209Y-5643865D01*
X-27267295Y-5632779D01*
X-27279852Y-5623379D01*
X-27283344Y-5620565D01*
X-27283345Y-5620564D01*
X-27322515Y-5586623D01*
X-27322517Y-5586622D01*
X-27322518Y-5586621D01*
X-27322521Y-5586619D01*
X-27326710Y-5584706D01*
X-27349864Y-5570968D01*
X-27353556Y-5568205D01*
X-27353557Y-5568204D01*
X-27375597Y-5559983D01*
X-27402131Y-5550086D01*
X-27406285Y-5548365D01*
X-27453426Y-5526836D01*
X-27453433Y-5526834D01*
X-27458005Y-5526177D01*
X-27484080Y-5519521D01*
X-27488400Y-5517910D01*
X-27488408Y-5517908D01*
X-27540110Y-5514209D01*
X-27544577Y-5513729D01*
X-27560089Y-5511500D01*
X-27575758Y-5511500D01*
X-27580254Y-5511339D01*
X-27631961Y-5507641D01*
X-27631962Y-5507641D01*
X-27636461Y-5508620D01*
X-27663246Y-5511500D01*
X-29653726Y-5511500D01*
X-29680511Y-5508620D01*
X-29685011Y-5507641D01*
X-29685012Y-5507641D01*
X-29736718Y-5511339D01*
X-29741214Y-5511500D01*
X-29756883Y-5511500D01*
X-29772394Y-5513729D01*
X-29776861Y-5514209D01*
X-29828568Y-5517909D01*
X-29828572Y-5517909D01*
X-29832898Y-5519523D01*
X-29858967Y-5526176D01*
X-29863536Y-5526833D01*
X-29863540Y-5526834D01*
X-29910695Y-5548369D01*
X-29914840Y-5550086D01*
X-29921222Y-5552466D01*
X-29963414Y-5568202D01*
X-29967109Y-5570969D01*
X-29990265Y-5584707D01*
X-29991115Y-5585096D01*
X-29994459Y-5586623D01*
X-30033630Y-5620564D01*
X-30037129Y-5623384D01*
X-30049673Y-5632775D01*
X-30049676Y-5632778D01*
X-30060767Y-5643866D01*
X-30064053Y-5646925D01*
X-30103225Y-5680868D01*
X-30103228Y-5680873D01*
X-30105725Y-5684758D01*
X-30122621Y-5705721D01*
X-31628167Y-7211267D01*
X-31649130Y-7228163D01*
X-31653015Y-7230660D01*
X-31653020Y-7230663D01*
X-31686963Y-7269835D01*
X-31690022Y-7273121D01*
X-31701110Y-7284212D01*
X-31701113Y-7284215D01*
X-31710504Y-7296759D01*
X-31713324Y-7300258D01*
X-31747265Y-7339429D01*
X-31749179Y-7343622D01*
X-31762919Y-7366779D01*
X-31765686Y-7370474D01*
X-31783798Y-7419038D01*
X-31785519Y-7423193D01*
X-31807054Y-7470348D01*
X-31807055Y-7470352D01*
X-31807712Y-7474921D01*
X-31814365Y-7500990D01*
X-31815979Y-7505316D01*
X-31815979Y-7505320D01*
X-31819679Y-7557026D01*
X-31820159Y-7561494D01*
X-31822388Y-7577004D01*
X-31822389Y-7577011D01*
X-31822389Y-7592677D01*
X-31822550Y-7597169D01*
X-31826248Y-7648874D01*
X-31826247Y-7648878D01*
X-31825267Y-7653384D01*
X-31822389Y-7680162D01*
X-31822389Y-7962302D01*
X-31842391Y-8030423D01*
X-31896047Y-8076916D01*
X-31966321Y-8087020D01*
X-32030901Y-8057526D01*
X-32067317Y-8003919D01*
X-32094905Y-7925076D01*
X-32146886Y-7842349D01*
X-32190877Y-7772337D01*
X-32190878Y-7772335D01*
X-32318432Y-7644781D01*
X-32318434Y-7644780D01*
X-32471169Y-7548810D01*
X-32471172Y-7548809D01*
X-32641439Y-7489230D01*
X-32820694Y-7469033D01*
X-32999949Y-7489230D01*
X-32999952Y-7489230D01*
X-32999952Y-7489231D01*
X-33170217Y-7548809D01*
X-33170220Y-7548810D01*
X-33322955Y-7644780D01*
X-33322957Y-7644781D01*
X-33450511Y-7772335D01*
X-33450512Y-7772337D01*
X-33546482Y-7925072D01*
X-33546483Y-7925075D01*
X-33592829Y-8057526D01*
X-33606062Y-8095343D01*
X-33619021Y-8210361D01*
X-33625481Y-8267697D01*
X-33626259Y-8274598D01*
X-33606062Y-8453853D01*
X-33581424Y-8524263D01*
X-33546483Y-8624120D01*
X-33546482Y-8624122D01*
X-33500132Y-8697888D01*
X-33480826Y-8766209D01*
X-33501521Y-8834122D01*
X-33517723Y-8854019D01*
X-34286297Y-9622595D01*
X-34348610Y-9656620D01*
X-34375393Y-9659500D01*
X-38582530Y-9659500D01*
X-38609315Y-9656620D01*
X-38613815Y-9655641D01*
X-38613816Y-9655641D01*
X-38665522Y-9659339D01*
X-38670018Y-9659500D01*
X-38685687Y-9659500D01*
X-38701198Y-9661729D01*
X-38705665Y-9662209D01*
X-38757372Y-9665909D01*
X-38757376Y-9665909D01*
X-38761702Y-9667523D01*
X-38787771Y-9674176D01*
X-38792340Y-9674833D01*
X-38792344Y-9674834D01*
X-38839499Y-9696369D01*
X-38843649Y-9698087D01*
X-38850026Y-9700466D01*
X-38892218Y-9716202D01*
X-38895913Y-9718969D01*
X-38919069Y-9732707D01*
X-38919919Y-9733096D01*
X-38923263Y-9734623D01*
X-38962434Y-9768564D01*
X-38965933Y-9771384D01*
X-38978477Y-9780775D01*
X-38978480Y-9780778D01*
X-38989571Y-9791866D01*
X-38992857Y-9794925D01*
X-39032029Y-9828868D01*
X-39032032Y-9828873D01*
X-39034529Y-9832758D01*
X-39051425Y-9853721D01*
X-40826091Y-11628388D01*
X-40888403Y-11662413D01*
X-40959218Y-11657349D01*
X-41016054Y-11614802D01*
X-41029798Y-11591638D01*
X-41054088Y-11538451D01*
X-41116484Y-11441361D01*
X-41210638Y-11332700D01*
X-41210639Y-11332699D01*
X-41297859Y-11257122D01*
X-41297860Y-11257121D01*
X-41297865Y-11257117D01*
X-41369329Y-11211190D01*
X-41418818Y-11179385D01*
X-41523805Y-11131439D01*
X-41661751Y-11090935D01*
X-41661758Y-11090933D01*
X-41684607Y-11087648D01*
X-41775999Y-11074508D01*
X-42347888Y-11074508D01*
X-42388610Y-11080957D01*
X-42478178Y-11095143D01*
X-42517598Y-11095143D01*
X-42607167Y-11080957D01*
X-42647888Y-11074508D01*
X-43219777Y-11074508D01*
X-43295938Y-11085457D01*
X-43334019Y-11090933D01*
X-43334026Y-11090935D01*
X-43471972Y-11131439D01*
X-43576959Y-11179385D01*
X-43659810Y-11232631D01*
X-43697911Y-11257117D01*
X-43697913Y-11257118D01*
X-43697918Y-11257122D01*
X-43785138Y-11332699D01*
X-43879290Y-11441358D01*
X-43941688Y-11538450D01*
X-43941691Y-11538455D01*
X-43995300Y-11655843D01*
X-44041793Y-11709498D01*
X-44109913Y-11729500D01*
X-44920384Y-11729500D01*
X-44988505Y-11709498D01*
X-45009479Y-11692595D01*
X-46024483Y-10677590D01*
X-46058509Y-10615278D01*
X-46061388Y-10588495D01*
X-46061388Y-8679504D01*
X-46041386Y-8611383D01*
X-46024488Y-8590413D01*
X-45930646Y-8496570D01*
X-45868336Y-8462547D01*
X-45827444Y-8460460D01*
X-45799888Y-8463565D01*
X-45620633Y-8443368D01*
X-45450366Y-8383789D01*
X-45297626Y-8287816D01*
X-45170072Y-8160262D01*
X-45074099Y-8007522D01*
X-45014520Y-7837255D01*
X-44994323Y-7658000D01*
X-45014520Y-7478745D01*
X-45066944Y-7328927D01*
X-43041055Y-7328927D01*
X-43031492Y-7505316D01*
X-43031287Y-7509086D01*
X-43031286Y-7509097D01*
X-42983021Y-7682932D01*
X-42983018Y-7682940D01*
X-42898504Y-7842349D01*
X-42898502Y-7842352D01*
X-42847154Y-7902803D01*
X-42781698Y-7979864D01*
X-42638061Y-8089054D01*
X-42474310Y-8164813D01*
X-42474309Y-8164813D01*
X-42474307Y-8164814D01*
X-42298108Y-8203599D01*
X-42298105Y-8203599D01*
X-42298102Y-8203600D01*
X-42298100Y-8203600D01*
X-42162925Y-8203600D01*
X-42162917Y-8203600D01*
X-42028519Y-8188983D01*
X-41857536Y-8131373D01*
X-41702936Y-8038353D01*
X-41571947Y-7914273D01*
X-41470694Y-7764936D01*
X-41403911Y-7597323D01*
X-41374721Y-7419273D01*
X-41384489Y-7239111D01*
X-41386835Y-7230663D01*
X-41432756Y-7065267D01*
X-41432757Y-7065266D01*
X-41432758Y-7065260D01*
X-41517272Y-6905851D01*
X-41545488Y-6872633D01*
X-41580091Y-6831895D01*
X-41634078Y-6768336D01*
X-41777715Y-6659146D01*
X-41941466Y-6583387D01*
X-41941470Y-6583385D01*
X-42117669Y-6544600D01*
X-42117674Y-6544600D01*
X-42252859Y-6544600D01*
X-42252867Y-6544600D01*
X-42387257Y-6559216D01*
X-42387258Y-6559216D01*
X-42558238Y-6616825D01*
X-42558239Y-6616826D01*
X-42712841Y-6709847D01*
X-42843827Y-6833924D01*
X-42945082Y-6983262D01*
X-43011866Y-7150877D01*
X-43037703Y-7308478D01*
X-43041055Y-7328927D01*
X-45066944Y-7328927D01*
X-45074099Y-7308478D01*
X-45074101Y-7308475D01*
X-45074101Y-7308474D01*
X-45170071Y-7155739D01*
X-45170072Y-7155737D01*
X-45297626Y-7028183D01*
X-45297628Y-7028182D01*
X-45450363Y-6932212D01*
X-45450366Y-6932211D01*
X-45573279Y-6889202D01*
X-45620633Y-6872632D01*
X-45799888Y-6852435D01*
X-45979143Y-6872632D01*
X-45979146Y-6872632D01*
X-45979146Y-6872633D01*
X-46149411Y-6932211D01*
X-46149414Y-6932212D01*
X-46302149Y-7028182D01*
X-46302151Y-7028183D01*
X-46429705Y-7155737D01*
X-46429706Y-7155739D01*
X-46525676Y-7308474D01*
X-46525677Y-7308477D01*
X-46573514Y-7445187D01*
X-46585256Y-7478745D01*
X-46603983Y-7644952D01*
X-46605453Y-7658002D01*
X-46605453Y-7658003D01*
X-46602349Y-7685560D01*
X-46614600Y-7755491D01*
X-46638462Y-7788758D01*
X-46868167Y-8018463D01*
X-46889130Y-8035359D01*
X-46893015Y-8037856D01*
X-46893020Y-8037859D01*
X-46926963Y-8077031D01*
X-46930022Y-8080317D01*
X-46941110Y-8091408D01*
X-46941113Y-8091411D01*
X-46950504Y-8103955D01*
X-46953324Y-8107454D01*
X-46987265Y-8146625D01*
X-46989179Y-8150818D01*
X-47002919Y-8173975D01*
X-47005686Y-8177670D01*
X-47023798Y-8226234D01*
X-47025519Y-8230389D01*
X-47047054Y-8277544D01*
X-47047055Y-8277548D01*
X-47047712Y-8282117D01*
X-47054365Y-8308186D01*
X-47055979Y-8312512D01*
X-47055979Y-8312516D01*
X-47059679Y-8364222D01*
X-47060159Y-8368690D01*
X-47062388Y-8384200D01*
X-47062389Y-8384207D01*
X-47062389Y-8399873D01*
X-47062550Y-8404365D01*
X-47066248Y-8456070D01*
X-47066247Y-8456073D01*
X-47065293Y-8460460D01*
X-47065268Y-8460571D01*
X-47062388Y-8487358D01*
X-47062388Y-10780640D01*
X-47065267Y-10807420D01*
X-47066247Y-10811923D01*
X-47066247Y-10811926D01*
X-47062550Y-10863634D01*
X-47062389Y-10868126D01*
X-47062389Y-10883793D01*
X-47062388Y-10883800D01*
X-47060159Y-10899311D01*
X-47059679Y-10903779D01*
X-47055980Y-10955480D01*
X-47055978Y-10955488D01*
X-47054367Y-10959808D01*
X-47047711Y-10985883D01*
X-47047054Y-10990455D01*
X-47047052Y-10990462D01*
X-47025523Y-11037603D01*
X-47023802Y-11041757D01*
X-47013905Y-11068291D01*
X-47005684Y-11090331D01*
X-47005683Y-11090332D01*
X-47002920Y-11094024D01*
X-46989182Y-11117178D01*
X-46987269Y-11121367D01*
X-46987267Y-11121370D01*
X-46987266Y-11121371D01*
X-46987265Y-11121373D01*
X-46966635Y-11145181D01*
X-46953323Y-11160544D01*
X-46950509Y-11164036D01*
X-46941109Y-11176593D01*
X-46930023Y-11187679D01*
X-46926969Y-11190959D01*
X-46893016Y-11230143D01*
X-46889137Y-11232635D01*
X-46868165Y-11249537D01*
X-46603297Y-11514405D01*
X-46569271Y-11576717D01*
X-46574336Y-11647532D01*
X-46616883Y-11704368D01*
X-46683403Y-11729179D01*
X-46692392Y-11729500D01*
X-47586647Y-11729500D01*
X-47654768Y-11709498D01*
X-47701261Y-11655842D01*
X-47712647Y-11603399D01*
X-47707888Y-5677000D01*
X-56707888Y-5677000D01*
X-56720380Y-21233166D01*
X-56740437Y-21301271D01*
X-56757285Y-21322160D01*
X-56771749Y-21336625D01*
X-56777950Y-21342063D01*
X-56806171Y-21363718D01*
X-56830337Y-21395214D01*
X-56902420Y-21489152D01*
X-56902425Y-21489160D01*
X-56962933Y-21635239D01*
X-56983570Y-21791999D01*
X-56983570Y-21792000D01*
X-56978928Y-21827262D01*
X-56978388Y-21835494D01*
X-56978388Y-28278505D01*
X-56978928Y-28286737D01*
X-56983570Y-28321999D01*
X-56983570Y-28322000D01*
X-56978388Y-28361361D01*
X-56962933Y-28478760D01*
X-56902425Y-28624839D01*
X-56902423Y-28624842D01*
X-56823117Y-28728197D01*
X-56806170Y-28750282D01*
X-56777944Y-28771940D01*
X-56771756Y-28777367D01*
X-56763420Y-28785702D01*
X-56763420Y-28785703D01*
X-56729394Y-28848015D01*
X-56726515Y-28874899D01*
X-56727173Y-29692669D01*
X-56747230Y-29760774D01*
X-56764078Y-29781663D01*
X-57530735Y-30548321D01*
X-57532281Y-30549815D01*
X-57579929Y-30594316D01*
X-57579935Y-30594323D01*
X-57602903Y-30632091D01*
X-57606532Y-30637424D01*
X-57633249Y-30672656D01*
X-57639773Y-30689199D01*
X-57649324Y-30708428D01*
X-57658560Y-30723617D01*
X-57670491Y-30766194D01*
X-57672547Y-30772309D01*
X-57688764Y-30813435D01*
X-57688765Y-30813441D01*
X-57690584Y-30831122D01*
X-57694592Y-30852211D01*
X-57699388Y-30869332D01*
X-57699389Y-30869336D01*
X-57699389Y-30913542D01*
X-57699719Y-30919986D01*
X-57704240Y-30963971D01*
X-57701220Y-30981488D01*
X-57699388Y-31002896D01*
X-57699388Y-43197358D01*
X-57699425Y-43199509D01*
X-57701650Y-43264671D01*
X-57691183Y-43307626D01*
X-57689978Y-43313967D01*
X-57683960Y-43357758D01*
X-57683957Y-43357769D01*
X-57676879Y-43374063D01*
X-57670030Y-43394427D01*
X-57665821Y-43411697D01*
X-57644153Y-43450236D01*
X-57641283Y-43456014D01*
X-57623669Y-43496563D01*
X-57623666Y-43496567D01*
X-57612456Y-43510347D01*
X-57600369Y-43528105D01*
X-57591654Y-43543604D01*
X-57560388Y-43574870D01*
X-57556071Y-43579653D01*
X-57528170Y-43613950D01*
X-57528165Y-43613955D01*
X-57513646Y-43624203D01*
X-57497213Y-43638045D01*
X-56392387Y-44742872D01*
X-56390920Y-44744390D01*
X-56353082Y-44784905D01*
X-56346414Y-44792044D01*
X-56315297Y-44810966D01*
X-56308645Y-44815012D01*
X-56303311Y-44818641D01*
X-56268076Y-44845361D01*
X-56251531Y-44851885D01*
X-56232305Y-44861435D01*
X-56217116Y-44870672D01*
X-56174531Y-44882603D01*
X-56168434Y-44884654D01*
X-56127298Y-44900876D01*
X-56109617Y-44902693D01*
X-56088517Y-44906704D01*
X-56071399Y-44911500D01*
X-56027187Y-44911500D01*
X-56020739Y-44911831D01*
X-55976764Y-44916352D01*
X-55976764Y-44916351D01*
X-55976762Y-44916352D01*
X-55966050Y-44914505D01*
X-55959245Y-44913332D01*
X-55937838Y-44911500D01*
X-55506611Y-44911500D01*
X-55438490Y-44931502D01*
X-55391997Y-44985158D01*
X-55381893Y-45055432D01*
X-55411387Y-45120012D01*
X-55471113Y-45158396D01*
X-55479209Y-45160484D01*
X-55604302Y-45188350D01*
X-55743601Y-45219380D01*
X-55743603Y-45219381D01*
X-55997150Y-45316354D01*
X-56233880Y-45449214D01*
X-56448743Y-45615126D01*
X-56448744Y-45615127D01*
X-56637156Y-45810551D01*
X-56637161Y-45810557D01*
X-56795109Y-46031328D01*
X-56795113Y-46031333D01*
X-56919236Y-46272753D01*
X-57006888Y-46529686D01*
X-57056195Y-46796632D01*
X-57066108Y-47067911D01*
X-57036420Y-47337742D01*
X-56967756Y-47600386D01*
X-56861584Y-47850227D01*
X-56720172Y-48081940D01*
X-56720170Y-48081942D01*
X-56720169Y-48081944D01*
X-56677005Y-48133811D01*
X-56546522Y-48290602D01*
X-56546518Y-48290606D01*
X-56344353Y-48471748D01*
X-56344349Y-48471750D01*
X-56344342Y-48471757D01*
X-56137099Y-48608867D01*
X-56117939Y-48621543D01*
X-55872148Y-48736766D01*
X-55872146Y-48736766D01*
X-55872145Y-48736767D01*
X-55612191Y-48814975D01*
X-55612188Y-48814975D01*
X-55612186Y-48814976D01*
X-55343624Y-48854500D01*
X-55343620Y-48854500D01*
X-55140108Y-48854500D01*
X-55140107Y-48854500D01*
X-54937148Y-48839645D01*
X-54672179Y-48780621D01*
X-54418627Y-48683646D01*
X-54181897Y-48550786D01*
X-53967035Y-48384875D01*
X-53778619Y-48189447D01*
X-53690861Y-48066783D01*
X-53634960Y-48023022D01*
X-53564270Y-48016430D01*
X-53501238Y-48049102D01*
X-53465875Y-48110665D01*
X-53462389Y-48140100D01*
X-53462389Y-48287513D01*
X-53462426Y-48289663D01*
X-53464651Y-48354826D01*
X-53454183Y-48397781D01*
X-53452978Y-48404122D01*
X-53446960Y-48447913D01*
X-53446957Y-48447924D01*
X-53439879Y-48464218D01*
X-53433030Y-48484582D01*
X-53428821Y-48501852D01*
X-53407153Y-48540391D01*
X-53404283Y-48546169D01*
X-53386669Y-48586718D01*
X-53386666Y-48586722D01*
X-53375456Y-48600502D01*
X-53363369Y-48618260D01*
X-53354654Y-48633759D01*
X-53323388Y-48665025D01*
X-53319071Y-48669808D01*
X-53291170Y-48704105D01*
X-53291165Y-48704110D01*
X-53276646Y-48714358D01*
X-53260212Y-48728201D01*
X-52673540Y-49314873D01*
X-52672075Y-49316389D01*
X-52627568Y-49364044D01*
X-52596451Y-49382966D01*
X-52589799Y-49387012D01*
X-52584465Y-49390641D01*
X-52549230Y-49417361D01*
X-52532685Y-49423885D01*
X-52513459Y-49433435D01*
X-52498270Y-49442672D01*
X-52455685Y-49454603D01*
X-52449588Y-49456654D01*
X-52408452Y-49472876D01*
X-52390771Y-49474693D01*
X-52369671Y-49478704D01*
X-52352553Y-49483500D01*
X-52308341Y-49483500D01*
X-52301893Y-49483831D01*
X-52257918Y-49488352D01*
X-52257918Y-49488351D01*
X-52257916Y-49488352D01*
X-52247532Y-49486561D01*
X-52240399Y-49485332D01*
X-52218992Y-49483500D01*
X-48477374Y-49483500D01*
X-48475223Y-49483537D01*
X-48448370Y-49484453D01*
X-48410062Y-49485762D01*
X-48384158Y-49479448D01*
X-48367116Y-49475296D01*
X-48360772Y-49474090D01*
X-48355444Y-49473357D01*
X-48316968Y-49468070D01*
X-48300663Y-49460986D01*
X-48280298Y-49454138D01*
X-48263036Y-49449933D01*
X-48224486Y-49428256D01*
X-48218721Y-49425394D01*
X-48178168Y-49407780D01*
X-48164382Y-49396563D01*
X-48146624Y-49384477D01*
X-48131129Y-49375766D01*
X-48099855Y-49344490D01*
X-48095083Y-49340184D01*
X-48060780Y-49312278D01*
X-48050530Y-49297756D01*
X-48036694Y-49281329D01*
X-47131538Y-48376172D01*
X-47069227Y-48342149D01*
X-47056576Y-48340065D01*
X-46890633Y-48321368D01*
X-46720366Y-48261789D01*
X-46567626Y-48165816D01*
X-46440072Y-48038262D01*
X-46344099Y-47885522D01*
X-46284520Y-47715255D01*
X-46264323Y-47536000D01*
X-46284520Y-47356745D01*
X-46344099Y-47186478D01*
X-46344101Y-47186475D01*
X-46344101Y-47186474D01*
X-46440071Y-47033739D01*
X-46440072Y-47033737D01*
X-46567626Y-46906183D01*
X-46567628Y-46906182D01*
X-46720363Y-46810212D01*
X-46720366Y-46810211D01*
X-46759181Y-46796629D01*
X-46890633Y-46750632D01*
X-47069888Y-46730435D01*
X-47069889Y-46730435D01*
X-47095962Y-46733372D01*
X-47249143Y-46750632D01*
X-47249146Y-46750632D01*
X-47249146Y-46750633D01*
X-47419411Y-46810211D01*
X-47419414Y-46810212D01*
X-47572149Y-46906182D01*
X-47572151Y-46906183D01*
X-47699705Y-47033737D01*
X-47699706Y-47033739D01*
X-47795676Y-47186474D01*
X-47795677Y-47186477D01*
X-47800576Y-47200478D01*
X-47855256Y-47356745D01*
X-47872169Y-47506856D01*
X-47873950Y-47522662D01*
X-47901454Y-47588115D01*
X-47910063Y-47597649D01*
X-48658010Y-48345596D01*
X-48720320Y-48379620D01*
X-48747103Y-48382500D01*
X-50423071Y-48382500D01*
X-50491192Y-48362498D01*
X-50537685Y-48308842D01*
X-50547789Y-48238568D01*
X-50518295Y-48173988D01*
X-50493628Y-48152108D01*
X-50372109Y-48069974D01*
X-50353888Y-48057659D01*
X-50187426Y-47898119D01*
X-50050322Y-47712742D01*
X-49946518Y-47506860D01*
X-49879002Y-47286397D01*
X-49849716Y-47057694D01*
X-49850139Y-47047739D01*
X-49859502Y-46827331D01*
X-49876923Y-46746498D01*
X-49883702Y-46715044D01*
X-49878501Y-46644240D01*
X-49835845Y-46587487D01*
X-49769277Y-46562804D01*
X-49760530Y-46562500D01*
X-49227656Y-46562500D01*
X-49159535Y-46582502D01*
X-49138566Y-46599400D01*
X-49096150Y-46641816D01*
X-49096148Y-46641817D01*
X-49096147Y-46641818D01*
X-48943414Y-46737787D01*
X-48943413Y-46737787D01*
X-48943410Y-46737789D01*
X-48773143Y-46797368D01*
X-48593888Y-46817565D01*
X-48414633Y-46797368D01*
X-48244366Y-46737789D01*
X-48091626Y-46641816D01*
X-47964072Y-46514262D01*
X-47868099Y-46361522D01*
X-47808520Y-46191255D01*
X-47788323Y-46012000D01*
X-47808520Y-45832745D01*
X-47868099Y-45662478D01*
X-47892569Y-45623535D01*
X-47911873Y-45555214D01*
X-47891177Y-45487301D01*
X-47837050Y-45441358D01*
X-47785880Y-45430500D01*
X-40128719Y-45430500D01*
X-40060598Y-45450502D01*
X-40014105Y-45504158D01*
X-40004001Y-45574432D01*
X-40025505Y-45628770D01*
X-40038457Y-45647266D01*
X-40134626Y-45853501D01*
X-40134628Y-45853506D01*
X-40193523Y-46073304D01*
X-40213356Y-46300000D01*
X-40193523Y-46526695D01*
X-40134628Y-46746493D01*
X-40134626Y-46746498D01*
X-40038457Y-46952733D01*
X-40011501Y-46991230D01*
X-39988814Y-47058504D01*
X-40006099Y-47127364D01*
X-40057869Y-47175948D01*
X-40114715Y-47189500D01*
X-43995359Y-47189500D01*
X-44063480Y-47169498D01*
X-44102046Y-47130536D01*
X-44154072Y-47047738D01*
X-44154074Y-47047735D01*
X-44281626Y-46920183D01*
X-44281628Y-46920182D01*
X-44434363Y-46824212D01*
X-44434366Y-46824211D01*
X-44511085Y-46797366D01*
X-44604633Y-46764632D01*
X-44783888Y-46744435D01*
X-44963143Y-46764632D01*
X-44963146Y-46764632D01*
X-44963146Y-46764633D01*
X-45133411Y-46824211D01*
X-45133414Y-46824212D01*
X-45286149Y-46920182D01*
X-45286151Y-46920183D01*
X-45413705Y-47047737D01*
X-45413706Y-47047739D01*
X-45509676Y-47200474D01*
X-45509677Y-47200477D01*
X-45557708Y-47337742D01*
X-45569256Y-47370745D01*
X-45589453Y-47550000D01*
X-45569256Y-47729255D01*
X-45569255Y-47729257D01*
X-45509677Y-47899522D01*
X-45509676Y-47899525D01*
X-45413706Y-48052260D01*
X-45413705Y-48052262D01*
X-45286151Y-48179816D01*
X-45286149Y-48179817D01*
X-45133414Y-48275787D01*
X-45133413Y-48275787D01*
X-45133410Y-48275789D01*
X-44963143Y-48335368D01*
X-44783888Y-48355565D01*
X-44783887Y-48355564D01*
X-44783884Y-48355565D01*
X-44776810Y-48355565D01*
X-44776810Y-48357539D01*
X-44725394Y-48364794D01*
X-44700650Y-48375044D01*
X-44543888Y-48395682D01*
X-44543887Y-48395682D01*
X-44508626Y-48391040D01*
X-44500394Y-48390500D01*
X-23529382Y-48390500D01*
X-23521150Y-48391040D01*
X-23485889Y-48395682D01*
X-23485888Y-48395682D01*
X-23329126Y-48375044D01*
X-23183047Y-48314536D01*
X-23114306Y-48261789D01*
X-23057606Y-48218282D01*
X-23035942Y-48190046D01*
X-23030526Y-48183871D01*
X-21788970Y-46942315D01*
X-16566061Y-46942315D01*
X-16556275Y-47172668D01*
X-16507698Y-47398064D01*
X-16446645Y-47550000D01*
X-16421729Y-47612006D01*
X-16300839Y-47808343D01*
X-16220589Y-47899525D01*
X-16152426Y-47976974D01*
X-16148508Y-47981425D01*
X-15969116Y-48126274D01*
X-15969112Y-48126276D01*
X-15969111Y-48126277D01*
X-15856027Y-48189449D01*
X-15767825Y-48238721D01*
X-15629730Y-48287513D01*
X-15569364Y-48308842D01*
X-15550426Y-48315533D01*
X-15323173Y-48354500D01*
X-15323170Y-48354500D01*
X-15150363Y-48354500D01*
X-15150353Y-48354500D01*
X-14978149Y-48339843D01*
X-14960962Y-48335368D01*
X-14755026Y-48281747D01*
X-14755026Y-48281746D01*
X-14755019Y-48281745D01*
X-14544917Y-48186773D01*
X-14353888Y-48057659D01*
X-14187426Y-47898119D01*
X-14050322Y-47712742D01*
X-13946518Y-47506860D01*
X-13879002Y-47286397D01*
X-13851024Y-47067911D01*
X-13066108Y-47067911D01*
X-13036420Y-47337742D01*
X-12967756Y-47600386D01*
X-12861584Y-47850227D01*
X-12720172Y-48081940D01*
X-12720170Y-48081942D01*
X-12720169Y-48081944D01*
X-12677005Y-48133811D01*
X-12546522Y-48290602D01*
X-12546518Y-48290606D01*
X-12344353Y-48471748D01*
X-12344349Y-48471750D01*
X-12344342Y-48471757D01*
X-12137099Y-48608867D01*
X-12117939Y-48621543D01*
X-11872148Y-48736766D01*
X-11872146Y-48736766D01*
X-11872145Y-48736767D01*
X-11612191Y-48814975D01*
X-11612188Y-48814975D01*
X-11612186Y-48814976D01*
X-11343624Y-48854500D01*
X-11343620Y-48854500D01*
X-11140108Y-48854500D01*
X-11140107Y-48854500D01*
X-10937148Y-48839645D01*
X-10672179Y-48780621D01*
X-10418627Y-48683646D01*
X-10181897Y-48550786D01*
X-9967035Y-48384875D01*
X-9778619Y-48189447D01*
X-9620665Y-47968668D01*
X-9496540Y-47727244D01*
X-9408890Y-47470320D01*
X-9359582Y-47203371D01*
X-9349668Y-46932089D01*
X-9368093Y-46764632D01*
X-9379357Y-46662257D01*
X-9407659Y-46554000D01*
X-9448020Y-46399616D01*
X-9554191Y-46149776D01*
X-9583421Y-46101881D01*
X-9695605Y-45918059D01*
X-9695607Y-45918056D01*
X-9869256Y-45709396D01*
X-9869259Y-45709393D01*
X-10071424Y-45528251D01*
X-10071429Y-45528247D01*
X-10071434Y-45528243D01*
X-10297835Y-45378458D01*
X-10297838Y-45378456D01*
X-10543629Y-45263233D01*
X-10803591Y-45185023D01*
X-11072153Y-45145500D01*
X-11072156Y-45145500D01*
X-11275669Y-45145500D01*
X-11291697Y-45146673D01*
X-11478626Y-45160354D01*
X-11743601Y-45219380D01*
X-11743603Y-45219381D01*
X-11997150Y-45316354D01*
X-12233880Y-45449214D01*
X-12448743Y-45615126D01*
X-12448744Y-45615127D01*
X-12637156Y-45810551D01*
X-12637161Y-45810557D01*
X-12795109Y-46031328D01*
X-12795113Y-46031333D01*
X-12919236Y-46272753D01*
X-13006888Y-46529686D01*
X-13056195Y-46796632D01*
X-13066108Y-47067911D01*
X-13851024Y-47067911D01*
X-13849716Y-47057694D01*
X-13850139Y-47047739D01*
X-13859502Y-46827331D01*
X-13899483Y-46641818D01*
X-13908078Y-46601938D01*
X-13994047Y-46387994D01*
X-14114937Y-46191657D01*
X-14243131Y-46046000D01*
X-14267265Y-46018578D01*
X-14267267Y-46018576D01*
X-14267268Y-46018575D01*
X-14446660Y-45873726D01*
X-14446664Y-45873724D01*
X-14446666Y-45873722D01*
X-14647950Y-45761279D01*
X-14865345Y-45684468D01*
X-14865350Y-45684467D01*
X-15092603Y-45645500D01*
X-15265423Y-45645500D01*
X-15265436Y-45645500D01*
X-15437623Y-45660156D01*
X-15437636Y-45660158D01*
X-15660751Y-45718252D01*
X-15870855Y-45813224D01*
X-15870865Y-45813230D01*
X-16061885Y-45942338D01*
X-16178913Y-46054500D01*
X-16228350Y-46101881D01*
X-16361387Y-46281760D01*
X-16365456Y-46287261D01*
X-16469260Y-46493143D01*
X-16469262Y-46493149D01*
X-16536774Y-46713602D01*
X-16566061Y-46942315D01*
X-21788970Y-46942315D01*
X-20260016Y-45413361D01*
X-20253834Y-45407940D01*
X-20225606Y-45386282D01*
X-20129352Y-45260841D01*
X-20068844Y-45114762D01*
X-20053388Y-44997361D01*
X-20048206Y-44958000D01*
X-20051694Y-44931502D01*
X-20052848Y-44922737D01*
X-20053388Y-44914505D01*
X-20053388Y-44309112D01*
X-20033386Y-44240991D01*
X-20025892Y-44230543D01*
X-20024077Y-44228266D01*
X-20024072Y-44228262D01*
X-20024069Y-44228256D01*
X-20024065Y-44228252D01*
X-19928101Y-44075525D01*
X-19928102Y-44075525D01*
X-19928099Y-44075522D01*
X-19868520Y-43905255D01*
X-19848323Y-43726000D01*
X-19868520Y-43546745D01*
X-19928099Y-43376478D01*
X-19928101Y-43376475D01*
X-19928101Y-43376474D01*
X-20024071Y-43223739D01*
X-20024072Y-43223737D01*
X-20151626Y-43096183D01*
X-20151628Y-43096182D01*
X-20304363Y-43000212D01*
X-20304366Y-43000211D01*
X-20304367Y-43000211D01*
X-20474633Y-42940632D01*
X-20653888Y-42920435D01*
X-20653889Y-42920435D01*
X-20679962Y-42923372D01*
X-20833143Y-42940632D01*
X-20833146Y-42940632D01*
X-20833146Y-42940633D01*
X-21003411Y-43000211D01*
X-21003414Y-43000212D01*
X-21156149Y-43096182D01*
X-21156151Y-43096183D01*
X-21283705Y-43223737D01*
X-21283706Y-43223739D01*
X-21379676Y-43376474D01*
X-21379677Y-43376477D01*
X-21425958Y-43508742D01*
X-21439256Y-43546745D01*
X-21459453Y-43726000D01*
X-21439256Y-43905255D01*
X-21439255Y-43905257D01*
X-21379677Y-44075522D01*
X-21379676Y-44075525D01*
X-21283712Y-44228252D01*
X-21281884Y-44230543D01*
X-21281165Y-44232305D01*
X-21279940Y-44234254D01*
X-21280282Y-44234468D01*
X-21255044Y-44296271D01*
X-21254388Y-44309112D01*
X-21254388Y-44657074D01*
X-21274390Y-44725195D01*
X-21291293Y-44746169D01*
X-23697718Y-47152595D01*
X-23760030Y-47186620D01*
X-23786813Y-47189500D01*
X-26051888Y-47189500D01*
X-26120009Y-47169498D01*
X-26166502Y-47115842D01*
X-26177888Y-47063500D01*
X-26177888Y-46554000D01*
X-26933663Y-46554000D01*
X-26893332Y-46456631D01*
X-26872711Y-46300000D01*
X-26893332Y-46143369D01*
X-26933663Y-46046000D01*
X-26177889Y-46046000D01*
X-26177889Y-45368520D01*
X-26192723Y-45274853D01*
X-26250249Y-45161953D01*
X-26250250Y-45161951D01*
X-26339840Y-45072361D01*
X-26339842Y-45072360D01*
X-26452742Y-45014834D01*
X-26546408Y-45000000D01*
X-27223888Y-45000000D01*
X-27223888Y-45755775D01*
X-27321257Y-45715444D01*
X-27438565Y-45700000D01*
X-27517211Y-45700000D01*
X-27634519Y-45715444D01*
X-27731888Y-45755775D01*
X-27731888Y-45000000D01*
X-28268780Y-45000000D01*
X-28336901Y-44979998D01*
X-28383394Y-44926342D01*
X-28393498Y-44856068D01*
X-28364004Y-44791488D01*
X-28357894Y-44784924D01*
X-25599374Y-42026405D01*
X-25537061Y-41992379D01*
X-25510278Y-41989500D01*
X-20724403Y-41989500D01*
X-20722808Y-41989520D01*
X-20706443Y-41989934D01*
X-20634526Y-41991757D01*
X-20587131Y-41983261D01*
X-20574181Y-41980941D01*
X-20569438Y-41980276D01*
X-20551353Y-41978436D01*
X-20508451Y-41974074D01*
X-20475736Y-41963809D01*
X-20467985Y-41961907D01*
X-20462903Y-41960995D01*
X-20434236Y-41955858D01*
X-20377279Y-41933106D01*
X-20372818Y-41931518D01*
X-20314301Y-41913159D01*
X-20284299Y-41896505D01*
X-20277127Y-41893100D01*
X-20250006Y-41882267D01*
X-20245274Y-41880378D01*
X-20245272Y-41880377D01*
X-20194071Y-41846631D01*
X-20190024Y-41844179D01*
X-20136387Y-41814409D01*
X-20110364Y-41792067D01*
X-20104008Y-41787274D01*
X-20075371Y-41768402D01*
X-20032006Y-41725035D01*
X-20028532Y-41721816D01*
X-19981994Y-41681866D01*
X-19960996Y-41654737D01*
X-19955741Y-41648770D01*
X-17469882Y-39162913D01*
X-17468874Y-39161930D01*
X-17404824Y-39101048D01*
X-17369783Y-39050701D01*
X-17366930Y-39046919D01*
X-17328180Y-38999397D01*
X-17312301Y-38968995D01*
X-17308181Y-38962194D01*
X-17288582Y-38934038D01*
X-17264399Y-38877683D01*
X-17262352Y-38873375D01*
X-17233969Y-38819039D01*
X-17233968Y-38819038D01*
X-17224538Y-38786079D01*
X-17221863Y-38778562D01*
X-17208337Y-38747047D01*
X-17195995Y-38686983D01*
X-17194861Y-38682358D01*
X-17177991Y-38623407D01*
X-17175388Y-38589212D01*
X-17174282Y-38581327D01*
X-17167377Y-38547730D01*
X-17167377Y-38486421D01*
X-17167195Y-38481636D01*
X-17162540Y-38420513D01*
X-17166873Y-38386491D01*
X-17167377Y-38378535D01*
X-17167377Y-25521114D01*
X-17147375Y-25452993D01*
X-17093719Y-25406500D01*
X-17027274Y-25395906D01*
X-16981213Y-25401096D01*
X-16915763Y-25428599D01*
X-16906228Y-25437208D01*
X-13367293Y-28976143D01*
X-13333267Y-29038455D01*
X-13330388Y-29065238D01*
X-13330388Y-43054231D01*
X-13350390Y-43122352D01*
X-13367293Y-43143326D01*
X-13409705Y-43185737D01*
X-13409706Y-43185739D01*
X-13505676Y-43338474D01*
X-13505677Y-43338477D01*
X-13546805Y-43456014D01*
X-13565256Y-43508745D01*
X-13585453Y-43688000D01*
X-13565256Y-43867255D01*
X-13515729Y-44008795D01*
X-13505677Y-44037522D01*
X-13505676Y-44037525D01*
X-13409706Y-44190260D01*
X-13409705Y-44190262D01*
X-13282151Y-44317816D01*
X-13282149Y-44317817D01*
X-13129414Y-44413787D01*
X-13129413Y-44413787D01*
X-13129410Y-44413789D01*
X-12959143Y-44473368D01*
X-12779888Y-44493565D01*
X-12600633Y-44473368D01*
X-12430366Y-44413789D01*
X-12277626Y-44317816D01*
X-12150072Y-44190262D01*
X-12054099Y-44037522D01*
X-11994520Y-43867255D01*
X-11974323Y-43688000D01*
X-11994520Y-43508745D01*
X-12054099Y-43338478D01*
X-12150072Y-43185738D01*
X-12192484Y-43143325D01*
X-12226509Y-43081012D01*
X-12229388Y-43054230D01*
X-12229388Y-28795508D01*
X-12229351Y-28793357D01*
X-12228443Y-28766735D01*
X-12227126Y-28728197D01*
X-12237593Y-28685248D01*
X-12238798Y-28678908D01*
X-12244818Y-28635103D01*
X-12251900Y-28618801D01*
X-12258751Y-28598426D01*
X-12262954Y-28581176D01*
X-12262955Y-28581171D01*
X-12284631Y-28542620D01*
X-12287491Y-28536861D01*
X-12295179Y-28519163D01*
X-12305106Y-28496306D01*
X-12305110Y-28496300D01*
X-12316324Y-28482516D01*
X-12328413Y-28464754D01*
X-12337123Y-28449263D01*
X-12337127Y-28449258D01*
X-12368381Y-28418004D01*
X-12372706Y-28413213D01*
X-12400607Y-28378918D01*
X-12400615Y-28378911D01*
X-12415137Y-28368660D01*
X-12431567Y-28354819D01*
X-16127703Y-24658683D01*
X-16161729Y-24596371D01*
X-16163813Y-24583715D01*
X-16182509Y-24417779D01*
X-16242088Y-24247512D01*
X-16242090Y-24247509D01*
X-16242090Y-24247508D01*
X-16338060Y-24094773D01*
X-16338061Y-24094771D01*
X-16465615Y-23967217D01*
X-16465617Y-23967216D01*
X-16618352Y-23871246D01*
X-16618355Y-23871245D01*
X-16618355Y-23871244D01*
X-16788622Y-23811666D01*
X-16967877Y-23791469D01*
X-16967879Y-23791469D01*
X-16967880Y-23791469D01*
X-17027272Y-23798160D01*
X-17097203Y-23785910D01*
X-17149411Y-23737796D01*
X-17167377Y-23672952D01*
X-17167377Y-19194099D01*
X-17147375Y-19125978D01*
X-17130481Y-19105013D01*
X-16774870Y-18749402D01*
X-16712560Y-18715379D01*
X-16685777Y-18712500D01*
X-14181388Y-18712500D01*
X-14113267Y-18732502D01*
X-14066774Y-18786158D01*
X-14055388Y-18838500D01*
X-14055388Y-19853007D01*
X-14043651Y-19962164D01*
X-14032447Y-20013667D01*
X-13997779Y-20117825D01*
X-13918758Y-20240784D01*
X-13918757Y-20240786D01*
X-13873008Y-20293582D01*
X-13873006Y-20293583D01*
X-13873004Y-20293586D01*
X-13762549Y-20389297D01*
X-13690320Y-20422284D01*
X-13629602Y-20450014D01*
X-13613706Y-20454681D01*
X-13562562Y-20469699D01*
X-13562558Y-20469700D01*
X-13417888Y-20490500D01*
X-13417884Y-20490500D01*
X-11125893Y-20490500D01*
X-11125888Y-20490500D01*
X-11016731Y-20478764D01*
X-10965220Y-20467558D01*
X-10861061Y-20432890D01*
X-10738106Y-20353871D01*
X-10738104Y-20353868D01*
X-10738102Y-20353868D01*
X-10711704Y-20330993D01*
X-10685302Y-20308116D01*
X-10589591Y-20197661D01*
X-10528874Y-20064713D01*
X-10509189Y-19997674D01*
X-10509188Y-19997670D01*
X-10488388Y-19853000D01*
X-10488388Y-15482994D01*
X-10468386Y-15414874D01*
X-10414730Y-15368381D01*
X-10344456Y-15358277D01*
X-10309138Y-15368800D01*
X-10220216Y-15410265D01*
X-10220211Y-15410267D01*
X-10027888Y-15461800D01*
X-10027888Y-14495685D01*
X-10011933Y-14511641D01*
X-9899036Y-14569165D01*
X-9773888Y-14588986D01*
X-9648740Y-14569165D01*
X-9535843Y-14511641D01*
X-9519888Y-14495686D01*
X-9519888Y-15461799D01*
X-9327566Y-15410267D01*
X-9327560Y-15410265D01*
X-9121405Y-15314133D01*
X-8935076Y-15183664D01*
X-8935070Y-15183659D01*
X-8774229Y-15022818D01*
X-8774224Y-15022812D01*
X-8643753Y-14836480D01*
X-8643507Y-14836056D01*
X-8643351Y-14835906D01*
X-8640598Y-14831976D01*
X-8639809Y-14832529D01*
X-8592125Y-14787063D01*
X-8522411Y-14773626D01*
X-8456500Y-14800013D01*
X-8415318Y-14857845D01*
X-8408388Y-14899056D01*
X-8408388Y-47864760D01*
X-8428390Y-47932881D01*
X-8445293Y-47953855D01*
X-10254032Y-49762595D01*
X-10316344Y-49796620D01*
X-10343127Y-49799500D01*
X-56072649Y-49799500D01*
X-56140770Y-49779498D01*
X-56161744Y-49762595D01*
X-57970483Y-47953856D01*
X-58004509Y-47891544D01*
X-58007388Y-47864761D01*
X-58007388Y-3067911D01*
X-57066108Y-3067911D01*
X-57036420Y-3337742D01*
X-56967756Y-3600386D01*
X-56861584Y-3850227D01*
X-56720172Y-4081940D01*
X-56720170Y-4081942D01*
X-56720169Y-4081944D01*
X-56633345Y-4186273D01*
X-56546522Y-4290602D01*
X-56546518Y-4290606D01*
X-56344353Y-4471748D01*
X-56344349Y-4471750D01*
X-56344342Y-4471757D01*
X-56117941Y-4621542D01*
X-56117939Y-4621543D01*
X-55872148Y-4736766D01*
X-55872146Y-4736766D01*
X-55872145Y-4736767D01*
X-55612191Y-4814975D01*
X-55612188Y-4814975D01*
X-55612186Y-4814976D01*
X-55343624Y-4854500D01*
X-55343620Y-4854500D01*
X-55140108Y-4854500D01*
X-55140107Y-4854500D01*
X-54937148Y-4839645D01*
X-54672179Y-4780621D01*
X-54418627Y-4683646D01*
X-54181897Y-4550786D01*
X-53967035Y-4384875D01*
X-53778619Y-4189447D01*
X-53620665Y-3968668D01*
X-53496540Y-3727244D01*
X-53408890Y-3470320D01*
X-53359582Y-3203371D01*
X-53350042Y-2942315D01*
X-52566061Y-2942315D01*
X-52556275Y-3172668D01*
X-52507698Y-3398064D01*
X-52463980Y-3506860D01*
X-52421729Y-3612006D01*
X-52300839Y-3808343D01*
X-52221827Y-3898118D01*
X-52159738Y-3968666D01*
X-52148508Y-3981425D01*
X-51969116Y-4126274D01*
X-51969112Y-4126276D01*
X-51969111Y-4126277D01*
X-51767827Y-4238720D01*
X-51767825Y-4238721D01*
X-51550426Y-4315533D01*
X-51323173Y-4354500D01*
X-51323170Y-4354500D01*
X-51150363Y-4354500D01*
X-51150353Y-4354500D01*
X-50978149Y-4339843D01*
X-50978141Y-4339841D01*
X-50755026Y-4281747D01*
X-50755026Y-4281746D01*
X-50755019Y-4281745D01*
X-50544917Y-4186773D01*
X-50353888Y-4057659D01*
X-50187426Y-3898119D01*
X-50050322Y-3712742D01*
X-49946518Y-3506860D01*
X-49879002Y-3286397D01*
X-49849716Y-3057694D01*
X-49854617Y-2942315D01*
X-16566061Y-2942315D01*
X-16556275Y-3172668D01*
X-16507698Y-3398064D01*
X-16463980Y-3506860D01*
X-16421729Y-3612006D01*
X-16300839Y-3808343D01*
X-16221827Y-3898118D01*
X-16159738Y-3968666D01*
X-16148508Y-3981425D01*
X-15969116Y-4126274D01*
X-15969112Y-4126276D01*
X-15969111Y-4126277D01*
X-15767827Y-4238720D01*
X-15767825Y-4238721D01*
X-15550426Y-4315533D01*
X-15323173Y-4354500D01*
X-15323170Y-4354500D01*
X-15150363Y-4354500D01*
X-15150353Y-4354500D01*
X-14978149Y-4339843D01*
X-14978141Y-4339841D01*
X-14755026Y-4281747D01*
X-14755026Y-4281746D01*
X-14755019Y-4281745D01*
X-14544917Y-4186773D01*
X-14353888Y-4057659D01*
X-14187426Y-3898119D01*
X-14050322Y-3712742D01*
X-13946518Y-3506860D01*
X-13879002Y-3286397D01*
X-13851024Y-3067911D01*
X-13066108Y-3067911D01*
X-13036420Y-3337742D01*
X-12967756Y-3600386D01*
X-12861584Y-3850227D01*
X-12720172Y-4081940D01*
X-12720170Y-4081942D01*
X-12720169Y-4081944D01*
X-12633345Y-4186273D01*
X-12546522Y-4290602D01*
X-12546518Y-4290606D01*
X-12344353Y-4471748D01*
X-12344349Y-4471750D01*
X-12344342Y-4471757D01*
X-12117941Y-4621542D01*
X-12117939Y-4621543D01*
X-11872148Y-4736766D01*
X-11872146Y-4736766D01*
X-11872145Y-4736767D01*
X-11612191Y-4814975D01*
X-11612188Y-4814975D01*
X-11612186Y-4814976D01*
X-11343624Y-4854500D01*
X-11343620Y-4854500D01*
X-11140108Y-4854500D01*
X-11140107Y-4854500D01*
X-10937148Y-4839645D01*
X-10672179Y-4780621D01*
X-10418627Y-4683646D01*
X-10181897Y-4550786D01*
X-9967035Y-4384875D01*
X-9778619Y-4189447D01*
X-9620665Y-3968668D01*
X-9496540Y-3727244D01*
X-9408890Y-3470320D01*
X-9359582Y-3203371D01*
X-9349668Y-2932089D01*
X-9373708Y-2713602D01*
X-9379357Y-2662257D01*
X-9395127Y-2601935D01*
X-9448020Y-2399616D01*
X-9476835Y-2331810D01*
X-9531009Y-2204328D01*
X-9554191Y-2149776D01*
X-9563063Y-2135239D01*
X-9695605Y-1918059D01*
X-9695607Y-1918056D01*
X-9869256Y-1709396D01*
X-9897078Y-1684467D01*
X-10071424Y-1528251D01*
X-10071429Y-1528247D01*
X-10071434Y-1528243D01*
X-10297835Y-1378458D01*
X-10297838Y-1378456D01*
X-10543629Y-1263233D01*
X-10803591Y-1185023D01*
X-11072153Y-1145500D01*
X-11072156Y-1145500D01*
X-11275669Y-1145500D01*
X-11291697Y-1146673D01*
X-11478626Y-1160354D01*
X-11743601Y-1219380D01*
X-11743603Y-1219381D01*
X-11997150Y-1316354D01*
X-12233880Y-1449214D01*
X-12448743Y-1615126D01*
X-12448744Y-1615127D01*
X-12637156Y-1810551D01*
X-12637161Y-1810557D01*
X-12795109Y-2031328D01*
X-12795113Y-2031333D01*
X-12919236Y-2272753D01*
X-13006888Y-2529686D01*
X-13056195Y-2796632D01*
X-13066108Y-3067911D01*
X-13851024Y-3067911D01*
X-13849716Y-3057694D01*
X-13859502Y-2827332D01*
X-13908078Y-2601938D01*
X-13994047Y-2387994D01*
X-14114937Y-2191657D01*
X-14253637Y-2034063D01*
X-14267265Y-2018578D01*
X-14267267Y-2018576D01*
X-14267268Y-2018575D01*
X-14446660Y-1873726D01*
X-14446664Y-1873724D01*
X-14446666Y-1873722D01*
X-14647950Y-1761279D01*
X-14865345Y-1684468D01*
X-14865350Y-1684467D01*
X-15092603Y-1645500D01*
X-15265423Y-1645500D01*
X-15265436Y-1645500D01*
X-15437623Y-1660156D01*
X-15437636Y-1660158D01*
X-15660751Y-1718252D01*
X-15870855Y-1813224D01*
X-15870865Y-1813230D01*
X-16061885Y-1942338D01*
X-16061889Y-1942341D01*
X-16061888Y-1942341D01*
X-16228350Y-2101881D01*
X-16304121Y-2204331D01*
X-16365456Y-2287261D01*
X-16469260Y-2493143D01*
X-16469262Y-2493149D01*
X-16536774Y-2713602D01*
X-16566061Y-2942315D01*
X-49854617Y-2942315D01*
X-49859502Y-2827332D01*
X-49908078Y-2601938D01*
X-49994047Y-2387994D01*
X-50114937Y-2191657D01*
X-50253637Y-2034063D01*
X-50267265Y-2018578D01*
X-50267267Y-2018576D01*
X-50267268Y-2018575D01*
X-50446660Y-1873726D01*
X-50446664Y-1873724D01*
X-50446666Y-1873722D01*
X-50647950Y-1761279D01*
X-50865345Y-1684468D01*
X-50865350Y-1684467D01*
X-51092603Y-1645500D01*
X-51265423Y-1645500D01*
X-51265436Y-1645500D01*
X-51437623Y-1660156D01*
X-51437636Y-1660158D01*
X-51660751Y-1718252D01*
X-51870855Y-1813224D01*
X-51870865Y-1813230D01*
X-52061885Y-1942338D01*
X-52061889Y-1942341D01*
X-52061888Y-1942341D01*
X-52228350Y-2101881D01*
X-52304121Y-2204331D01*
X-52365456Y-2287261D01*
X-52469260Y-2493143D01*
X-52469262Y-2493149D01*
X-52536774Y-2713602D01*
X-52566061Y-2942315D01*
X-53350042Y-2942315D01*
X-53349668Y-2932089D01*
X-53373708Y-2713602D01*
X-53379357Y-2662257D01*
X-53395127Y-2601935D01*
X-53448020Y-2399616D01*
X-53476835Y-2331810D01*
X-53531009Y-2204328D01*
X-53554191Y-2149776D01*
X-53563063Y-2135239D01*
X-53695605Y-1918059D01*
X-53695607Y-1918056D01*
X-53869256Y-1709396D01*
X-53897078Y-1684467D01*
X-54071424Y-1528251D01*
X-54071429Y-1528247D01*
X-54071434Y-1528243D01*
X-54297835Y-1378458D01*
X-54297838Y-1378456D01*
X-54543629Y-1263233D01*
X-54803591Y-1185023D01*
X-55072153Y-1145500D01*
X-55072156Y-1145500D01*
X-55275669Y-1145500D01*
X-55291697Y-1146673D01*
X-55478626Y-1160354D01*
X-55743601Y-1219380D01*
X-55743603Y-1219381D01*
X-55997150Y-1316354D01*
X-56233880Y-1449214D01*
X-56448743Y-1615126D01*
X-56448744Y-1615127D01*
X-56637156Y-1810551D01*
X-56637161Y-1810557D01*
X-56795109Y-2031328D01*
X-56795113Y-2031333D01*
X-56919236Y-2272753D01*
X-57006888Y-2529686D01*
X-57056195Y-2796632D01*
X-57066108Y-3067911D01*
X-58007388Y-3067911D01*
X-58007388Y-2135239D01*
X-57987386Y-2067118D01*
X-57970483Y-2046144D01*
X-56161744Y-237405D01*
X-56099432Y-203379D01*
X-56072649Y-200500D01*
X-49747770Y-200500D01*
X-49717807Y-200500D01*
X-49698097Y-202051D01*
G37*
%TD.AperFunction*%
%TA.AperFunction,Conductor*%
G36*
X-28859855Y-45391053D02*
G01*
X-28803020Y-45433600D01*
X-28778209Y-45500120D01*
X-28777888Y-45509109D01*
X-28777888Y-46046000D01*
X-28022113Y-46046000D01*
X-28062444Y-46143369D01*
X-28083065Y-46300000D01*
X-28062444Y-46456631D01*
X-28022113Y-46554000D01*
X-28777887Y-46554000D01*
X-28777887Y-47063500D01*
X-28797889Y-47131621D01*
X-28851545Y-47178114D01*
X-28903887Y-47189500D01*
X-30081061Y-47189500D01*
X-30149182Y-47169498D01*
X-30195675Y-47115842D01*
X-30205779Y-47045568D01*
X-30184275Y-46991230D01*
X-30172494Y-46974405D01*
X-30157320Y-46952734D01*
X-30061149Y-46746496D01*
X-30002253Y-46526692D01*
X-29996912Y-46465629D01*
X-29971049Y-46399512D01*
X-29960501Y-46387531D01*
X-28992981Y-45420011D01*
X-28930671Y-45385988D01*
X-28859855Y-45391053D01*
G37*
%TD.AperFunction*%
%TA.AperFunction,Conductor*%
G36*
X-35665798Y-40444995D02*
G01*
X-35608962Y-40487542D01*
X-35584151Y-40554062D01*
X-35585490Y-40583435D01*
X-35593419Y-40631800D01*
X-35613382Y-40999996D01*
X-35613382Y-41000003D01*
X-35593419Y-41368198D01*
X-35535193Y-41723363D01*
X-35533763Y-41732081D01*
X-35521397Y-41776621D01*
X-35435115Y-42087381D01*
X-35435113Y-42087387D01*
X-35336698Y-42334389D01*
X-35298631Y-42429930D01*
X-35125910Y-42755716D01*
X-34918978Y-43060917D01*
X-34848980Y-43143325D01*
X-34782213Y-43221929D01*
X-34753357Y-43286797D01*
X-34764152Y-43356968D01*
X-34811171Y-43410164D01*
X-34878245Y-43429500D01*
X-38450277Y-43429500D01*
X-38518398Y-43409498D01*
X-38564891Y-43355842D01*
X-38574995Y-43285568D01*
X-38545501Y-43220988D01*
X-38539372Y-43214405D01*
X-38080680Y-42755713D01*
X-35798923Y-40473954D01*
X-35736613Y-40439931D01*
X-35665798Y-40444995D01*
G37*
%TD.AperFunction*%
%TA.AperFunction,Conductor*%
G36*
X-29942378Y-37850502D02*
G01*
X-29921404Y-37867405D01*
X-27428890Y-40359918D01*
X-27427814Y-40361022D01*
X-27366949Y-40425051D01*
X-27366947Y-40425053D01*
X-27345571Y-40439931D01*
X-27316622Y-40460080D01*
X-27312822Y-40462945D01*
X-27265295Y-40501698D01*
X-27244305Y-40512662D01*
X-27234904Y-40517573D01*
X-27228076Y-40521710D01*
X-27199938Y-40541295D01*
X-27191865Y-40544759D01*
X-27137151Y-40590002D01*
X-27115584Y-40657643D01*
X-27134009Y-40726207D01*
X-27152455Y-40749644D01*
X-28872933Y-42470122D01*
X-28935245Y-42504148D01*
X-29006060Y-42499083D01*
X-29062896Y-42456536D01*
X-29087707Y-42390016D01*
X-29079080Y-42334392D01*
X-28980661Y-42087379D01*
X-28882013Y-41732081D01*
X-28822357Y-41368199D01*
X-28802394Y-41000000D01*
X-28822357Y-40631801D01*
X-28882013Y-40267919D01*
X-28980661Y-39912621D01*
X-28980662Y-39912618D01*
X-28980664Y-39912612D01*
X-29117141Y-39570081D01*
X-29117145Y-39570070D01*
X-29289866Y-39244284D01*
X-29496798Y-38939083D01*
X-29626761Y-38786079D01*
X-29735515Y-38658043D01*
X-30003204Y-38404474D01*
X-30003214Y-38404466D01*
X-30003218Y-38404462D01*
X-30296769Y-38181310D01*
X-30490970Y-38064463D01*
X-30539026Y-38012205D01*
X-30551202Y-37942260D01*
X-30523629Y-37876836D01*
X-30465063Y-37836705D01*
X-30426009Y-37830500D01*
X-30010499Y-37830500D01*
X-29942378Y-37850502D01*
G37*
%TD.AperFunction*%
%TA.AperFunction,Conductor*%
G36*
X-28078168Y-8132299D02*
G01*
X-27960651Y-8249816D01*
X-27960649Y-8249817D01*
X-27807914Y-8345787D01*
X-27807913Y-8345787D01*
X-27807910Y-8345789D01*
X-27637643Y-8405368D01*
X-27458388Y-8425565D01*
X-27279133Y-8405368D01*
X-27108866Y-8345789D01*
X-26956126Y-8249816D01*
X-26916671Y-8210360D01*
X-26854360Y-8176335D01*
X-26783544Y-8181399D01*
X-26726708Y-8223945D01*
X-26702368Y-8285346D01*
X-26690584Y-8389927D01*
X-26665566Y-8461424D01*
X-26631005Y-8560194D01*
X-26631004Y-8560197D01*
X-26535034Y-8712932D01*
X-26535033Y-8712934D01*
X-26407479Y-8840488D01*
X-26407477Y-8840489D01*
X-26254742Y-8936459D01*
X-26254741Y-8936459D01*
X-26254738Y-8936461D01*
X-26084471Y-8996040D01*
X-25905216Y-9016237D01*
X-25725961Y-8996040D01*
X-25555694Y-8936461D01*
X-25402954Y-8840488D01*
X-25338482Y-8776015D01*
X-25276172Y-8741992D01*
X-25205356Y-8747056D01*
X-25148520Y-8789602D01*
X-25123709Y-8856122D01*
X-25123388Y-8865112D01*
X-25123388Y-12666956D01*
X-25123119Y-12673796D01*
X-25122763Y-12682883D01*
X-25122761Y-12682908D01*
X-25120921Y-12706282D01*
X-25120914Y-12706345D01*
X-25117179Y-12737904D01*
X-25109673Y-12761005D01*
X-25079135Y-12854996D01*
X-25077973Y-12858570D01*
X-25077972Y-12858574D01*
X-25050251Y-12912979D01*
X-25050198Y-12913085D01*
X-24975624Y-13015728D01*
X-24804836Y-13186515D01*
X-24770811Y-13248827D01*
X-24775875Y-13319643D01*
X-24818422Y-13376479D01*
X-24841588Y-13390224D01*
X-24922953Y-13427382D01*
X-24922958Y-13427385D01*
X-25006722Y-13481216D01*
X-25043911Y-13505117D01*
X-25043913Y-13505118D01*
X-25043918Y-13505122D01*
X-25131138Y-13580699D01*
X-25225290Y-13689358D01*
X-25287688Y-13786450D01*
X-25287691Y-13786455D01*
X-25347412Y-13917225D01*
X-25347420Y-13917246D01*
X-25359869Y-13959641D01*
X-25370586Y-13985269D01*
X-25373180Y-13989942D01*
X-25453429Y-14176941D01*
X-25494389Y-14376260D01*
X-25494389Y-16504469D01*
X-25494409Y-16506064D01*
X-25496645Y-16594362D01*
X-25496644Y-16594368D01*
X-25485829Y-16654715D01*
X-25485164Y-16659456D01*
X-25478963Y-16720437D01*
X-25468698Y-16753153D01*
X-25466796Y-16760904D01*
X-25460747Y-16794651D01*
X-25438004Y-16851587D01*
X-25436406Y-16856077D01*
X-25423851Y-16896091D01*
X-25418047Y-16914589D01*
X-25401407Y-16944569D01*
X-25397984Y-16951776D01*
X-25385265Y-16983617D01*
X-25351523Y-17034816D01*
X-25349063Y-17038875D01*
X-25319297Y-17092502D01*
X-25319296Y-17092503D01*
X-25296961Y-17118520D01*
X-25292155Y-17124894D01*
X-25273290Y-17153519D01*
X-25273287Y-17153523D01*
X-25253750Y-17173059D01*
X-25229932Y-17196877D01*
X-25226700Y-17200364D01*
X-25186754Y-17246895D01*
X-25159632Y-17267889D01*
X-25153658Y-17273151D01*
X-25059015Y-17367794D01*
X-24993294Y-17433515D01*
X-24959268Y-17495827D01*
X-24956389Y-17522610D01*
X-24956389Y-24991034D01*
X-24969691Y-25047383D01*
X-25397437Y-25902877D01*
X-25418086Y-25944175D01*
X-25431293Y-25980614D01*
X-25458562Y-26055846D01*
X-25458564Y-26055851D01*
X-25471651Y-26111287D01*
X-25485388Y-26229270D01*
X-25485389Y-26229278D01*
X-25485388Y-34376500D01*
X-25505390Y-34444621D01*
X-25559046Y-34491114D01*
X-25611388Y-34502500D01*
X-34515358Y-34502500D01*
X-34516953Y-34502480D01*
X-34595816Y-34500482D01*
X-34605251Y-34500243D01*
X-34605252Y-34500243D01*
X-34605259Y-34500244D01*
X-34665604Y-34511059D01*
X-34670345Y-34511724D01*
X-34731325Y-34517925D01*
X-34764051Y-34528192D01*
X-34771801Y-34530094D01*
X-34805540Y-34536141D01*
X-34805542Y-34536142D01*
X-34862479Y-34558884D01*
X-34866987Y-34560488D01*
X-34925480Y-34578842D01*
X-34955452Y-34595477D01*
X-34962660Y-34598900D01*
X-34994503Y-34611620D01*
X-35045699Y-34645360D01*
X-35049793Y-34647841D01*
X-35103392Y-34677592D01*
X-35129409Y-34699926D01*
X-35135778Y-34704728D01*
X-35164406Y-34723597D01*
X-35164413Y-34723603D01*
X-35207749Y-34766940D01*
X-35211260Y-34770194D01*
X-35257778Y-34810128D01*
X-35257785Y-34810136D01*
X-35278779Y-34837256D01*
X-35284055Y-34843245D01*
X-37479652Y-37038844D01*
X-39643403Y-39202595D01*
X-39705715Y-39236620D01*
X-39732498Y-39239500D01*
X-47608736Y-39239500D01*
X-47676857Y-39219498D01*
X-47723350Y-39165842D01*
X-47734736Y-39113399D01*
X-47734682Y-39046897D01*
X-47734282Y-38547725D01*
X-47734048Y-38256399D01*
X-47713991Y-38188294D01*
X-47660298Y-38141844D01*
X-47608048Y-38130500D01*
X-47603754Y-38130500D01*
X-47599258Y-38130661D01*
X-47583077Y-38131817D01*
X-47547551Y-38134359D01*
X-47543051Y-38133379D01*
X-47516266Y-38130500D01*
X-44109913Y-38130500D01*
X-44041792Y-38150502D01*
X-43995300Y-38204157D01*
X-43941691Y-38321544D01*
X-43941688Y-38321549D01*
X-43879292Y-38418639D01*
X-43785138Y-38527300D01*
X-43697911Y-38602883D01*
X-43576957Y-38680615D01*
X-43471972Y-38728560D01*
X-43334017Y-38769067D01*
X-43219777Y-38785492D01*
X-43219773Y-38785492D01*
X-42647891Y-38785492D01*
X-42647888Y-38785492D01*
X-42522584Y-38765646D01*
X-42522580Y-38765643D01*
X-42517599Y-38764855D01*
X-42478177Y-38764855D01*
X-42473197Y-38765643D01*
X-42473192Y-38765646D01*
X-42347888Y-38785492D01*
X-42347885Y-38785492D01*
X-41776003Y-38785492D01*
X-41775999Y-38785492D01*
X-41661759Y-38769067D01*
X-41523804Y-38728560D01*
X-41418819Y-38680615D01*
X-41297865Y-38602883D01*
X-41210638Y-38527300D01*
X-41116484Y-38418639D01*
X-41054088Y-38321549D01*
X-40994360Y-38190764D01*
X-40961843Y-38080023D01*
X-40941381Y-37937708D01*
X-40941381Y-37822293D01*
X-40941702Y-37817806D01*
X-40941569Y-37817796D01*
X-40942396Y-37806222D01*
X-40942396Y-37453778D01*
X-40941568Y-37442207D01*
X-40941702Y-37442198D01*
X-40941381Y-37437708D01*
X-40941381Y-37322291D01*
X-40941382Y-37322286D01*
X-40961843Y-37179979D01*
X-40961843Y-37179977D01*
X-40994360Y-37069236D01*
X-41054088Y-36938451D01*
X-41116484Y-36841361D01*
X-41210638Y-36732700D01*
X-41297865Y-36657117D01*
X-41369329Y-36611190D01*
X-41418818Y-36579385D01*
X-41523805Y-36531439D01*
X-41661751Y-36490935D01*
X-41661756Y-36490933D01*
X-41661759Y-36490933D01*
X-41704991Y-36484717D01*
X-41769570Y-36455225D01*
X-41807954Y-36395498D01*
X-41807954Y-36324502D01*
X-41769571Y-36264776D01*
X-41704990Y-36235283D01*
X-41704990Y-36235282D01*
X-41661759Y-36229067D01*
X-41523804Y-36188560D01*
X-41418819Y-36140615D01*
X-41297865Y-36062883D01*
X-41210638Y-35987300D01*
X-41116484Y-35878639D01*
X-41054088Y-35781549D01*
X-40994360Y-35650764D01*
X-40961843Y-35540023D01*
X-40941381Y-35397708D01*
X-40941381Y-35282293D01*
X-40941702Y-35277806D01*
X-40941569Y-35277796D01*
X-40942396Y-35266222D01*
X-40942396Y-34944512D01*
X-40922394Y-34876391D01*
X-40905496Y-34855421D01*
X-40414608Y-34364532D01*
X-40393630Y-34347629D01*
X-40389760Y-34345143D01*
X-40355802Y-34305951D01*
X-40352762Y-34302686D01*
X-40341667Y-34291593D01*
X-40332275Y-34279045D01*
X-40329456Y-34275547D01*
X-40324040Y-34269296D01*
X-40295511Y-34236373D01*
X-40293599Y-34232183D01*
X-40279852Y-34209017D01*
X-40277092Y-34205331D01*
X-40258970Y-34156739D01*
X-40257272Y-34152640D01*
X-40235723Y-34105457D01*
X-40235069Y-34100901D01*
X-40228405Y-34074791D01*
X-40226797Y-34070483D01*
X-40223099Y-34018770D01*
X-40222623Y-34014338D01*
X-40220388Y-33998799D01*
X-40220388Y-33983130D01*
X-40220227Y-33978634D01*
X-40218445Y-33953708D01*
X-40216529Y-33926927D01*
X-40217509Y-33922425D01*
X-40220389Y-33895649D01*
X-40220389Y-29820950D01*
X-40200387Y-29752830D01*
X-40183489Y-29731861D01*
X-29672610Y-19220982D01*
X-29651632Y-19204079D01*
X-29647760Y-19201591D01*
X-29613802Y-19162399D01*
X-29610762Y-19159134D01*
X-29599667Y-19148041D01*
X-29590275Y-19135493D01*
X-29587456Y-19131995D01*
X-29582040Y-19125744D01*
X-29553511Y-19092821D01*
X-29551599Y-19088631D01*
X-29537852Y-19065465D01*
X-29535092Y-19061779D01*
X-29516970Y-19013187D01*
X-29515272Y-19009088D01*
X-29493723Y-18961905D01*
X-29493069Y-18957349D01*
X-29486405Y-18931239D01*
X-29484797Y-18926931D01*
X-29481099Y-18875218D01*
X-29480623Y-18870786D01*
X-29478388Y-18855247D01*
X-29478388Y-18839579D01*
X-29478227Y-18835082D01*
X-29474529Y-18783374D01*
X-29475508Y-18778877D01*
X-29478389Y-18752085D01*
X-29478389Y-13917225D01*
X-29478389Y-9167299D01*
X-29458387Y-9099182D01*
X-29404731Y-9052689D01*
X-29394004Y-9048374D01*
X-29359327Y-9036239D01*
X-29256866Y-9000387D01*
X-29104126Y-8904414D01*
X-28976572Y-8776860D01*
X-28880599Y-8624120D01*
X-28821020Y-8453853D01*
X-28800823Y-8274598D01*
X-28800824Y-8274595D01*
X-28800046Y-8267697D01*
X-28772542Y-8202244D01*
X-28714019Y-8162051D01*
X-28660737Y-8156596D01*
X-28527888Y-8171565D01*
X-28348633Y-8151368D01*
X-28208876Y-8102464D01*
X-28137974Y-8098845D01*
X-28078168Y-8132299D01*
G37*
%TD.AperFunction*%
%TA.AperFunction,Conductor*%
G36*
X-47385982Y-24230502D02*
G01*
X-47365008Y-24247405D01*
X-46338554Y-25273858D01*
X-46337089Y-25275374D01*
X-46292568Y-25323044D01*
X-46254785Y-25346019D01*
X-46249464Y-25349641D01*
X-46214230Y-25376361D01*
X-46197690Y-25382883D01*
X-46178459Y-25392435D01*
X-46163270Y-25401672D01*
X-46120685Y-25413603D01*
X-46114588Y-25415654D01*
X-46073452Y-25431876D01*
X-46055771Y-25433693D01*
X-46034671Y-25437704D01*
X-46017553Y-25442500D01*
X-45973341Y-25442500D01*
X-45966893Y-25442831D01*
X-45922918Y-25447352D01*
X-45922918Y-25447351D01*
X-45922916Y-25447352D01*
X-45912532Y-25445561D01*
X-45905399Y-25444332D01*
X-45883992Y-25442500D01*
X-44104433Y-25442500D01*
X-44036312Y-25462502D01*
X-43989820Y-25516157D01*
X-43941691Y-25621544D01*
X-43941688Y-25621549D01*
X-43879292Y-25718639D01*
X-43785138Y-25827300D01*
X-43697911Y-25902883D01*
X-43576957Y-25980615D01*
X-43471972Y-26028560D01*
X-43334017Y-26069067D01*
X-43219777Y-26085492D01*
X-43219773Y-26085492D01*
X-42647892Y-26085492D01*
X-42647888Y-26085492D01*
X-42522584Y-26065646D01*
X-42522580Y-26065643D01*
X-42517601Y-26064855D01*
X-42478178Y-26064855D01*
X-42473196Y-26065644D01*
X-42473192Y-26065646D01*
X-42347888Y-26085492D01*
X-42347885Y-26085492D01*
X-41776003Y-26085492D01*
X-41775999Y-26085492D01*
X-41661759Y-26069067D01*
X-41523804Y-26028560D01*
X-41418819Y-25980615D01*
X-41297865Y-25902883D01*
X-41210638Y-25827300D01*
X-41116484Y-25718639D01*
X-41054088Y-25621549D01*
X-41008220Y-25521114D01*
X-41000476Y-25504157D01*
X-40953983Y-25450502D01*
X-40885863Y-25430500D01*
X-38526840Y-25430500D01*
X-38458719Y-25450502D01*
X-38412226Y-25504158D01*
X-38402122Y-25574432D01*
X-38431616Y-25639012D01*
X-38437745Y-25645595D01*
X-41618319Y-28826167D01*
X-41680631Y-28860193D01*
X-41725343Y-28861790D01*
X-41775999Y-28854508D01*
X-42347888Y-28854508D01*
X-42365497Y-28857296D01*
X-42478180Y-28875143D01*
X-42517599Y-28875143D01*
X-42611994Y-28860193D01*
X-42647888Y-28854508D01*
X-43219777Y-28854508D01*
X-43295937Y-28865457D01*
X-43334019Y-28870933D01*
X-43334026Y-28870935D01*
X-43471972Y-28911439D01*
X-43576959Y-28959385D01*
X-43660459Y-29013048D01*
X-43697911Y-29037117D01*
X-43697913Y-29037118D01*
X-43697918Y-29037122D01*
X-43785138Y-29112699D01*
X-43879290Y-29221358D01*
X-43941688Y-29318450D01*
X-43941691Y-29318455D01*
X-43972466Y-29385843D01*
X-44018959Y-29439499D01*
X-44087079Y-29459500D01*
X-45789402Y-29459500D01*
X-45791553Y-29459463D01*
X-45853783Y-29457338D01*
X-45856714Y-29457238D01*
X-45856715Y-29457238D01*
X-45899670Y-29467705D01*
X-45906010Y-29468910D01*
X-45949801Y-29474928D01*
X-45949813Y-29474931D01*
X-45966120Y-29482014D01*
X-45986475Y-29488858D01*
X-46003734Y-29493064D01*
X-46003743Y-29493067D01*
X-46042276Y-29514733D01*
X-46048054Y-29517603D01*
X-46088608Y-29535219D01*
X-46102402Y-29546441D01*
X-46120155Y-29558524D01*
X-46135650Y-29567236D01*
X-46166908Y-29598494D01*
X-46171698Y-29602816D01*
X-46205994Y-29630719D01*
X-46216252Y-29645250D01*
X-46230090Y-29661675D01*
X-46267276Y-29698861D01*
X-46329588Y-29732887D01*
X-46400403Y-29727822D01*
X-46457239Y-29685275D01*
X-46481293Y-29626212D01*
X-46484844Y-29599239D01*
X-46485152Y-29598494D01*
X-46545352Y-29453159D01*
X-46548362Y-29449236D01*
X-46592715Y-29391433D01*
X-46592715Y-29391432D01*
X-46641605Y-29327719D01*
X-46669833Y-29306058D01*
X-46676027Y-29300626D01*
X-47580522Y-28396131D01*
X-47585948Y-28389943D01*
X-47607606Y-28361718D01*
X-47676685Y-28308711D01*
X-47718552Y-28251375D01*
X-47725981Y-28208654D01*
X-47722945Y-24429500D01*
X-47722870Y-24336399D01*
X-47702813Y-24268294D01*
X-47649120Y-24221844D01*
X-47596870Y-24210500D01*
X-47454103Y-24210500D01*
X-47385982Y-24230502D01*
G37*
%TD.AperFunction*%
%TA.AperFunction,Conductor*%
G36*
X-36343167Y-22872502D02*
G01*
X-36296674Y-22926158D01*
X-36286570Y-22996432D01*
X-36316064Y-23061012D01*
X-36322193Y-23067595D01*
X-37647193Y-24392595D01*
X-37709505Y-24426621D01*
X-37736288Y-24429500D01*
X-40885863Y-24429500D01*
X-40953984Y-24409498D01*
X-41000476Y-24355843D01*
X-41054086Y-24238455D01*
X-41054089Y-24238450D01*
X-41116484Y-24141361D01*
X-41210638Y-24032700D01*
X-41297865Y-23957117D01*
X-41369329Y-23911190D01*
X-41418818Y-23879385D01*
X-41523805Y-23831439D01*
X-41661751Y-23790935D01*
X-41661756Y-23790933D01*
X-41661759Y-23790933D01*
X-41704991Y-23784717D01*
X-41769570Y-23755225D01*
X-41807954Y-23695498D01*
X-41807954Y-23624502D01*
X-41769571Y-23564776D01*
X-41704990Y-23535283D01*
X-41704990Y-23535282D01*
X-41661759Y-23529067D01*
X-41523804Y-23488560D01*
X-41418819Y-23440615D01*
X-41297865Y-23362883D01*
X-41210638Y-23287300D01*
X-41116484Y-23178639D01*
X-41054088Y-23081549D01*
X-40994360Y-22950764D01*
X-40992081Y-22943001D01*
X-40953698Y-22883276D01*
X-40889117Y-22853783D01*
X-40871185Y-22852500D01*
X-36411288Y-22852500D01*
X-36343167Y-22872502D01*
G37*
%TD.AperFunction*%
%TA.AperFunction,Conductor*%
G36*
X-44036312Y-22922502D02*
G01*
X-43989820Y-22976157D01*
X-43941691Y-23081544D01*
X-43941688Y-23081549D01*
X-43879292Y-23178639D01*
X-43785138Y-23287300D01*
X-43697911Y-23362883D01*
X-43576957Y-23440615D01*
X-43471972Y-23488560D01*
X-43334017Y-23529067D01*
X-43334008Y-23529068D01*
X-43334005Y-23529069D01*
X-43290787Y-23535283D01*
X-43226206Y-23564776D01*
X-43187823Y-23624502D01*
X-43187823Y-23695498D01*
X-43226207Y-23755225D01*
X-43290787Y-23784717D01*
X-43334005Y-23790930D01*
X-43334026Y-23790935D01*
X-43471972Y-23831439D01*
X-43576959Y-23879385D01*
X-43675938Y-23942995D01*
X-43697911Y-23957117D01*
X-43697913Y-23957118D01*
X-43697918Y-23957122D01*
X-43785138Y-24032699D01*
X-43879290Y-24141358D01*
X-43941688Y-24238449D01*
X-43955110Y-24267842D01*
X-44001603Y-24321498D01*
X-44069724Y-24341500D01*
X-45661674Y-24341500D01*
X-45729795Y-24321498D01*
X-45750769Y-24304595D01*
X-46243698Y-23811666D01*
X-46777237Y-23278126D01*
X-46778704Y-23276608D01*
X-46823205Y-23228958D01*
X-46823206Y-23228957D01*
X-46831577Y-23223866D01*
X-46860989Y-23205980D01*
X-46866313Y-23202356D01*
X-46901549Y-23175637D01*
X-46918082Y-23169117D01*
X-46937320Y-23159562D01*
X-46952505Y-23150328D01*
X-46952509Y-23150326D01*
X-46954293Y-23149827D01*
X-46955735Y-23148925D01*
X-46960412Y-23146894D01*
X-46960107Y-23146191D01*
X-47014491Y-23112188D01*
X-47044783Y-23047979D01*
X-47035553Y-22977585D01*
X-46989729Y-22923356D01*
X-46921862Y-22902510D01*
X-46920298Y-22902500D01*
X-44104433Y-22902500D01*
X-44036312Y-22922502D01*
G37*
%TD.AperFunction*%
%TA.AperFunction,Conductor*%
G36*
X-31890273Y-8475096D02*
G01*
X-31839057Y-8524263D01*
X-31822389Y-8586893D01*
X-31822389Y-18053152D01*
X-31842391Y-18121273D01*
X-31859294Y-18142247D01*
X-35531641Y-21814595D01*
X-35593953Y-21848621D01*
X-35620736Y-21851500D01*
X-40903217Y-21851500D01*
X-40971338Y-21831498D01*
X-41017830Y-21777843D01*
X-41054086Y-21698455D01*
X-41054089Y-21698450D01*
X-41116484Y-21601361D01*
X-41210638Y-21492700D01*
X-41214723Y-21489160D01*
X-41297859Y-21417122D01*
X-41297860Y-21417121D01*
X-41297865Y-21417117D01*
X-41380956Y-21363718D01*
X-41418818Y-21339385D01*
X-41523805Y-21291439D01*
X-41661751Y-21250935D01*
X-41661758Y-21250933D01*
X-41684607Y-21247648D01*
X-41775999Y-21234508D01*
X-42347888Y-21234508D01*
X-42388610Y-21240957D01*
X-42478178Y-21255143D01*
X-42517598Y-21255143D01*
X-42607167Y-21240957D01*
X-42647888Y-21234508D01*
X-43219777Y-21234508D01*
X-43295938Y-21245457D01*
X-43334019Y-21250933D01*
X-43334026Y-21250935D01*
X-43471972Y-21291439D01*
X-43576959Y-21339385D01*
X-43663829Y-21395214D01*
X-43697911Y-21417117D01*
X-43697913Y-21417118D01*
X-43697918Y-21417122D01*
X-43785138Y-21492699D01*
X-43879290Y-21601358D01*
X-43941688Y-21698449D01*
X-43955110Y-21727842D01*
X-44001603Y-21781498D01*
X-44069724Y-21801500D01*
X-47594734Y-21801500D01*
X-47662855Y-21781498D01*
X-47709348Y-21727842D01*
X-47720734Y-21675399D01*
X-47720702Y-21635238D01*
X-47713672Y-12878958D01*
X-47693615Y-12810856D01*
X-47639922Y-12764406D01*
X-47631716Y-12761011D01*
X-47603537Y-12750502D01*
X-47577109Y-12740646D01*
X-47576387Y-12742584D01*
X-47529047Y-12730500D01*
X-45215687Y-12730500D01*
X-45200018Y-12730500D01*
X-45195522Y-12730661D01*
X-45179341Y-12731817D01*
X-45143815Y-12734359D01*
X-45139315Y-12733379D01*
X-45112530Y-12730500D01*
X-44109913Y-12730500D01*
X-44041792Y-12750502D01*
X-43995300Y-12804157D01*
X-43941691Y-12921544D01*
X-43941688Y-12921549D01*
X-43879292Y-13018639D01*
X-43785138Y-13127300D01*
X-43697911Y-13202883D01*
X-43576957Y-13280615D01*
X-43471972Y-13328560D01*
X-43334017Y-13369067D01*
X-43219777Y-13385492D01*
X-43219773Y-13385492D01*
X-42647891Y-13385492D01*
X-42647888Y-13385492D01*
X-42522584Y-13365646D01*
X-42522580Y-13365643D01*
X-42517599Y-13364855D01*
X-42478177Y-13364855D01*
X-42473197Y-13365643D01*
X-42473192Y-13365646D01*
X-42347888Y-13385492D01*
X-42347885Y-13385492D01*
X-41776003Y-13385492D01*
X-41775999Y-13385492D01*
X-41661759Y-13369067D01*
X-41523804Y-13328560D01*
X-41418819Y-13280615D01*
X-41297865Y-13202883D01*
X-41210638Y-13127300D01*
X-41116484Y-13018639D01*
X-41054088Y-12921549D01*
X-41023694Y-12854996D01*
X-41000476Y-12804157D01*
X-40953983Y-12750502D01*
X-40885863Y-12730500D01*
X-40787246Y-12730500D01*
X-40760462Y-12733379D01*
X-40755961Y-12734359D01*
X-40719623Y-12731759D01*
X-40704254Y-12730661D01*
X-40699758Y-12730500D01*
X-40684090Y-12730500D01*
X-40684089Y-12730500D01*
X-40668550Y-12728265D01*
X-40664118Y-12727789D01*
X-40612405Y-12724091D01*
X-40608097Y-12722483D01*
X-40581987Y-12715819D01*
X-40577431Y-12715165D01*
X-40530248Y-12693616D01*
X-40526149Y-12691918D01*
X-40477557Y-12673796D01*
X-40473871Y-12671036D01*
X-40450705Y-12657289D01*
X-40446515Y-12655377D01*
X-40407341Y-12621432D01*
X-40403843Y-12618613D01*
X-40391295Y-12609221D01*
X-40380202Y-12598126D01*
X-40376937Y-12595086D01*
X-40337745Y-12561128D01*
X-40335257Y-12557256D01*
X-40318358Y-12536282D01*
X-38479477Y-10697402D01*
X-38417167Y-10663379D01*
X-38390384Y-10660500D01*
X-34183246Y-10660500D01*
X-34156462Y-10663379D01*
X-34151961Y-10664359D01*
X-34115623Y-10661759D01*
X-34100254Y-10660661D01*
X-34095758Y-10660500D01*
X-34080090Y-10660500D01*
X-34080089Y-10660500D01*
X-34064550Y-10658265D01*
X-34060118Y-10657789D01*
X-34008405Y-10654091D01*
X-34004097Y-10652483D01*
X-33977987Y-10645819D01*
X-33973431Y-10645165D01*
X-33926248Y-10623616D01*
X-33922149Y-10621918D01*
X-33873557Y-10603796D01*
X-33869871Y-10601036D01*
X-33846705Y-10587289D01*
X-33842515Y-10585377D01*
X-33803341Y-10551432D01*
X-33799843Y-10548613D01*
X-33787295Y-10539221D01*
X-33776202Y-10528126D01*
X-33772937Y-10525086D01*
X-33733745Y-10491128D01*
X-33731257Y-10487256D01*
X-33714354Y-10466278D01*
X-32514416Y-9266340D01*
X-32493438Y-9249437D01*
X-32489566Y-9246949D01*
X-32455608Y-9207757D01*
X-32452568Y-9204492D01*
X-32441473Y-9193399D01*
X-32432081Y-9180851D01*
X-32429262Y-9177353D01*
X-32420554Y-9167303D01*
X-32395317Y-9138179D01*
X-32393405Y-9133989D01*
X-32379658Y-9110823D01*
X-32376898Y-9107137D01*
X-32358776Y-9058545D01*
X-32357078Y-9054446D01*
X-32335529Y-9007263D01*
X-32334875Y-9002707D01*
X-32328211Y-8976597D01*
X-32326603Y-8972289D01*
X-32325357Y-8954862D01*
X-32300547Y-8888342D01*
X-32288780Y-8874761D01*
X-32190878Y-8776860D01*
X-32184185Y-8766209D01*
X-32094908Y-8624124D01*
X-32094905Y-8624120D01*
X-32067316Y-8545274D01*
X-32025941Y-8487587D01*
X-31959941Y-8461424D01*
X-31890273Y-8475096D01*
G37*
%TD.AperFunction*%
%TD*%
%TA.AperFunction,Conductor*%
%TO.N,+5V*%
G36*
X-23594746Y-25203685D02*
G01*
X-23548991Y-25256489D01*
X-23537820Y-25305049D01*
X-23537555Y-25316199D01*
X-23537554Y-25316204D01*
X-23529878Y-25351491D01*
X-23528740Y-25358784D01*
X-23525307Y-25394738D01*
X-23525307Y-25394739D01*
X-23507264Y-25456191D01*
X-23506169Y-25460480D01*
X-23492557Y-25523053D01*
X-23492555Y-25523059D01*
X-23478340Y-25556254D01*
X-23475843Y-25563200D01*
X-23465665Y-25597862D01*
X-23462761Y-25603494D01*
X-23436318Y-25654788D01*
X-23434431Y-25658793D01*
X-23409225Y-25717656D01*
X-23409220Y-25717666D01*
X-23388976Y-25747576D01*
X-23385210Y-25753924D01*
X-23368662Y-25786023D01*
X-23329070Y-25836368D01*
X-23326460Y-25839943D01*
X-23290559Y-25892985D01*
X-23265028Y-25918515D01*
X-23260130Y-25924034D01*
X-23237798Y-25952430D01*
X-23237795Y-25952433D01*
X-23189386Y-25994380D01*
X-23186146Y-25997397D01*
X-20782707Y-28400836D01*
X-20749222Y-28462159D01*
X-20746388Y-28488517D01*
X-20746388Y-37528820D01*
X-20766073Y-37595859D01*
X-20782707Y-37616501D01*
X-21683387Y-38517181D01*
X-21744710Y-38550666D01*
X-21771068Y-38553500D01*
X-26201370Y-38553500D01*
X-26268409Y-38533815D01*
X-26289051Y-38517181D01*
X-28687296Y-36118936D01*
X-28700626Y-36103177D01*
X-28702330Y-36100784D01*
X-28702331Y-36100783D01*
X-28768859Y-36037349D01*
X-28769914Y-36036318D01*
X-28797393Y-36008839D01*
X-28797397Y-36008835D01*
X-28805888Y-36001824D01*
X-28809189Y-35998894D01*
X-28855540Y-35954699D01*
X-28855542Y-35954697D01*
X-28860582Y-35951458D01*
X-28885931Y-35935166D01*
X-28891890Y-35930815D01*
X-28919733Y-35907826D01*
X-28919739Y-35907821D01*
X-28971317Y-35879657D01*
X-29020721Y-35830253D01*
X-29035888Y-35770829D01*
X-29035888Y-35341000D01*
X-29016203Y-35273960D01*
X-28963399Y-35228206D01*
X-28911888Y-35217000D01*
X-24971888Y-35217000D01*
X-24971888Y-26229271D01*
X-24958798Y-26173819D01*
X-24498160Y-25252543D01*
X-24450574Y-25201387D01*
X-24387252Y-25184000D01*
X-23661785Y-25184000D01*
X-23594746Y-25203685D01*
G37*
%TD.AperFunction*%
%TD*%
%TA.AperFunction,Conductor*%
%TO.N,+12V*%
G36*
X-17005331Y-10598685D02*
G01*
X-16959576Y-10651489D01*
X-16949632Y-10720647D01*
X-16956188Y-10746334D01*
X-16967486Y-10776623D01*
X-16967487Y-10776627D01*
X-16973888Y-10836155D01*
X-16973888Y-12834000D01*
X-15973888Y-12834000D01*
X-15973888Y-13334000D01*
X-16973888Y-13334000D01*
X-16973888Y-15331844D01*
X-16967487Y-15391372D01*
X-16967485Y-15391379D01*
X-16917243Y-15526086D01*
X-16917239Y-15526093D01*
X-16831079Y-15641187D01*
X-16831076Y-15641190D01*
X-16715982Y-15727350D01*
X-16715975Y-15727354D01*
X-16581268Y-15777596D01*
X-16581261Y-15777598D01*
X-16521733Y-15783999D01*
X-16521716Y-15784000D01*
X-15823888Y-15784000D01*
X-15823888Y-14699686D01*
X-15811933Y-14711641D01*
X-15699036Y-14769165D01*
X-15573888Y-14788986D01*
X-15448740Y-14769165D01*
X-15335843Y-14711641D01*
X-15323888Y-14699686D01*
X-15323888Y-15784000D01*
X-14626060Y-15784000D01*
X-14626044Y-15783999D01*
X-14566521Y-15777598D01*
X-14565763Y-15777420D01*
X-14565158Y-15777452D01*
X-14558801Y-15776769D01*
X-14558691Y-15777798D01*
X-14495993Y-15781156D01*
X-14439983Y-15821540D01*
X-14439077Y-15821634D01*
X-13850662Y-15233219D01*
X-13811987Y-15326588D01*
X-13715813Y-15451925D01*
X-13590476Y-15548099D01*
X-13497109Y-15586772D01*
X-14086689Y-16176351D01*
X-14056238Y-16200050D01*
X-13852191Y-16310476D01*
X-13852182Y-16310479D01*
X-13632749Y-16385811D01*
X-13403895Y-16424000D01*
X-13171881Y-16424000D01*
X-12943028Y-16385811D01*
X-12723595Y-16310479D01*
X-12723586Y-16310476D01*
X-12519538Y-16200050D01*
X-12489090Y-16176351D01*
X-13078668Y-15586773D01*
X-12985300Y-15548099D01*
X-12859963Y-15451925D01*
X-12763789Y-15326589D01*
X-12725115Y-15233219D01*
X-12136702Y-15821634D01*
X-12052404Y-15692606D01*
X-11959206Y-15480135D01*
X-11902250Y-15255218D01*
X-11883090Y-15024005D01*
X-11883090Y-15023994D01*
X-11902250Y-14792781D01*
X-11959206Y-14567864D01*
X-12052405Y-14355390D01*
X-12136702Y-14226364D01*
X-12725116Y-14814778D01*
X-12763789Y-14721412D01*
X-12859963Y-14596075D01*
X-12985300Y-14499901D01*
X-13078669Y-14461226D01*
X-12489089Y-13871647D01*
X-12519539Y-13847949D01*
X-12723586Y-13737523D01*
X-12723595Y-13737520D01*
X-12943028Y-13662188D01*
X-13171881Y-13624000D01*
X-13403895Y-13624000D01*
X-13632749Y-13662188D01*
X-13852182Y-13737520D01*
X-13852196Y-13737526D01*
X-13990871Y-13812573D01*
X-14059199Y-13827168D01*
X-14124571Y-13802505D01*
X-14166232Y-13746414D01*
X-14173888Y-13703518D01*
X-14173888Y-13334000D01*
X-15173888Y-13334000D01*
X-15173888Y-12834000D01*
X-14173888Y-12834000D01*
X-14173888Y-12746500D01*
X-14154203Y-12679461D01*
X-14101399Y-12633706D01*
X-14049888Y-12622500D01*
X-12819750Y-12622500D01*
X-12752711Y-12642185D01*
X-12732069Y-12658819D01*
X-11217706Y-14173182D01*
X-11184221Y-14234505D01*
X-11181834Y-14250347D01*
X-11167149Y-14422893D01*
X-11106733Y-14654923D01*
X-11076678Y-14721411D01*
X-11012896Y-14862514D01*
X-11001888Y-14913588D01*
X-11001888Y-19853000D01*
X-11021573Y-19920039D01*
X-11074377Y-19965794D01*
X-11125888Y-19977000D01*
X-13417888Y-19977000D01*
X-13484927Y-19957315D01*
X-13530682Y-19904511D01*
X-13541888Y-19853000D01*
X-13541888Y-18199000D01*
X-16792526Y-18199000D01*
X-16859565Y-18179315D01*
X-16880207Y-18162681D01*
X-18331569Y-16711319D01*
X-18365054Y-16649996D01*
X-18367888Y-16623638D01*
X-18367888Y-10703000D01*
X-18348203Y-10635961D01*
X-18295399Y-10590206D01*
X-18243888Y-10579000D01*
X-17072370Y-10579000D01*
X-17005331Y-10598685D01*
G37*
%TD.AperFunction*%
%TD*%
M02*
