M48
; DRILL file {KiCad 7.0.5-0} date 2023 July 13, Thursday 17:44:08
; FORMAT={-:-/ absolute / inch / decimal}
; #@! TF.CreationDate,2023-07-13T17:44:08+01:00
; #@! TF.GenerationSoftware,Kicad,Pcbnew,7.0.5-0
; #@! TF.FileFunction,Plated,1,2,PTH
FMAT,2
INCH
; #@! TA.AperFunction,Plated,PTH,ViaDrill
T1C0.0157
; #@! TA.AperFunction,Plated,PTH,ComponentDrill
T2C0.0315
; #@! TA.AperFunction,Plated,PTH,ComponentDrill
T3C0.0394
; #@! TA.AperFunction,Plated,PTH,ComponentDrill
T4C0.0472
%
G90
G05
T1
X-2.2531Y-0.2015
X-2.2531Y-0.3815
X-2.2531Y-0.5415
X-2.2531Y-0.9315
X-2.2531Y-1.7915
X-2.1231Y-1.9415
X-2.0831Y-0.0415
X-1.9531Y-0.1815
X-1.9131Y-1.8115
X-1.8631Y-1.42
X-1.8531Y-1.202
X-1.8531Y-1.8715
X-1.8331Y-0.5315
X-1.8231Y-0.6715
X-1.8031Y-0.3015
X-1.8031Y-0.8315
X-1.8031Y-1.9365
X-1.7931Y-0.6015
X-1.7931Y-0.9315
X-1.7931Y-1.0415
X-1.7731Y-1.1515
X-1.7631Y-0.4415
X-1.7631Y-1.872
X-1.7431Y-0.0415
X-1.7331Y-0.5615
X-1.7131Y-0.7415
X-1.6631Y-0.2315
X-1.6331Y-0.6415
X-1.6231Y-0.7915
X-1.5731Y-0.3115
X-1.5731Y-1.4115
X-1.5631Y-0.9415
X-1.5531Y-0.5015
X-1.5431Y-0.8415
X-1.5431Y-1.9315
X-1.5331Y-1.1515
X-1.5231Y-0.7215
X-1.4931Y-1.3415
X-1.4831Y-0.2315
X-1.4531Y-0.8315
X-1.4431Y-0.4715
X-1.4431Y-0.6215
X-1.4431Y-1.6815
X-1.3831Y-1.0415
X-1.3731Y-0.3015
X-1.3631Y-0.0915
X-1.3631Y-0.7415
X-1.3131Y-0.6515
X-1.3031Y-0.4515
X-1.3031Y-0.5415
X-1.2922Y-0.3258
X-1.2531Y-0.8915
X-1.2331Y-0.2315
X-1.1831Y-1.2415
X-1.1656Y-0.3258
X-1.1631Y-1.0215
X-1.1431Y-0.4515
X-1.1431Y-0.7415
X-1.1231Y-0.29
X-1.1031Y-1.5915
X-1.081Y-0.3
X-1.0531Y-1.2415
X-1.0369Y-0.2662
X-1.0331Y-1.7415
X-1.0231Y-0.7115
X-1.0231Y-0.9615
X-1.0199Y-0.3233
X-1.0131Y-0.4515
X-0.9331Y-0.2515
X-0.9131Y-0.4515
X-0.8831Y-1.3715
X-0.8831Y-1.4515
X-0.8731Y-1.3215
X-0.8631Y-1.1415
X-0.8631Y-1.2015
X-0.8481Y-1.2765
X-0.8431Y-1.4015
X-0.8231Y-1.9015
X-0.8131Y-0.8315
X-0.8131Y-1.7215
X-0.8081Y-0.7215
X-0.7931Y-0.1815
X-0.7831Y-1.8715
X-0.7731Y-0.0615
X-0.7731Y-0.9915
X-0.7631Y-0.1215
X-0.7631Y-0.3115
X-0.7631Y-0.4415
X-0.7631Y-0.6015
X-0.7331Y-1.9415
X-0.7031Y-0.1215
X-0.6931Y-0.5865
X-0.668Y-0.9684
X-0.6631Y-1.0615
X-0.6431Y-0.6615
X-0.6231Y-1.9315
X-0.6131Y-1.0815
X-0.5381Y-0.0465
X-0.5331Y-1.7815
X-0.5231Y-1.9215
X-0.5131Y-0.2165
X-0.5031Y-1.72
X-0.4931Y-0.6915
X-0.4481Y-0.4315
X-0.3731Y-1.4415
X-0.3731Y-1.5115
X-0.3731Y-1.5815
X-0.3731Y-1.6515
X-0.3681Y-0.3815
X-0.3631Y-1.7815
X-0.3581Y-0.2765
X-0.3531Y-0.7015
X-0.3531Y-0.7815
X-0.3531Y-0.8915
T3
X-2.1054Y-0.2843
X-2.1054Y-0.3843
X-2.1054Y-0.4843
X-2.1054Y-0.5843
X-2.1054Y-0.6843
X-2.1054Y-0.7843
X-2.1054Y-0.8843
X-2.1054Y-0.9843
X-2.1054Y-1.0843
X-2.1054Y-1.1843
X-2.1054Y-1.2843
X-2.1054Y-1.3843
X-2.1054Y-1.4843
X-2.1054Y-1.5843
X-2.1054Y-1.6843
X-2.0054Y-0.2843
X-2.0054Y-0.3843
X-2.0054Y-0.4843
X-2.0054Y-0.5843
X-2.0054Y-0.6843
X-2.0054Y-0.7843
X-2.0054Y-0.8843
X-2.0054Y-0.9843
X-2.0054Y-1.0843
X-2.0054Y-1.1843
X-2.0054Y-1.2843
X-2.0054Y-1.3843
X-2.0054Y-1.4843
X-2.0054Y-1.5843
X-2.0054Y-1.6843
T4
X-1.5318Y-1.8228
X-1.3818Y-1.8228
X-1.2318Y-1.8228
X-1.0818Y-1.8228
X-0.5231Y-0.4415
X-0.5231Y-0.5915
T2
G00X-0.6131Y-0.5663
M15
G01X-0.6131Y-0.4639
M16
G05
G00X-0.4517Y-0.3261
M15
G01X-0.5383Y-0.3261
M16
G05
G00X-0.3848Y-0.5584
M15
G01X-0.3848Y-0.4718
M16
G05
T0
M30
