%TF.GenerationSoftware,KiCad,Pcbnew,7.0.5-0*%
%TF.CreationDate,2023-07-13T17:44:08+01:00*%
%TF.ProjectId,M5-Notecard,4d352d4e-6f74-4656-9361-72642e6b6963,V01L04*%
%TF.SameCoordinates,Original*%
%TF.FileFunction,Legend,Top*%
%TF.FilePolarity,Positive*%
%FSLAX46Y46*%
G04 Gerber Fmt 4.6, Leading zero omitted, Abs format (unit mm)*
G04 Created by KiCad (PCBNEW 7.0.5-0) date 2023-07-13 17:44:08*
%MOMM*%
%LPD*%
G01*
G04 APERTURE LIST*
G04 Aperture macros list*
%AMRoundRect*
0 Rectangle with rounded corners*
0 $1 Rounding radius*
0 $2 $3 $4 $5 $6 $7 $8 $9 X,Y pos of 4 corners*
0 Add a 4 corners polygon primitive as box body*
4,1,4,$2,$3,$4,$5,$6,$7,$8,$9,$2,$3,0*
0 Add four circle primitives for the rounded corners*
1,1,$1+$1,$2,$3*
1,1,$1+$1,$4,$5*
1,1,$1+$1,$6,$7*
1,1,$1+$1,$8,$9*
0 Add four rect primitives between the rounded corners*
20,1,$1+$1,$2,$3,$4,$5,0*
20,1,$1+$1,$4,$5,$6,$7,0*
20,1,$1+$1,$6,$7,$8,$9,0*
20,1,$1+$1,$8,$9,$2,$3,0*%
%AMFreePoly0*
4,1,13,0.535355,0.535355,0.550000,0.500000,0.550000,-0.500000,0.535355,-0.535355,0.500000,-0.550000,-2.500000,-0.550000,-2.535355,-0.535355,-2.550000,-0.500000,-2.550000,0.500000,-2.535355,0.535355,-2.500000,0.550000,0.500000,0.550000,0.535355,0.535355,0.535355,0.535355,$1*%
G04 Aperture macros list end*
%ADD10C,0.150000*%
%ADD11C,0.254000*%
%ADD12C,0.200000*%
%ADD13C,0.120000*%
%ADD14C,0.127000*%
%ADD15RoundRect,0.050000X-0.900000X0.900000X-0.900000X-0.900000X0.900000X-0.900000X0.900000X0.900000X0*%
%ADD16C,1.900000*%
%ADD17RoundRect,0.050000X0.900000X-2.200000X0.900000X2.200000X-0.900000X2.200000X-0.900000X-2.200000X0*%
%ADD18O,1.900000X4.100000*%
%ADD19O,4.100000X1.900000*%
%ADD20RoundRect,0.050000X0.900000X0.900000X-0.900000X0.900000X-0.900000X-0.900000X0.900000X-0.900000X0*%
%ADD21C,2.300000*%
%ADD22C,1.800000*%
%ADD23FreePoly0,0.000000*%
%ADD24FreePoly0,180.000000*%
%ADD25C,1.100000*%
%ADD26RoundRect,0.287500X-0.300000X-0.237500X0.300000X-0.237500X0.300000X0.237500X-0.300000X0.237500X0*%
%ADD27RoundRect,0.200000X0.150000X0.625000X-0.150000X0.625000X-0.150000X-0.625000X0.150000X-0.625000X0*%
%ADD28RoundRect,0.300000X0.350000X0.650000X-0.350000X0.650000X-0.350000X-0.650000X0.350000X-0.650000X0*%
%ADD29RoundRect,0.300000X-0.325000X-0.650000X0.325000X-0.650000X0.325000X0.650000X-0.325000X0.650000X0*%
%ADD30RoundRect,0.287500X-0.250000X-0.237500X0.250000X-0.237500X0.250000X0.237500X-0.250000X0.237500X0*%
%ADD31RoundRect,0.287500X-0.237500X0.300000X-0.237500X-0.300000X0.237500X-0.300000X0.237500X0.300000X0*%
%ADD32RoundRect,0.287500X0.237500X-0.300000X0.237500X0.300000X-0.237500X0.300000X-0.237500X-0.300000X0*%
%ADD33C,1.250000*%
%ADD34C,1.750000*%
%ADD35RoundRect,0.050000X-0.150000X-0.775000X0.150000X-0.775000X0.150000X0.775000X-0.150000X0.775000X0*%
%ADD36RoundRect,0.050000X-0.600000X-1.375000X0.600000X-1.375000X0.600000X1.375000X-0.600000X1.375000X0*%
%ADD37C,3.300000*%
%ADD38RoundRect,0.050000X0.925000X2.350000X-0.925000X2.350000X-0.925000X-2.350000X0.925000X-2.350000X0*%
%ADD39RoundRect,0.050000X-0.325000X-0.762500X0.325000X-0.762500X0.325000X0.762500X-0.325000X0.762500X0*%
%ADD40RoundRect,0.050000X-1.550000X1.300000X-1.550000X-1.300000X1.550000X-1.300000X1.550000X1.300000X0*%
%ADD41RoundRect,0.200000X-0.825000X-0.150000X0.825000X-0.150000X0.825000X0.150000X-0.825000X0.150000X0*%
%ADD42RoundRect,0.300000X0.325000X0.650000X-0.325000X0.650000X-0.325000X-0.650000X0.325000X-0.650000X0*%
%ADD43RoundRect,0.200000X0.150000X-0.587500X0.150000X0.587500X-0.150000X0.587500X-0.150000X-0.587500X0*%
%ADD44C,6.100000*%
G04 APERTURE END LIST*
D10*
%TO.C,J5*%
X-18619069Y-13417333D02*
X-17904784Y-13417333D01*
X-17904784Y-13417333D02*
X-17761927Y-13464952D01*
X-17761927Y-13464952D02*
X-17666688Y-13560190D01*
X-17666688Y-13560190D02*
X-17619069Y-13703047D01*
X-17619069Y-13703047D02*
X-17619069Y-13798285D01*
X-18619069Y-12464952D02*
X-18619069Y-12941142D01*
X-18619069Y-12941142D02*
X-18142879Y-12988761D01*
X-18142879Y-12988761D02*
X-18190498Y-12941142D01*
X-18190498Y-12941142D02*
X-18238117Y-12845904D01*
X-18238117Y-12845904D02*
X-18238117Y-12607809D01*
X-18238117Y-12607809D02*
X-18190498Y-12512571D01*
X-18190498Y-12512571D02*
X-18142879Y-12464952D01*
X-18142879Y-12464952D02*
X-18047641Y-12417333D01*
X-18047641Y-12417333D02*
X-17809546Y-12417333D01*
X-17809546Y-12417333D02*
X-17714308Y-12464952D01*
X-17714308Y-12464952D02*
X-17666688Y-12512571D01*
X-17666688Y-12512571D02*
X-17619069Y-12607809D01*
X-17619069Y-12607809D02*
X-17619069Y-12845904D01*
X-17619069Y-12845904D02*
X-17666688Y-12941142D01*
X-17666688Y-12941142D02*
X-17714308Y-12988761D01*
%TO.C,J7*%
X-26575222Y-42926819D02*
X-26575222Y-43641104D01*
X-26575222Y-43641104D02*
X-26622841Y-43783961D01*
X-26622841Y-43783961D02*
X-26718079Y-43879200D01*
X-26718079Y-43879200D02*
X-26860936Y-43926819D01*
X-26860936Y-43926819D02*
X-26956174Y-43926819D01*
X-26194269Y-42926819D02*
X-25527603Y-42926819D01*
X-25527603Y-42926819D02*
X-25956174Y-43926819D01*
%TO.C,J1*%
X-52441222Y-4554819D02*
X-52441222Y-5269104D01*
X-52441222Y-5269104D02*
X-52488841Y-5411961D01*
X-52488841Y-5411961D02*
X-52584079Y-5507200D01*
X-52584079Y-5507200D02*
X-52726936Y-5554819D01*
X-52726936Y-5554819D02*
X-52822174Y-5554819D01*
X-51441222Y-5554819D02*
X-52012650Y-5554819D01*
X-51726936Y-5554819D02*
X-51726936Y-4554819D01*
X-51726936Y-4554819D02*
X-51822174Y-4697676D01*
X-51822174Y-4697676D02*
X-51917412Y-4792914D01*
X-51917412Y-4792914D02*
X-52012650Y-4840533D01*
X-56354668Y-6722438D02*
X-56449906Y-6674819D01*
X-56449906Y-6674819D02*
X-56592763Y-6674819D01*
X-56592763Y-6674819D02*
X-56735620Y-6722438D01*
X-56735620Y-6722438D02*
X-56830858Y-6817676D01*
X-56830858Y-6817676D02*
X-56878477Y-6912914D01*
X-56878477Y-6912914D02*
X-56926096Y-7103390D01*
X-56926096Y-7103390D02*
X-56926096Y-7246247D01*
X-56926096Y-7246247D02*
X-56878477Y-7436723D01*
X-56878477Y-7436723D02*
X-56830858Y-7531961D01*
X-56830858Y-7531961D02*
X-56735620Y-7627200D01*
X-56735620Y-7627200D02*
X-56592763Y-7674819D01*
X-56592763Y-7674819D02*
X-56497525Y-7674819D01*
X-56497525Y-7674819D02*
X-56354668Y-7627200D01*
X-56354668Y-7627200D02*
X-56307049Y-7579580D01*
X-56307049Y-7579580D02*
X-56307049Y-7246247D01*
X-56307049Y-7246247D02*
X-56497525Y-7246247D01*
X-56926096Y-21914819D02*
X-56307049Y-21914819D01*
X-56307049Y-21914819D02*
X-56640382Y-22295771D01*
X-56640382Y-22295771D02*
X-56497525Y-22295771D01*
X-56497525Y-22295771D02*
X-56402287Y-22343390D01*
X-56402287Y-22343390D02*
X-56354668Y-22391009D01*
X-56354668Y-22391009D02*
X-56307049Y-22486247D01*
X-56307049Y-22486247D02*
X-56307049Y-22724342D01*
X-56307049Y-22724342D02*
X-56354668Y-22819580D01*
X-56354668Y-22819580D02*
X-56402287Y-22867200D01*
X-56402287Y-22867200D02*
X-56497525Y-22914819D01*
X-56497525Y-22914819D02*
X-56783239Y-22914819D01*
X-56783239Y-22914819D02*
X-56878477Y-22867200D01*
X-56878477Y-22867200D02*
X-56926096Y-22819580D01*
X-57926096Y-40694819D02*
X-57926096Y-39694819D01*
X-57926096Y-40171009D02*
X-57354668Y-40171009D01*
X-57354668Y-40694819D02*
X-57354668Y-39694819D01*
X-56878477Y-40694819D02*
X-56878477Y-39694819D01*
X-56878477Y-39694819D02*
X-56497525Y-39694819D01*
X-56497525Y-39694819D02*
X-56402287Y-39742438D01*
X-56402287Y-39742438D02*
X-56354668Y-39790057D01*
X-56354668Y-39790057D02*
X-56307049Y-39885295D01*
X-56307049Y-39885295D02*
X-56307049Y-40028152D01*
X-56307049Y-40028152D02*
X-56354668Y-40123390D01*
X-56354668Y-40123390D02*
X-56402287Y-40171009D01*
X-56402287Y-40171009D02*
X-56497525Y-40218628D01*
X-56497525Y-40218628D02*
X-56878477Y-40218628D01*
X-56354668Y-11802438D02*
X-56449906Y-11754819D01*
X-56449906Y-11754819D02*
X-56592763Y-11754819D01*
X-56592763Y-11754819D02*
X-56735620Y-11802438D01*
X-56735620Y-11802438D02*
X-56830858Y-11897676D01*
X-56830858Y-11897676D02*
X-56878477Y-11992914D01*
X-56878477Y-11992914D02*
X-56926096Y-12183390D01*
X-56926096Y-12183390D02*
X-56926096Y-12326247D01*
X-56926096Y-12326247D02*
X-56878477Y-12516723D01*
X-56878477Y-12516723D02*
X-56830858Y-12611961D01*
X-56830858Y-12611961D02*
X-56735620Y-12707200D01*
X-56735620Y-12707200D02*
X-56592763Y-12754819D01*
X-56592763Y-12754819D02*
X-56497525Y-12754819D01*
X-56497525Y-12754819D02*
X-56354668Y-12707200D01*
X-56354668Y-12707200D02*
X-56307049Y-12659580D01*
X-56307049Y-12659580D02*
X-56307049Y-12326247D01*
X-56307049Y-12326247D02*
X-56497525Y-12326247D01*
X-48156347Y-19374819D02*
X-47537300Y-19374819D01*
X-47537300Y-19374819D02*
X-47870633Y-19755771D01*
X-47870633Y-19755771D02*
X-47727776Y-19755771D01*
X-47727776Y-19755771D02*
X-47632538Y-19803390D01*
X-47632538Y-19803390D02*
X-47584919Y-19851009D01*
X-47584919Y-19851009D02*
X-47537300Y-19946247D01*
X-47537300Y-19946247D02*
X-47537300Y-20184342D01*
X-47537300Y-20184342D02*
X-47584919Y-20279580D01*
X-47584919Y-20279580D02*
X-47632538Y-20327200D01*
X-47632538Y-20327200D02*
X-47727776Y-20374819D01*
X-47727776Y-20374819D02*
X-48013490Y-20374819D01*
X-48013490Y-20374819D02*
X-48108728Y-20327200D01*
X-48108728Y-20327200D02*
X-48156347Y-20279580D01*
X-47251585Y-19374819D02*
X-46918252Y-20374819D01*
X-46918252Y-20374819D02*
X-46584919Y-19374819D01*
X-46346823Y-19374819D02*
X-45727776Y-19374819D01*
X-45727776Y-19374819D02*
X-46061109Y-19755771D01*
X-46061109Y-19755771D02*
X-45918252Y-19755771D01*
X-45918252Y-19755771D02*
X-45823014Y-19803390D01*
X-45823014Y-19803390D02*
X-45775395Y-19851009D01*
X-45775395Y-19851009D02*
X-45727776Y-19946247D01*
X-45727776Y-19946247D02*
X-45727776Y-20184342D01*
X-45727776Y-20184342D02*
X-45775395Y-20279580D01*
X-45775395Y-20279580D02*
X-45823014Y-20327200D01*
X-45823014Y-20327200D02*
X-45918252Y-20374819D01*
X-45918252Y-20374819D02*
X-46203966Y-20374819D01*
X-46203966Y-20374819D02*
X-46299204Y-20327200D01*
X-46299204Y-20327200D02*
X-46346823Y-20279580D01*
X-48108728Y-14390057D02*
X-48061109Y-14342438D01*
X-48061109Y-14342438D02*
X-47965871Y-14294819D01*
X-47965871Y-14294819D02*
X-47727776Y-14294819D01*
X-47727776Y-14294819D02*
X-47632538Y-14342438D01*
X-47632538Y-14342438D02*
X-47584919Y-14390057D01*
X-47584919Y-14390057D02*
X-47537300Y-14485295D01*
X-47537300Y-14485295D02*
X-47537300Y-14580533D01*
X-47537300Y-14580533D02*
X-47584919Y-14723390D01*
X-47584919Y-14723390D02*
X-48156347Y-15294819D01*
X-48156347Y-15294819D02*
X-47537300Y-15294819D01*
X-46632538Y-14294819D02*
X-47108728Y-14294819D01*
X-47108728Y-14294819D02*
X-47156347Y-14771009D01*
X-47156347Y-14771009D02*
X-47108728Y-14723390D01*
X-47108728Y-14723390D02*
X-47013490Y-14675771D01*
X-47013490Y-14675771D02*
X-46775395Y-14675771D01*
X-46775395Y-14675771D02*
X-46680157Y-14723390D01*
X-46680157Y-14723390D02*
X-46632538Y-14771009D01*
X-46632538Y-14771009D02*
X-46584919Y-14866247D01*
X-46584919Y-14866247D02*
X-46584919Y-15104342D01*
X-46584919Y-15104342D02*
X-46632538Y-15199580D01*
X-46632538Y-15199580D02*
X-46680157Y-15247200D01*
X-46680157Y-15247200D02*
X-46775395Y-15294819D01*
X-46775395Y-15294819D02*
X-47013490Y-15294819D01*
X-47013490Y-15294819D02*
X-47108728Y-15247200D01*
X-47108728Y-15247200D02*
X-47156347Y-15199580D01*
X-48066347Y-7112819D02*
X-47447300Y-7112819D01*
X-47447300Y-7112819D02*
X-47780633Y-7493771D01*
X-47780633Y-7493771D02*
X-47637776Y-7493771D01*
X-47637776Y-7493771D02*
X-47542538Y-7541390D01*
X-47542538Y-7541390D02*
X-47494919Y-7589009D01*
X-47494919Y-7589009D02*
X-47447300Y-7684247D01*
X-47447300Y-7684247D02*
X-47447300Y-7922342D01*
X-47447300Y-7922342D02*
X-47494919Y-8017580D01*
X-47494919Y-8017580D02*
X-47542538Y-8065200D01*
X-47542538Y-8065200D02*
X-47637776Y-8112819D01*
X-47637776Y-8112819D02*
X-47923490Y-8112819D01*
X-47923490Y-8112819D02*
X-48018728Y-8065200D01*
X-48018728Y-8065200D02*
X-48066347Y-8017580D01*
X-46542538Y-7112819D02*
X-47018728Y-7112819D01*
X-47018728Y-7112819D02*
X-47066347Y-7589009D01*
X-47066347Y-7589009D02*
X-47018728Y-7541390D01*
X-47018728Y-7541390D02*
X-46923490Y-7493771D01*
X-46923490Y-7493771D02*
X-46685395Y-7493771D01*
X-46685395Y-7493771D02*
X-46590157Y-7541390D01*
X-46590157Y-7541390D02*
X-46542538Y-7589009D01*
X-46542538Y-7589009D02*
X-46494919Y-7684247D01*
X-46494919Y-7684247D02*
X-46494919Y-7922342D01*
X-46494919Y-7922342D02*
X-46542538Y-8017580D01*
X-46542538Y-8017580D02*
X-46590157Y-8065200D01*
X-46590157Y-8065200D02*
X-46685395Y-8112819D01*
X-46685395Y-8112819D02*
X-46923490Y-8112819D01*
X-46923490Y-8112819D02*
X-47018728Y-8065200D01*
X-47018728Y-8065200D02*
X-47066347Y-8017580D01*
X-57830858Y-27090057D02*
X-57783239Y-27042438D01*
X-57783239Y-27042438D02*
X-57688001Y-26994819D01*
X-57688001Y-26994819D02*
X-57449906Y-26994819D01*
X-57449906Y-26994819D02*
X-57354668Y-27042438D01*
X-57354668Y-27042438D02*
X-57307049Y-27090057D01*
X-57307049Y-27090057D02*
X-57259430Y-27185295D01*
X-57259430Y-27185295D02*
X-57259430Y-27280533D01*
X-57259430Y-27280533D02*
X-57307049Y-27423390D01*
X-57307049Y-27423390D02*
X-57878477Y-27994819D01*
X-57878477Y-27994819D02*
X-57259430Y-27994819D01*
X-56307049Y-27994819D02*
X-56878477Y-27994819D01*
X-56592763Y-27994819D02*
X-56592763Y-26994819D01*
X-56592763Y-26994819D02*
X-56688001Y-27137676D01*
X-56688001Y-27137676D02*
X-56783239Y-27232914D01*
X-56783239Y-27232914D02*
X-56878477Y-27280533D01*
X-48108728Y-27090057D02*
X-48061109Y-27042438D01*
X-48061109Y-27042438D02*
X-47965871Y-26994819D01*
X-47965871Y-26994819D02*
X-47727776Y-26994819D01*
X-47727776Y-26994819D02*
X-47632538Y-27042438D01*
X-47632538Y-27042438D02*
X-47584919Y-27090057D01*
X-47584919Y-27090057D02*
X-47537300Y-27185295D01*
X-47537300Y-27185295D02*
X-47537300Y-27280533D01*
X-47537300Y-27280533D02*
X-47584919Y-27423390D01*
X-47584919Y-27423390D02*
X-48156347Y-27994819D01*
X-48156347Y-27994819D02*
X-47537300Y-27994819D01*
X-47156347Y-27090057D02*
X-47108728Y-27042438D01*
X-47108728Y-27042438D02*
X-47013490Y-26994819D01*
X-47013490Y-26994819D02*
X-46775395Y-26994819D01*
X-46775395Y-26994819D02*
X-46680157Y-27042438D01*
X-46680157Y-27042438D02*
X-46632538Y-27090057D01*
X-46632538Y-27090057D02*
X-46584919Y-27185295D01*
X-46584919Y-27185295D02*
X-46584919Y-27280533D01*
X-46584919Y-27280533D02*
X-46632538Y-27423390D01*
X-46632538Y-27423390D02*
X-47203966Y-27994819D01*
X-47203966Y-27994819D02*
X-46584919Y-27994819D01*
X-47537300Y-33074819D02*
X-48108728Y-33074819D01*
X-47823014Y-33074819D02*
X-47823014Y-32074819D01*
X-47823014Y-32074819D02*
X-47918252Y-32217676D01*
X-47918252Y-32217676D02*
X-48013490Y-32312914D01*
X-48013490Y-32312914D02*
X-48108728Y-32360533D01*
X-47061109Y-33074819D02*
X-46870633Y-33074819D01*
X-46870633Y-33074819D02*
X-46775395Y-33027200D01*
X-46775395Y-33027200D02*
X-46727776Y-32979580D01*
X-46727776Y-32979580D02*
X-46632538Y-32836723D01*
X-46632538Y-32836723D02*
X-46584919Y-32646247D01*
X-46584919Y-32646247D02*
X-46584919Y-32265295D01*
X-46584919Y-32265295D02*
X-46632538Y-32170057D01*
X-46632538Y-32170057D02*
X-46680157Y-32122438D01*
X-46680157Y-32122438D02*
X-46775395Y-32074819D01*
X-46775395Y-32074819D02*
X-46965871Y-32074819D01*
X-46965871Y-32074819D02*
X-47061109Y-32122438D01*
X-47061109Y-32122438D02*
X-47108728Y-32170057D01*
X-47108728Y-32170057D02*
X-47156347Y-32265295D01*
X-47156347Y-32265295D02*
X-47156347Y-32503390D01*
X-47156347Y-32503390D02*
X-47108728Y-32598628D01*
X-47108728Y-32598628D02*
X-47061109Y-32646247D01*
X-47061109Y-32646247D02*
X-46965871Y-32693866D01*
X-46965871Y-32693866D02*
X-46775395Y-32693866D01*
X-46775395Y-32693866D02*
X-46680157Y-32646247D01*
X-46680157Y-32646247D02*
X-46632538Y-32598628D01*
X-46632538Y-32598628D02*
X-46584919Y-32503390D01*
X-48156347Y-29534819D02*
X-47537300Y-29534819D01*
X-47537300Y-29534819D02*
X-47870633Y-29915771D01*
X-47870633Y-29915771D02*
X-47727776Y-29915771D01*
X-47727776Y-29915771D02*
X-47632538Y-29963390D01*
X-47632538Y-29963390D02*
X-47584919Y-30011009D01*
X-47584919Y-30011009D02*
X-47537300Y-30106247D01*
X-47537300Y-30106247D02*
X-47537300Y-30344342D01*
X-47537300Y-30344342D02*
X-47584919Y-30439580D01*
X-47584919Y-30439580D02*
X-47632538Y-30487200D01*
X-47632538Y-30487200D02*
X-47727776Y-30534819D01*
X-47727776Y-30534819D02*
X-48013490Y-30534819D01*
X-48013490Y-30534819D02*
X-48108728Y-30487200D01*
X-48108728Y-30487200D02*
X-48156347Y-30439580D01*
X-47203966Y-29534819D02*
X-46584919Y-29534819D01*
X-46584919Y-29534819D02*
X-46918252Y-29915771D01*
X-46918252Y-29915771D02*
X-46775395Y-29915771D01*
X-46775395Y-29915771D02*
X-46680157Y-29963390D01*
X-46680157Y-29963390D02*
X-46632538Y-30011009D01*
X-46632538Y-30011009D02*
X-46584919Y-30106247D01*
X-46584919Y-30106247D02*
X-46584919Y-30344342D01*
X-46584919Y-30344342D02*
X-46632538Y-30439580D01*
X-46632538Y-30439580D02*
X-46680157Y-30487200D01*
X-46680157Y-30487200D02*
X-46775395Y-30534819D01*
X-46775395Y-30534819D02*
X-47061109Y-30534819D01*
X-47061109Y-30534819D02*
X-47156347Y-30487200D01*
X-47156347Y-30487200D02*
X-47203966Y-30439580D01*
X-48061109Y-12231009D02*
X-47727776Y-12231009D01*
X-47584919Y-12754819D02*
X-48061109Y-12754819D01*
X-48061109Y-12754819D02*
X-48061109Y-11754819D01*
X-48061109Y-11754819D02*
X-47584919Y-11754819D01*
X-47156347Y-12754819D02*
X-47156347Y-11754819D01*
X-47156347Y-11754819D02*
X-46584919Y-12754819D01*
X-46584919Y-12754819D02*
X-46584919Y-11754819D01*
X-57830858Y-14390057D02*
X-57783239Y-14342438D01*
X-57783239Y-14342438D02*
X-57688001Y-14294819D01*
X-57688001Y-14294819D02*
X-57449906Y-14294819D01*
X-57449906Y-14294819D02*
X-57354668Y-14342438D01*
X-57354668Y-14342438D02*
X-57307049Y-14390057D01*
X-57307049Y-14390057D02*
X-57259430Y-14485295D01*
X-57259430Y-14485295D02*
X-57259430Y-14580533D01*
X-57259430Y-14580533D02*
X-57307049Y-14723390D01*
X-57307049Y-14723390D02*
X-57878477Y-15294819D01*
X-57878477Y-15294819D02*
X-57259430Y-15294819D01*
X-56926096Y-14294819D02*
X-56307049Y-14294819D01*
X-56307049Y-14294819D02*
X-56640382Y-14675771D01*
X-56640382Y-14675771D02*
X-56497525Y-14675771D01*
X-56497525Y-14675771D02*
X-56402287Y-14723390D01*
X-56402287Y-14723390D02*
X-56354668Y-14771009D01*
X-56354668Y-14771009D02*
X-56307049Y-14866247D01*
X-56307049Y-14866247D02*
X-56307049Y-15104342D01*
X-56307049Y-15104342D02*
X-56354668Y-15199580D01*
X-56354668Y-15199580D02*
X-56402287Y-15247200D01*
X-56402287Y-15247200D02*
X-56497525Y-15294819D01*
X-56497525Y-15294819D02*
X-56783239Y-15294819D01*
X-56783239Y-15294819D02*
X-56878477Y-15247200D01*
X-56878477Y-15247200D02*
X-56926096Y-15199580D01*
X-57259430Y-25454819D02*
X-57830858Y-25454819D01*
X-57545144Y-25454819D02*
X-57545144Y-24454819D01*
X-57545144Y-24454819D02*
X-57640382Y-24597676D01*
X-57640382Y-24597676D02*
X-57735620Y-24692914D01*
X-57735620Y-24692914D02*
X-57830858Y-24740533D01*
X-56926096Y-24454819D02*
X-56307049Y-24454819D01*
X-56307049Y-24454819D02*
X-56640382Y-24835771D01*
X-56640382Y-24835771D02*
X-56497525Y-24835771D01*
X-56497525Y-24835771D02*
X-56402287Y-24883390D01*
X-56402287Y-24883390D02*
X-56354668Y-24931009D01*
X-56354668Y-24931009D02*
X-56307049Y-25026247D01*
X-56307049Y-25026247D02*
X-56307049Y-25264342D01*
X-56307049Y-25264342D02*
X-56354668Y-25359580D01*
X-56354668Y-25359580D02*
X-56402287Y-25407200D01*
X-56402287Y-25407200D02*
X-56497525Y-25454819D01*
X-56497525Y-25454819D02*
X-56783239Y-25454819D01*
X-56783239Y-25454819D02*
X-56878477Y-25407200D01*
X-56878477Y-25407200D02*
X-56926096Y-25359580D01*
X-47537300Y-22914819D02*
X-48108728Y-22914819D01*
X-47823014Y-22914819D02*
X-47823014Y-21914819D01*
X-47823014Y-21914819D02*
X-47918252Y-22057676D01*
X-47918252Y-22057676D02*
X-48013490Y-22152914D01*
X-48013490Y-22152914D02*
X-48108728Y-22200533D01*
X-57259430Y-20374819D02*
X-57830858Y-20374819D01*
X-57545144Y-20374819D02*
X-57545144Y-19374819D01*
X-57545144Y-19374819D02*
X-57640382Y-19517676D01*
X-57640382Y-19517676D02*
X-57735620Y-19612914D01*
X-57735620Y-19612914D02*
X-57830858Y-19660533D01*
X-56688001Y-19803390D02*
X-56783239Y-19755771D01*
X-56783239Y-19755771D02*
X-56830858Y-19708152D01*
X-56830858Y-19708152D02*
X-56878477Y-19612914D01*
X-56878477Y-19612914D02*
X-56878477Y-19565295D01*
X-56878477Y-19565295D02*
X-56830858Y-19470057D01*
X-56830858Y-19470057D02*
X-56783239Y-19422438D01*
X-56783239Y-19422438D02*
X-56688001Y-19374819D01*
X-56688001Y-19374819D02*
X-56497525Y-19374819D01*
X-56497525Y-19374819D02*
X-56402287Y-19422438D01*
X-56402287Y-19422438D02*
X-56354668Y-19470057D01*
X-56354668Y-19470057D02*
X-56307049Y-19565295D01*
X-56307049Y-19565295D02*
X-56307049Y-19612914D01*
X-56307049Y-19612914D02*
X-56354668Y-19708152D01*
X-56354668Y-19708152D02*
X-56402287Y-19755771D01*
X-56402287Y-19755771D02*
X-56497525Y-19803390D01*
X-56497525Y-19803390D02*
X-56688001Y-19803390D01*
X-56688001Y-19803390D02*
X-56783239Y-19851009D01*
X-56783239Y-19851009D02*
X-56830858Y-19898628D01*
X-56830858Y-19898628D02*
X-56878477Y-19993866D01*
X-56878477Y-19993866D02*
X-56878477Y-20184342D01*
X-56878477Y-20184342D02*
X-56830858Y-20279580D01*
X-56830858Y-20279580D02*
X-56783239Y-20327200D01*
X-56783239Y-20327200D02*
X-56688001Y-20374819D01*
X-56688001Y-20374819D02*
X-56497525Y-20374819D01*
X-56497525Y-20374819D02*
X-56402287Y-20327200D01*
X-56402287Y-20327200D02*
X-56354668Y-20279580D01*
X-56354668Y-20279580D02*
X-56307049Y-20184342D01*
X-56307049Y-20184342D02*
X-56307049Y-19993866D01*
X-56307049Y-19993866D02*
X-56354668Y-19898628D01*
X-56354668Y-19898628D02*
X-56402287Y-19851009D01*
X-56402287Y-19851009D02*
X-56497525Y-19803390D01*
X-57878477Y-29534819D02*
X-57259430Y-29534819D01*
X-57259430Y-29534819D02*
X-57592763Y-29915771D01*
X-57592763Y-29915771D02*
X-57449906Y-29915771D01*
X-57449906Y-29915771D02*
X-57354668Y-29963390D01*
X-57354668Y-29963390D02*
X-57307049Y-30011009D01*
X-57307049Y-30011009D02*
X-57259430Y-30106247D01*
X-57259430Y-30106247D02*
X-57259430Y-30344342D01*
X-57259430Y-30344342D02*
X-57307049Y-30439580D01*
X-57307049Y-30439580D02*
X-57354668Y-30487200D01*
X-57354668Y-30487200D02*
X-57449906Y-30534819D01*
X-57449906Y-30534819D02*
X-57735620Y-30534819D01*
X-57735620Y-30534819D02*
X-57830858Y-30487200D01*
X-57830858Y-30487200D02*
X-57878477Y-30439580D01*
X-56878477Y-29630057D02*
X-56830858Y-29582438D01*
X-56830858Y-29582438D02*
X-56735620Y-29534819D01*
X-56735620Y-29534819D02*
X-56497525Y-29534819D01*
X-56497525Y-29534819D02*
X-56402287Y-29582438D01*
X-56402287Y-29582438D02*
X-56354668Y-29630057D01*
X-56354668Y-29630057D02*
X-56307049Y-29725295D01*
X-56307049Y-29725295D02*
X-56307049Y-29820533D01*
X-56307049Y-29820533D02*
X-56354668Y-29963390D01*
X-56354668Y-29963390D02*
X-56926096Y-30534819D01*
X-56926096Y-30534819D02*
X-56307049Y-30534819D01*
X-57926096Y-43234819D02*
X-57926096Y-42234819D01*
X-57926096Y-42711009D02*
X-57354668Y-42711009D01*
X-57354668Y-43234819D02*
X-57354668Y-42234819D01*
X-56878477Y-43234819D02*
X-56878477Y-42234819D01*
X-56878477Y-42234819D02*
X-56497525Y-42234819D01*
X-56497525Y-42234819D02*
X-56402287Y-42282438D01*
X-56402287Y-42282438D02*
X-56354668Y-42330057D01*
X-56354668Y-42330057D02*
X-56307049Y-42425295D01*
X-56307049Y-42425295D02*
X-56307049Y-42568152D01*
X-56307049Y-42568152D02*
X-56354668Y-42663390D01*
X-56354668Y-42663390D02*
X-56402287Y-42711009D01*
X-56402287Y-42711009D02*
X-56497525Y-42758628D01*
X-56497525Y-42758628D02*
X-56878477Y-42758628D01*
X-57926096Y-38154819D02*
X-57926096Y-37154819D01*
X-57926096Y-37631009D02*
X-57354668Y-37631009D01*
X-57354668Y-38154819D02*
X-57354668Y-37154819D01*
X-56878477Y-38154819D02*
X-56878477Y-37154819D01*
X-56878477Y-37154819D02*
X-56497525Y-37154819D01*
X-56497525Y-37154819D02*
X-56402287Y-37202438D01*
X-56402287Y-37202438D02*
X-56354668Y-37250057D01*
X-56354668Y-37250057D02*
X-56307049Y-37345295D01*
X-56307049Y-37345295D02*
X-56307049Y-37488152D01*
X-56307049Y-37488152D02*
X-56354668Y-37583390D01*
X-56354668Y-37583390D02*
X-56402287Y-37631009D01*
X-56402287Y-37631009D02*
X-56497525Y-37678628D01*
X-56497525Y-37678628D02*
X-56878477Y-37678628D01*
X-56354668Y-9262438D02*
X-56449906Y-9214819D01*
X-56449906Y-9214819D02*
X-56592763Y-9214819D01*
X-56592763Y-9214819D02*
X-56735620Y-9262438D01*
X-56735620Y-9262438D02*
X-56830858Y-9357676D01*
X-56830858Y-9357676D02*
X-56878477Y-9452914D01*
X-56878477Y-9452914D02*
X-56926096Y-9643390D01*
X-56926096Y-9643390D02*
X-56926096Y-9786247D01*
X-56926096Y-9786247D02*
X-56878477Y-9976723D01*
X-56878477Y-9976723D02*
X-56830858Y-10071961D01*
X-56830858Y-10071961D02*
X-56735620Y-10167200D01*
X-56735620Y-10167200D02*
X-56592763Y-10214819D01*
X-56592763Y-10214819D02*
X-56497525Y-10214819D01*
X-56497525Y-10214819D02*
X-56354668Y-10167200D01*
X-56354668Y-10167200D02*
X-56307049Y-10119580D01*
X-56307049Y-10119580D02*
X-56307049Y-9786247D01*
X-56307049Y-9786247D02*
X-56497525Y-9786247D01*
X-47584919Y-39694819D02*
X-48061109Y-39694819D01*
X-48061109Y-39694819D02*
X-48108728Y-40171009D01*
X-48108728Y-40171009D02*
X-48061109Y-40123390D01*
X-48061109Y-40123390D02*
X-47965871Y-40075771D01*
X-47965871Y-40075771D02*
X-47727776Y-40075771D01*
X-47727776Y-40075771D02*
X-47632538Y-40123390D01*
X-47632538Y-40123390D02*
X-47584919Y-40171009D01*
X-47584919Y-40171009D02*
X-47537300Y-40266247D01*
X-47537300Y-40266247D02*
X-47537300Y-40504342D01*
X-47537300Y-40504342D02*
X-47584919Y-40599580D01*
X-47584919Y-40599580D02*
X-47632538Y-40647200D01*
X-47632538Y-40647200D02*
X-47727776Y-40694819D01*
X-47727776Y-40694819D02*
X-47965871Y-40694819D01*
X-47965871Y-40694819D02*
X-48061109Y-40647200D01*
X-48061109Y-40647200D02*
X-48108728Y-40599580D01*
X-47251585Y-39694819D02*
X-46918252Y-40694819D01*
X-46918252Y-40694819D02*
X-46584919Y-39694819D01*
X-48108728Y-16930057D02*
X-48061109Y-16882438D01*
X-48061109Y-16882438D02*
X-47965871Y-16834819D01*
X-47965871Y-16834819D02*
X-47727776Y-16834819D01*
X-47727776Y-16834819D02*
X-47632538Y-16882438D01*
X-47632538Y-16882438D02*
X-47584919Y-16930057D01*
X-47584919Y-16930057D02*
X-47537300Y-17025295D01*
X-47537300Y-17025295D02*
X-47537300Y-17120533D01*
X-47537300Y-17120533D02*
X-47584919Y-17263390D01*
X-47584919Y-17263390D02*
X-48156347Y-17834819D01*
X-48156347Y-17834819D02*
X-47537300Y-17834819D01*
X-46680157Y-16834819D02*
X-46870633Y-16834819D01*
X-46870633Y-16834819D02*
X-46965871Y-16882438D01*
X-46965871Y-16882438D02*
X-47013490Y-16930057D01*
X-47013490Y-16930057D02*
X-47108728Y-17072914D01*
X-47108728Y-17072914D02*
X-47156347Y-17263390D01*
X-47156347Y-17263390D02*
X-47156347Y-17644342D01*
X-47156347Y-17644342D02*
X-47108728Y-17739580D01*
X-47108728Y-17739580D02*
X-47061109Y-17787200D01*
X-47061109Y-17787200D02*
X-46965871Y-17834819D01*
X-46965871Y-17834819D02*
X-46775395Y-17834819D01*
X-46775395Y-17834819D02*
X-46680157Y-17787200D01*
X-46680157Y-17787200D02*
X-46632538Y-17739580D01*
X-46632538Y-17739580D02*
X-46584919Y-17644342D01*
X-46584919Y-17644342D02*
X-46584919Y-17406247D01*
X-46584919Y-17406247D02*
X-46632538Y-17311009D01*
X-46632538Y-17311009D02*
X-46680157Y-17263390D01*
X-46680157Y-17263390D02*
X-46775395Y-17215771D01*
X-46775395Y-17215771D02*
X-46965871Y-17215771D01*
X-46965871Y-17215771D02*
X-47061109Y-17263390D01*
X-47061109Y-17263390D02*
X-47108728Y-17311009D01*
X-47108728Y-17311009D02*
X-47156347Y-17406247D01*
X-57830858Y-32170057D02*
X-57783239Y-32122438D01*
X-57783239Y-32122438D02*
X-57688001Y-32074819D01*
X-57688001Y-32074819D02*
X-57449906Y-32074819D01*
X-57449906Y-32074819D02*
X-57354668Y-32122438D01*
X-57354668Y-32122438D02*
X-57307049Y-32170057D01*
X-57307049Y-32170057D02*
X-57259430Y-32265295D01*
X-57259430Y-32265295D02*
X-57259430Y-32360533D01*
X-57259430Y-32360533D02*
X-57307049Y-32503390D01*
X-57307049Y-32503390D02*
X-57878477Y-33074819D01*
X-57878477Y-33074819D02*
X-57259430Y-33074819D01*
X-56926096Y-32074819D02*
X-56259430Y-32074819D01*
X-56259430Y-32074819D02*
X-56688001Y-33074819D01*
X-48156347Y-37154819D02*
X-47537300Y-37154819D01*
X-47537300Y-37154819D02*
X-47870633Y-37535771D01*
X-47870633Y-37535771D02*
X-47727776Y-37535771D01*
X-47727776Y-37535771D02*
X-47632538Y-37583390D01*
X-47632538Y-37583390D02*
X-47584919Y-37631009D01*
X-47584919Y-37631009D02*
X-47537300Y-37726247D01*
X-47537300Y-37726247D02*
X-47537300Y-37964342D01*
X-47537300Y-37964342D02*
X-47584919Y-38059580D01*
X-47584919Y-38059580D02*
X-47632538Y-38107200D01*
X-47632538Y-38107200D02*
X-47727776Y-38154819D01*
X-47727776Y-38154819D02*
X-48013490Y-38154819D01*
X-48013490Y-38154819D02*
X-48108728Y-38107200D01*
X-48108728Y-38107200D02*
X-48156347Y-38059580D01*
X-46680157Y-37488152D02*
X-46680157Y-38154819D01*
X-46918252Y-37107200D02*
X-47156347Y-37821485D01*
X-47156347Y-37821485D02*
X-46537300Y-37821485D01*
X-57878477Y-16834819D02*
X-57259430Y-16834819D01*
X-57259430Y-16834819D02*
X-57592763Y-17215771D01*
X-57592763Y-17215771D02*
X-57449906Y-17215771D01*
X-57449906Y-17215771D02*
X-57354668Y-17263390D01*
X-57354668Y-17263390D02*
X-57307049Y-17311009D01*
X-57307049Y-17311009D02*
X-57259430Y-17406247D01*
X-57259430Y-17406247D02*
X-57259430Y-17644342D01*
X-57259430Y-17644342D02*
X-57307049Y-17739580D01*
X-57307049Y-17739580D02*
X-57354668Y-17787200D01*
X-57354668Y-17787200D02*
X-57449906Y-17834819D01*
X-57449906Y-17834819D02*
X-57735620Y-17834819D01*
X-57735620Y-17834819D02*
X-57830858Y-17787200D01*
X-57830858Y-17787200D02*
X-57878477Y-17739580D01*
X-56688001Y-17263390D02*
X-56783239Y-17215771D01*
X-56783239Y-17215771D02*
X-56830858Y-17168152D01*
X-56830858Y-17168152D02*
X-56878477Y-17072914D01*
X-56878477Y-17072914D02*
X-56878477Y-17025295D01*
X-56878477Y-17025295D02*
X-56830858Y-16930057D01*
X-56830858Y-16930057D02*
X-56783239Y-16882438D01*
X-56783239Y-16882438D02*
X-56688001Y-16834819D01*
X-56688001Y-16834819D02*
X-56497525Y-16834819D01*
X-56497525Y-16834819D02*
X-56402287Y-16882438D01*
X-56402287Y-16882438D02*
X-56354668Y-16930057D01*
X-56354668Y-16930057D02*
X-56307049Y-17025295D01*
X-56307049Y-17025295D02*
X-56307049Y-17072914D01*
X-56307049Y-17072914D02*
X-56354668Y-17168152D01*
X-56354668Y-17168152D02*
X-56402287Y-17215771D01*
X-56402287Y-17215771D02*
X-56497525Y-17263390D01*
X-56497525Y-17263390D02*
X-56688001Y-17263390D01*
X-56688001Y-17263390D02*
X-56783239Y-17311009D01*
X-56783239Y-17311009D02*
X-56830858Y-17358628D01*
X-56830858Y-17358628D02*
X-56878477Y-17453866D01*
X-56878477Y-17453866D02*
X-56878477Y-17644342D01*
X-56878477Y-17644342D02*
X-56830858Y-17739580D01*
X-56830858Y-17739580D02*
X-56783239Y-17787200D01*
X-56783239Y-17787200D02*
X-56688001Y-17834819D01*
X-56688001Y-17834819D02*
X-56497525Y-17834819D01*
X-56497525Y-17834819D02*
X-56402287Y-17787200D01*
X-56402287Y-17787200D02*
X-56354668Y-17739580D01*
X-56354668Y-17739580D02*
X-56307049Y-17644342D01*
X-56307049Y-17644342D02*
X-56307049Y-17453866D01*
X-56307049Y-17453866D02*
X-56354668Y-17358628D01*
X-56354668Y-17358628D02*
X-56402287Y-17311009D01*
X-56402287Y-17311009D02*
X-56497525Y-17263390D01*
X-47870633Y-34614819D02*
X-47775395Y-34614819D01*
X-47775395Y-34614819D02*
X-47680157Y-34662438D01*
X-47680157Y-34662438D02*
X-47632538Y-34710057D01*
X-47632538Y-34710057D02*
X-47584919Y-34805295D01*
X-47584919Y-34805295D02*
X-47537300Y-34995771D01*
X-47537300Y-34995771D02*
X-47537300Y-35233866D01*
X-47537300Y-35233866D02*
X-47584919Y-35424342D01*
X-47584919Y-35424342D02*
X-47632538Y-35519580D01*
X-47632538Y-35519580D02*
X-47680157Y-35567200D01*
X-47680157Y-35567200D02*
X-47775395Y-35614819D01*
X-47775395Y-35614819D02*
X-47870633Y-35614819D01*
X-47870633Y-35614819D02*
X-47965871Y-35567200D01*
X-47965871Y-35567200D02*
X-48013490Y-35519580D01*
X-48013490Y-35519580D02*
X-48061109Y-35424342D01*
X-48061109Y-35424342D02*
X-48108728Y-35233866D01*
X-48108728Y-35233866D02*
X-48108728Y-34995771D01*
X-48108728Y-34995771D02*
X-48061109Y-34805295D01*
X-48061109Y-34805295D02*
X-48013490Y-34710057D01*
X-48013490Y-34710057D02*
X-47965871Y-34662438D01*
X-47965871Y-34662438D02*
X-47870633Y-34614819D01*
X-47537300Y-25454819D02*
X-48108728Y-25454819D01*
X-47823014Y-25454819D02*
X-47823014Y-24454819D01*
X-47823014Y-24454819D02*
X-47918252Y-24597676D01*
X-47918252Y-24597676D02*
X-48013490Y-24692914D01*
X-48013490Y-24692914D02*
X-48108728Y-24740533D01*
X-46680157Y-24788152D02*
X-46680157Y-25454819D01*
X-46918252Y-24407200D02*
X-47156347Y-25121485D01*
X-47156347Y-25121485D02*
X-46537300Y-25121485D01*
X-56878477Y-34710057D02*
X-56830858Y-34662438D01*
X-56830858Y-34662438D02*
X-56735620Y-34614819D01*
X-56735620Y-34614819D02*
X-56497525Y-34614819D01*
X-56497525Y-34614819D02*
X-56402287Y-34662438D01*
X-56402287Y-34662438D02*
X-56354668Y-34710057D01*
X-56354668Y-34710057D02*
X-56307049Y-34805295D01*
X-56307049Y-34805295D02*
X-56307049Y-34900533D01*
X-56307049Y-34900533D02*
X-56354668Y-35043390D01*
X-56354668Y-35043390D02*
X-56926096Y-35614819D01*
X-56926096Y-35614819D02*
X-56307049Y-35614819D01*
X-48156347Y-9214819D02*
X-47537300Y-9214819D01*
X-47537300Y-9214819D02*
X-47870633Y-9595771D01*
X-47870633Y-9595771D02*
X-47727776Y-9595771D01*
X-47727776Y-9595771D02*
X-47632538Y-9643390D01*
X-47632538Y-9643390D02*
X-47584919Y-9691009D01*
X-47584919Y-9691009D02*
X-47537300Y-9786247D01*
X-47537300Y-9786247D02*
X-47537300Y-10024342D01*
X-47537300Y-10024342D02*
X-47584919Y-10119580D01*
X-47584919Y-10119580D02*
X-47632538Y-10167200D01*
X-47632538Y-10167200D02*
X-47727776Y-10214819D01*
X-47727776Y-10214819D02*
X-48013490Y-10214819D01*
X-48013490Y-10214819D02*
X-48108728Y-10167200D01*
X-48108728Y-10167200D02*
X-48156347Y-10119580D01*
X-46680157Y-9214819D02*
X-46870633Y-9214819D01*
X-46870633Y-9214819D02*
X-46965871Y-9262438D01*
X-46965871Y-9262438D02*
X-47013490Y-9310057D01*
X-47013490Y-9310057D02*
X-47108728Y-9452914D01*
X-47108728Y-9452914D02*
X-47156347Y-9643390D01*
X-47156347Y-9643390D02*
X-47156347Y-10024342D01*
X-47156347Y-10024342D02*
X-47108728Y-10119580D01*
X-47108728Y-10119580D02*
X-47061109Y-10167200D01*
X-47061109Y-10167200D02*
X-46965871Y-10214819D01*
X-46965871Y-10214819D02*
X-46775395Y-10214819D01*
X-46775395Y-10214819D02*
X-46680157Y-10167200D01*
X-46680157Y-10167200D02*
X-46632538Y-10119580D01*
X-46632538Y-10119580D02*
X-46584919Y-10024342D01*
X-46584919Y-10024342D02*
X-46584919Y-9786247D01*
X-46584919Y-9786247D02*
X-46632538Y-9691009D01*
X-46632538Y-9691009D02*
X-46680157Y-9643390D01*
X-46680157Y-9643390D02*
X-46775395Y-9595771D01*
X-46775395Y-9595771D02*
X-46965871Y-9595771D01*
X-46965871Y-9595771D02*
X-47061109Y-9643390D01*
X-47061109Y-9643390D02*
X-47108728Y-9691009D01*
X-47108728Y-9691009D02*
X-47156347Y-9786247D01*
X-47727776Y-42711009D02*
X-47584919Y-42758628D01*
X-47584919Y-42758628D02*
X-47537300Y-42806247D01*
X-47537300Y-42806247D02*
X-47489681Y-42901485D01*
X-47489681Y-42901485D02*
X-47489681Y-43044342D01*
X-47489681Y-43044342D02*
X-47537300Y-43139580D01*
X-47537300Y-43139580D02*
X-47584919Y-43187200D01*
X-47584919Y-43187200D02*
X-47680157Y-43234819D01*
X-47680157Y-43234819D02*
X-48061109Y-43234819D01*
X-48061109Y-43234819D02*
X-48061109Y-42234819D01*
X-48061109Y-42234819D02*
X-47727776Y-42234819D01*
X-47727776Y-42234819D02*
X-47632538Y-42282438D01*
X-47632538Y-42282438D02*
X-47584919Y-42330057D01*
X-47584919Y-42330057D02*
X-47537300Y-42425295D01*
X-47537300Y-42425295D02*
X-47537300Y-42520533D01*
X-47537300Y-42520533D02*
X-47584919Y-42615771D01*
X-47584919Y-42615771D02*
X-47632538Y-42663390D01*
X-47632538Y-42663390D02*
X-47727776Y-42711009D01*
X-47727776Y-42711009D02*
X-48061109Y-42711009D01*
X-47108728Y-42949104D02*
X-46632538Y-42949104D01*
X-47203966Y-43234819D02*
X-46870633Y-42234819D01*
X-46870633Y-42234819D02*
X-46537300Y-43234819D01*
X-46346823Y-42234819D02*
X-45775395Y-42234819D01*
X-46061109Y-43234819D02*
X-46061109Y-42234819D01*
%TO.C,C5*%
X-10406555Y-27575580D02*
X-10454174Y-27623200D01*
X-10454174Y-27623200D02*
X-10597031Y-27670819D01*
X-10597031Y-27670819D02*
X-10692269Y-27670819D01*
X-10692269Y-27670819D02*
X-10835126Y-27623200D01*
X-10835126Y-27623200D02*
X-10930364Y-27527961D01*
X-10930364Y-27527961D02*
X-10977983Y-27432723D01*
X-10977983Y-27432723D02*
X-11025602Y-27242247D01*
X-11025602Y-27242247D02*
X-11025602Y-27099390D01*
X-11025602Y-27099390D02*
X-10977983Y-26908914D01*
X-10977983Y-26908914D02*
X-10930364Y-26813676D01*
X-10930364Y-26813676D02*
X-10835126Y-26718438D01*
X-10835126Y-26718438D02*
X-10692269Y-26670819D01*
X-10692269Y-26670819D02*
X-10597031Y-26670819D01*
X-10597031Y-26670819D02*
X-10454174Y-26718438D01*
X-10454174Y-26718438D02*
X-10406555Y-26766057D01*
X-9501793Y-26670819D02*
X-9977983Y-26670819D01*
X-9977983Y-26670819D02*
X-10025602Y-27147009D01*
X-10025602Y-27147009D02*
X-9977983Y-27099390D01*
X-9977983Y-27099390D02*
X-9882745Y-27051771D01*
X-9882745Y-27051771D02*
X-9644650Y-27051771D01*
X-9644650Y-27051771D02*
X-9549412Y-27099390D01*
X-9549412Y-27099390D02*
X-9501793Y-27147009D01*
X-9501793Y-27147009D02*
X-9454174Y-27242247D01*
X-9454174Y-27242247D02*
X-9454174Y-27480342D01*
X-9454174Y-27480342D02*
X-9501793Y-27575580D01*
X-9501793Y-27575580D02*
X-9549412Y-27623200D01*
X-9549412Y-27623200D02*
X-9644650Y-27670819D01*
X-9644650Y-27670819D02*
X-9882745Y-27670819D01*
X-9882745Y-27670819D02*
X-9977983Y-27623200D01*
X-9977983Y-27623200D02*
X-10025602Y-27575580D01*
%TO.C,J3*%
X-44609222Y-43434819D02*
X-44609222Y-44149104D01*
X-44609222Y-44149104D02*
X-44656841Y-44291961D01*
X-44656841Y-44291961D02*
X-44752079Y-44387200D01*
X-44752079Y-44387200D02*
X-44894936Y-44434819D01*
X-44894936Y-44434819D02*
X-44990174Y-44434819D01*
X-44228269Y-43434819D02*
X-43609222Y-43434819D01*
X-43609222Y-43434819D02*
X-43942555Y-43815771D01*
X-43942555Y-43815771D02*
X-43799698Y-43815771D01*
X-43799698Y-43815771D02*
X-43704460Y-43863390D01*
X-43704460Y-43863390D02*
X-43656841Y-43911009D01*
X-43656841Y-43911009D02*
X-43609222Y-44006247D01*
X-43609222Y-44006247D02*
X-43609222Y-44244342D01*
X-43609222Y-44244342D02*
X-43656841Y-44339580D01*
X-43656841Y-44339580D02*
X-43704460Y-44387200D01*
X-43704460Y-44387200D02*
X-43799698Y-44434819D01*
X-43799698Y-44434819D02*
X-44085412Y-44434819D01*
X-44085412Y-44434819D02*
X-44180650Y-44387200D01*
X-44180650Y-44387200D02*
X-44228269Y-44339580D01*
%TO.C,C9*%
X-15994555Y-39513580D02*
X-16042174Y-39561200D01*
X-16042174Y-39561200D02*
X-16185031Y-39608819D01*
X-16185031Y-39608819D02*
X-16280269Y-39608819D01*
X-16280269Y-39608819D02*
X-16423126Y-39561200D01*
X-16423126Y-39561200D02*
X-16518364Y-39465961D01*
X-16518364Y-39465961D02*
X-16565983Y-39370723D01*
X-16565983Y-39370723D02*
X-16613602Y-39180247D01*
X-16613602Y-39180247D02*
X-16613602Y-39037390D01*
X-16613602Y-39037390D02*
X-16565983Y-38846914D01*
X-16565983Y-38846914D02*
X-16518364Y-38751676D01*
X-16518364Y-38751676D02*
X-16423126Y-38656438D01*
X-16423126Y-38656438D02*
X-16280269Y-38608819D01*
X-16280269Y-38608819D02*
X-16185031Y-38608819D01*
X-16185031Y-38608819D02*
X-16042174Y-38656438D01*
X-16042174Y-38656438D02*
X-15994555Y-38704057D01*
X-15518364Y-39608819D02*
X-15327888Y-39608819D01*
X-15327888Y-39608819D02*
X-15232650Y-39561200D01*
X-15232650Y-39561200D02*
X-15185031Y-39513580D01*
X-15185031Y-39513580D02*
X-15089793Y-39370723D01*
X-15089793Y-39370723D02*
X-15042174Y-39180247D01*
X-15042174Y-39180247D02*
X-15042174Y-38799295D01*
X-15042174Y-38799295D02*
X-15089793Y-38704057D01*
X-15089793Y-38704057D02*
X-15137412Y-38656438D01*
X-15137412Y-38656438D02*
X-15232650Y-38608819D01*
X-15232650Y-38608819D02*
X-15423126Y-38608819D01*
X-15423126Y-38608819D02*
X-15518364Y-38656438D01*
X-15518364Y-38656438D02*
X-15565983Y-38704057D01*
X-15565983Y-38704057D02*
X-15613602Y-38799295D01*
X-15613602Y-38799295D02*
X-15613602Y-39037390D01*
X-15613602Y-39037390D02*
X-15565983Y-39132628D01*
X-15565983Y-39132628D02*
X-15518364Y-39180247D01*
X-15518364Y-39180247D02*
X-15423126Y-39227866D01*
X-15423126Y-39227866D02*
X-15232650Y-39227866D01*
X-15232650Y-39227866D02*
X-15137412Y-39180247D01*
X-15137412Y-39180247D02*
X-15089793Y-39132628D01*
X-15089793Y-39132628D02*
X-15042174Y-39037390D01*
%TO.C,R5*%
X-13708555Y-45704819D02*
X-14041888Y-45228628D01*
X-14279983Y-45704819D02*
X-14279983Y-44704819D01*
X-14279983Y-44704819D02*
X-13899031Y-44704819D01*
X-13899031Y-44704819D02*
X-13803793Y-44752438D01*
X-13803793Y-44752438D02*
X-13756174Y-44800057D01*
X-13756174Y-44800057D02*
X-13708555Y-44895295D01*
X-13708555Y-44895295D02*
X-13708555Y-45038152D01*
X-13708555Y-45038152D02*
X-13756174Y-45133390D01*
X-13756174Y-45133390D02*
X-13803793Y-45181009D01*
X-13803793Y-45181009D02*
X-13899031Y-45228628D01*
X-13899031Y-45228628D02*
X-14279983Y-45228628D01*
X-12803793Y-44704819D02*
X-13279983Y-44704819D01*
X-13279983Y-44704819D02*
X-13327602Y-45181009D01*
X-13327602Y-45181009D02*
X-13279983Y-45133390D01*
X-13279983Y-45133390D02*
X-13184745Y-45085771D01*
X-13184745Y-45085771D02*
X-12946650Y-45085771D01*
X-12946650Y-45085771D02*
X-12851412Y-45133390D01*
X-12851412Y-45133390D02*
X-12803793Y-45181009D01*
X-12803793Y-45181009D02*
X-12756174Y-45276247D01*
X-12756174Y-45276247D02*
X-12756174Y-45514342D01*
X-12756174Y-45514342D02*
X-12803793Y-45609580D01*
X-12803793Y-45609580D02*
X-12851412Y-45657200D01*
X-12851412Y-45657200D02*
X-12946650Y-45704819D01*
X-12946650Y-45704819D02*
X-13184745Y-45704819D01*
X-13184745Y-45704819D02*
X-13279983Y-45657200D01*
X-13279983Y-45657200D02*
X-13327602Y-45609580D01*
%TO.C,C8*%
X-17246308Y-24766666D02*
X-17198688Y-24814285D01*
X-17198688Y-24814285D02*
X-17151069Y-24957142D01*
X-17151069Y-24957142D02*
X-17151069Y-25052380D01*
X-17151069Y-25052380D02*
X-17198688Y-25195237D01*
X-17198688Y-25195237D02*
X-17293927Y-25290475D01*
X-17293927Y-25290475D02*
X-17389165Y-25338094D01*
X-17389165Y-25338094D02*
X-17579641Y-25385713D01*
X-17579641Y-25385713D02*
X-17722498Y-25385713D01*
X-17722498Y-25385713D02*
X-17912974Y-25338094D01*
X-17912974Y-25338094D02*
X-18008212Y-25290475D01*
X-18008212Y-25290475D02*
X-18103450Y-25195237D01*
X-18103450Y-25195237D02*
X-18151069Y-25052380D01*
X-18151069Y-25052380D02*
X-18151069Y-24957142D01*
X-18151069Y-24957142D02*
X-18103450Y-24814285D01*
X-18103450Y-24814285D02*
X-18055831Y-24766666D01*
X-17722498Y-24195237D02*
X-17770117Y-24290475D01*
X-17770117Y-24290475D02*
X-17817736Y-24338094D01*
X-17817736Y-24338094D02*
X-17912974Y-24385713D01*
X-17912974Y-24385713D02*
X-17960593Y-24385713D01*
X-17960593Y-24385713D02*
X-18055831Y-24338094D01*
X-18055831Y-24338094D02*
X-18103450Y-24290475D01*
X-18103450Y-24290475D02*
X-18151069Y-24195237D01*
X-18151069Y-24195237D02*
X-18151069Y-24004761D01*
X-18151069Y-24004761D02*
X-18103450Y-23909523D01*
X-18103450Y-23909523D02*
X-18055831Y-23861904D01*
X-18055831Y-23861904D02*
X-17960593Y-23814285D01*
X-17960593Y-23814285D02*
X-17912974Y-23814285D01*
X-17912974Y-23814285D02*
X-17817736Y-23861904D01*
X-17817736Y-23861904D02*
X-17770117Y-23909523D01*
X-17770117Y-23909523D02*
X-17722498Y-24004761D01*
X-17722498Y-24004761D02*
X-17722498Y-24195237D01*
X-17722498Y-24195237D02*
X-17674879Y-24290475D01*
X-17674879Y-24290475D02*
X-17627260Y-24338094D01*
X-17627260Y-24338094D02*
X-17532022Y-24385713D01*
X-17532022Y-24385713D02*
X-17341546Y-24385713D01*
X-17341546Y-24385713D02*
X-17246308Y-24338094D01*
X-17246308Y-24338094D02*
X-17198688Y-24290475D01*
X-17198688Y-24290475D02*
X-17151069Y-24195237D01*
X-17151069Y-24195237D02*
X-17151069Y-24004761D01*
X-17151069Y-24004761D02*
X-17198688Y-23909523D01*
X-17198688Y-23909523D02*
X-17246308Y-23861904D01*
X-17246308Y-23861904D02*
X-17341546Y-23814285D01*
X-17341546Y-23814285D02*
X-17532022Y-23814285D01*
X-17532022Y-23814285D02*
X-17627260Y-23861904D01*
X-17627260Y-23861904D02*
X-17674879Y-23909523D01*
X-17674879Y-23909523D02*
X-17722498Y-24004761D01*
%TO.C,C10*%
X-17078308Y-20842857D02*
X-17030688Y-20890476D01*
X-17030688Y-20890476D02*
X-16983069Y-21033333D01*
X-16983069Y-21033333D02*
X-16983069Y-21128571D01*
X-16983069Y-21128571D02*
X-17030688Y-21271428D01*
X-17030688Y-21271428D02*
X-17125927Y-21366666D01*
X-17125927Y-21366666D02*
X-17221165Y-21414285D01*
X-17221165Y-21414285D02*
X-17411641Y-21461904D01*
X-17411641Y-21461904D02*
X-17554498Y-21461904D01*
X-17554498Y-21461904D02*
X-17744974Y-21414285D01*
X-17744974Y-21414285D02*
X-17840212Y-21366666D01*
X-17840212Y-21366666D02*
X-17935450Y-21271428D01*
X-17935450Y-21271428D02*
X-17983069Y-21128571D01*
X-17983069Y-21128571D02*
X-17983069Y-21033333D01*
X-17983069Y-21033333D02*
X-17935450Y-20890476D01*
X-17935450Y-20890476D02*
X-17887831Y-20842857D01*
X-16983069Y-19890476D02*
X-16983069Y-20461904D01*
X-16983069Y-20176190D02*
X-17983069Y-20176190D01*
X-17983069Y-20176190D02*
X-17840212Y-20271428D01*
X-17840212Y-20271428D02*
X-17744974Y-20366666D01*
X-17744974Y-20366666D02*
X-17697355Y-20461904D01*
X-17983069Y-19271428D02*
X-17983069Y-19176190D01*
X-17983069Y-19176190D02*
X-17935450Y-19080952D01*
X-17935450Y-19080952D02*
X-17887831Y-19033333D01*
X-17887831Y-19033333D02*
X-17792593Y-18985714D01*
X-17792593Y-18985714D02*
X-17602117Y-18938095D01*
X-17602117Y-18938095D02*
X-17364022Y-18938095D01*
X-17364022Y-18938095D02*
X-17173546Y-18985714D01*
X-17173546Y-18985714D02*
X-17078308Y-19033333D01*
X-17078308Y-19033333D02*
X-17030688Y-19080952D01*
X-17030688Y-19080952D02*
X-16983069Y-19176190D01*
X-16983069Y-19176190D02*
X-16983069Y-19271428D01*
X-16983069Y-19271428D02*
X-17030688Y-19366666D01*
X-17030688Y-19366666D02*
X-17078308Y-19414285D01*
X-17078308Y-19414285D02*
X-17173546Y-19461904D01*
X-17173546Y-19461904D02*
X-17364022Y-19509523D01*
X-17364022Y-19509523D02*
X-17602117Y-19509523D01*
X-17602117Y-19509523D02*
X-17792593Y-19461904D01*
X-17792593Y-19461904D02*
X-17887831Y-19414285D01*
X-17887831Y-19414285D02*
X-17935450Y-19366666D01*
X-17935450Y-19366666D02*
X-17983069Y-19271428D01*
%TO.C,R6*%
X-9390555Y-42656819D02*
X-9723888Y-42180628D01*
X-9961983Y-42656819D02*
X-9961983Y-41656819D01*
X-9961983Y-41656819D02*
X-9581031Y-41656819D01*
X-9581031Y-41656819D02*
X-9485793Y-41704438D01*
X-9485793Y-41704438D02*
X-9438174Y-41752057D01*
X-9438174Y-41752057D02*
X-9390555Y-41847295D01*
X-9390555Y-41847295D02*
X-9390555Y-41990152D01*
X-9390555Y-41990152D02*
X-9438174Y-42085390D01*
X-9438174Y-42085390D02*
X-9485793Y-42133009D01*
X-9485793Y-42133009D02*
X-9581031Y-42180628D01*
X-9581031Y-42180628D02*
X-9961983Y-42180628D01*
X-8533412Y-41656819D02*
X-8723888Y-41656819D01*
X-8723888Y-41656819D02*
X-8819126Y-41704438D01*
X-8819126Y-41704438D02*
X-8866745Y-41752057D01*
X-8866745Y-41752057D02*
X-8961983Y-41894914D01*
X-8961983Y-41894914D02*
X-9009602Y-42085390D01*
X-9009602Y-42085390D02*
X-9009602Y-42466342D01*
X-9009602Y-42466342D02*
X-8961983Y-42561580D01*
X-8961983Y-42561580D02*
X-8914364Y-42609200D01*
X-8914364Y-42609200D02*
X-8819126Y-42656819D01*
X-8819126Y-42656819D02*
X-8628650Y-42656819D01*
X-8628650Y-42656819D02*
X-8533412Y-42609200D01*
X-8533412Y-42609200D02*
X-8485793Y-42561580D01*
X-8485793Y-42561580D02*
X-8438174Y-42466342D01*
X-8438174Y-42466342D02*
X-8438174Y-42228247D01*
X-8438174Y-42228247D02*
X-8485793Y-42133009D01*
X-8485793Y-42133009D02*
X-8533412Y-42085390D01*
X-8533412Y-42085390D02*
X-8628650Y-42037771D01*
X-8628650Y-42037771D02*
X-8819126Y-42037771D01*
X-8819126Y-42037771D02*
X-8914364Y-42085390D01*
X-8914364Y-42085390D02*
X-8961983Y-42133009D01*
X-8961983Y-42133009D02*
X-9009602Y-42228247D01*
%TO.C,J2*%
X-40616222Y1306081D02*
X-40616222Y591796D01*
X-40616222Y591796D02*
X-40663841Y448939D01*
X-40663841Y448939D02*
X-40759079Y353700D01*
X-40759079Y353700D02*
X-40901936Y306081D01*
X-40901936Y306081D02*
X-40997174Y306081D01*
X-40187650Y1210843D02*
X-40140031Y1258462D01*
X-40140031Y1258462D02*
X-40044793Y1306081D01*
X-40044793Y1306081D02*
X-39806698Y1306081D01*
X-39806698Y1306081D02*
X-39711460Y1258462D01*
X-39711460Y1258462D02*
X-39663841Y1210843D01*
X-39663841Y1210843D02*
X-39616222Y1115605D01*
X-39616222Y1115605D02*
X-39616222Y1020367D01*
X-39616222Y1020367D02*
X-39663841Y877510D01*
X-39663841Y877510D02*
X-40235269Y306081D01*
X-40235269Y306081D02*
X-39616222Y306081D01*
%TO.C,C1*%
X-15994555Y-42053580D02*
X-16042174Y-42101200D01*
X-16042174Y-42101200D02*
X-16185031Y-42148819D01*
X-16185031Y-42148819D02*
X-16280269Y-42148819D01*
X-16280269Y-42148819D02*
X-16423126Y-42101200D01*
X-16423126Y-42101200D02*
X-16518364Y-42005961D01*
X-16518364Y-42005961D02*
X-16565983Y-41910723D01*
X-16565983Y-41910723D02*
X-16613602Y-41720247D01*
X-16613602Y-41720247D02*
X-16613602Y-41577390D01*
X-16613602Y-41577390D02*
X-16565983Y-41386914D01*
X-16565983Y-41386914D02*
X-16518364Y-41291676D01*
X-16518364Y-41291676D02*
X-16423126Y-41196438D01*
X-16423126Y-41196438D02*
X-16280269Y-41148819D01*
X-16280269Y-41148819D02*
X-16185031Y-41148819D01*
X-16185031Y-41148819D02*
X-16042174Y-41196438D01*
X-16042174Y-41196438D02*
X-15994555Y-41244057D01*
X-15042174Y-42148819D02*
X-15613602Y-42148819D01*
X-15327888Y-42148819D02*
X-15327888Y-41148819D01*
X-15327888Y-41148819D02*
X-15423126Y-41291676D01*
X-15423126Y-41291676D02*
X-15518364Y-41386914D01*
X-15518364Y-41386914D02*
X-15613602Y-41434533D01*
D11*
%TO.C,L1*%
X-17817555Y-34394318D02*
X-18422317Y-34394318D01*
X-18422317Y-34394318D02*
X-18422317Y-33124318D01*
X-16728983Y-34394318D02*
X-17454698Y-34394318D01*
X-17091841Y-34394318D02*
X-17091841Y-33124318D01*
X-17091841Y-33124318D02*
X-17212793Y-33305746D01*
X-17212793Y-33305746D02*
X-17333745Y-33426699D01*
X-17333745Y-33426699D02*
X-17454698Y-33487175D01*
%TO.C,IC1*%
X-8649570Y-22867762D02*
X-9919570Y-22867762D01*
X-8770523Y-21537285D02*
X-8710046Y-21597761D01*
X-8710046Y-21597761D02*
X-8649570Y-21779190D01*
X-8649570Y-21779190D02*
X-8649570Y-21900142D01*
X-8649570Y-21900142D02*
X-8710046Y-22081571D01*
X-8710046Y-22081571D02*
X-8830999Y-22202523D01*
X-8830999Y-22202523D02*
X-8951951Y-22263000D01*
X-8951951Y-22263000D02*
X-9193856Y-22323476D01*
X-9193856Y-22323476D02*
X-9375285Y-22323476D01*
X-9375285Y-22323476D02*
X-9617189Y-22263000D01*
X-9617189Y-22263000D02*
X-9738142Y-22202523D01*
X-9738142Y-22202523D02*
X-9859094Y-22081571D01*
X-9859094Y-22081571D02*
X-9919570Y-21900142D01*
X-9919570Y-21900142D02*
X-9919570Y-21779190D01*
X-9919570Y-21779190D02*
X-9859094Y-21597761D01*
X-9859094Y-21597761D02*
X-9798618Y-21537285D01*
X-8649570Y-20327761D02*
X-8649570Y-21053476D01*
X-8649570Y-20690619D02*
X-9919570Y-20690619D01*
X-9919570Y-20690619D02*
X-9738142Y-20811571D01*
X-9738142Y-20811571D02*
X-9617189Y-20932523D01*
X-9617189Y-20932523D02*
X-9556713Y-21053476D01*
D10*
%TO.C,U1*%
X-21369793Y-41654819D02*
X-21369793Y-42464342D01*
X-21369793Y-42464342D02*
X-21322174Y-42559580D01*
X-21322174Y-42559580D02*
X-21274555Y-42607200D01*
X-21274555Y-42607200D02*
X-21179317Y-42654819D01*
X-21179317Y-42654819D02*
X-20988841Y-42654819D01*
X-20988841Y-42654819D02*
X-20893603Y-42607200D01*
X-20893603Y-42607200D02*
X-20845984Y-42559580D01*
X-20845984Y-42559580D02*
X-20798365Y-42464342D01*
X-20798365Y-42464342D02*
X-20798365Y-41654819D01*
X-19798365Y-42654819D02*
X-20369793Y-42654819D01*
X-20084079Y-42654819D02*
X-20084079Y-41654819D01*
X-20084079Y-41654819D02*
X-20179317Y-41797676D01*
X-20179317Y-41797676D02*
X-20274555Y-41892914D01*
X-20274555Y-41892914D02*
X-20369793Y-41940533D01*
%TO.C,C7*%
X-15341555Y-6389580D02*
X-15389174Y-6437200D01*
X-15389174Y-6437200D02*
X-15532031Y-6484819D01*
X-15532031Y-6484819D02*
X-15627269Y-6484819D01*
X-15627269Y-6484819D02*
X-15770126Y-6437200D01*
X-15770126Y-6437200D02*
X-15865364Y-6341961D01*
X-15865364Y-6341961D02*
X-15912983Y-6246723D01*
X-15912983Y-6246723D02*
X-15960602Y-6056247D01*
X-15960602Y-6056247D02*
X-15960602Y-5913390D01*
X-15960602Y-5913390D02*
X-15912983Y-5722914D01*
X-15912983Y-5722914D02*
X-15865364Y-5627676D01*
X-15865364Y-5627676D02*
X-15770126Y-5532438D01*
X-15770126Y-5532438D02*
X-15627269Y-5484819D01*
X-15627269Y-5484819D02*
X-15532031Y-5484819D01*
X-15532031Y-5484819D02*
X-15389174Y-5532438D01*
X-15389174Y-5532438D02*
X-15341555Y-5580057D01*
X-15008221Y-5484819D02*
X-14341555Y-5484819D01*
X-14341555Y-5484819D02*
X-14770126Y-6484819D01*
%TO.C,C6*%
X-15994555Y-36973580D02*
X-16042174Y-37021200D01*
X-16042174Y-37021200D02*
X-16185031Y-37068819D01*
X-16185031Y-37068819D02*
X-16280269Y-37068819D01*
X-16280269Y-37068819D02*
X-16423126Y-37021200D01*
X-16423126Y-37021200D02*
X-16518364Y-36925961D01*
X-16518364Y-36925961D02*
X-16565983Y-36830723D01*
X-16565983Y-36830723D02*
X-16613602Y-36640247D01*
X-16613602Y-36640247D02*
X-16613602Y-36497390D01*
X-16613602Y-36497390D02*
X-16565983Y-36306914D01*
X-16565983Y-36306914D02*
X-16518364Y-36211676D01*
X-16518364Y-36211676D02*
X-16423126Y-36116438D01*
X-16423126Y-36116438D02*
X-16280269Y-36068819D01*
X-16280269Y-36068819D02*
X-16185031Y-36068819D01*
X-16185031Y-36068819D02*
X-16042174Y-36116438D01*
X-16042174Y-36116438D02*
X-15994555Y-36164057D01*
X-15137412Y-36068819D02*
X-15327888Y-36068819D01*
X-15327888Y-36068819D02*
X-15423126Y-36116438D01*
X-15423126Y-36116438D02*
X-15470745Y-36164057D01*
X-15470745Y-36164057D02*
X-15565983Y-36306914D01*
X-15565983Y-36306914D02*
X-15613602Y-36497390D01*
X-15613602Y-36497390D02*
X-15613602Y-36878342D01*
X-15613602Y-36878342D02*
X-15565983Y-36973580D01*
X-15565983Y-36973580D02*
X-15518364Y-37021200D01*
X-15518364Y-37021200D02*
X-15423126Y-37068819D01*
X-15423126Y-37068819D02*
X-15232650Y-37068819D01*
X-15232650Y-37068819D02*
X-15137412Y-37021200D01*
X-15137412Y-37021200D02*
X-15089793Y-36973580D01*
X-15089793Y-36973580D02*
X-15042174Y-36878342D01*
X-15042174Y-36878342D02*
X-15042174Y-36640247D01*
X-15042174Y-36640247D02*
X-15089793Y-36545009D01*
X-15089793Y-36545009D02*
X-15137412Y-36497390D01*
X-15137412Y-36497390D02*
X-15232650Y-36449771D01*
X-15232650Y-36449771D02*
X-15423126Y-36449771D01*
X-15423126Y-36449771D02*
X-15518364Y-36497390D01*
X-15518364Y-36497390D02*
X-15565983Y-36545009D01*
X-15565983Y-36545009D02*
X-15613602Y-36640247D01*
%TO.C,Q1*%
X-47395831Y-5175238D02*
X-47443450Y-5270476D01*
X-47443450Y-5270476D02*
X-47538688Y-5365714D01*
X-47538688Y-5365714D02*
X-47681546Y-5508571D01*
X-47681546Y-5508571D02*
X-47729165Y-5603809D01*
X-47729165Y-5603809D02*
X-47729165Y-5699047D01*
X-47491069Y-5651428D02*
X-47538688Y-5746666D01*
X-47538688Y-5746666D02*
X-47633927Y-5841904D01*
X-47633927Y-5841904D02*
X-47824403Y-5889523D01*
X-47824403Y-5889523D02*
X-48157736Y-5889523D01*
X-48157736Y-5889523D02*
X-48348212Y-5841904D01*
X-48348212Y-5841904D02*
X-48443450Y-5746666D01*
X-48443450Y-5746666D02*
X-48491069Y-5651428D01*
X-48491069Y-5651428D02*
X-48491069Y-5460952D01*
X-48491069Y-5460952D02*
X-48443450Y-5365714D01*
X-48443450Y-5365714D02*
X-48348212Y-5270476D01*
X-48348212Y-5270476D02*
X-48157736Y-5222857D01*
X-48157736Y-5222857D02*
X-47824403Y-5222857D01*
X-47824403Y-5222857D02*
X-47633927Y-5270476D01*
X-47633927Y-5270476D02*
X-47538688Y-5365714D01*
X-47538688Y-5365714D02*
X-47491069Y-5460952D01*
X-47491069Y-5460952D02*
X-47491069Y-5651428D01*
X-47491069Y-4270476D02*
X-47491069Y-4841904D01*
X-47491069Y-4556190D02*
X-48491069Y-4556190D01*
X-48491069Y-4556190D02*
X-48348212Y-4651428D01*
X-48348212Y-4651428D02*
X-48252974Y-4746666D01*
X-48252974Y-4746666D02*
X-48205355Y-4841904D01*
%TO.C,MP1*%
X-33592412Y-36569819D02*
X-33592412Y-35569819D01*
X-33592412Y-35569819D02*
X-33259079Y-36284104D01*
X-33259079Y-36284104D02*
X-32925746Y-35569819D01*
X-32925746Y-35569819D02*
X-32925746Y-36569819D01*
X-32449555Y-36569819D02*
X-32449555Y-35569819D01*
X-32449555Y-35569819D02*
X-32068603Y-35569819D01*
X-32068603Y-35569819D02*
X-31973365Y-35617438D01*
X-31973365Y-35617438D02*
X-31925746Y-35665057D01*
X-31925746Y-35665057D02*
X-31878127Y-35760295D01*
X-31878127Y-35760295D02*
X-31878127Y-35903152D01*
X-31878127Y-35903152D02*
X-31925746Y-35998390D01*
X-31925746Y-35998390D02*
X-31973365Y-36046009D01*
X-31973365Y-36046009D02*
X-32068603Y-36093628D01*
X-32068603Y-36093628D02*
X-32449555Y-36093628D01*
X-30925746Y-36569819D02*
X-31497174Y-36569819D01*
X-31211460Y-36569819D02*
X-31211460Y-35569819D01*
X-31211460Y-35569819D02*
X-31306698Y-35712676D01*
X-31306698Y-35712676D02*
X-31401936Y-35807914D01*
X-31401936Y-35807914D02*
X-31497174Y-35855533D01*
D12*
%TO.C,J7*%
X-27377888Y-44500000D02*
G75*
G03*
X-27377888Y-44500000I-100000J0D01*
G01*
D13*
%TO.C,J1*%
X-49607888Y-43540000D02*
X-49607888Y-44110000D01*
X-49607888Y-41000000D02*
X-49607888Y-42020000D01*
X-49607888Y-38460000D02*
X-49607888Y-39480000D01*
X-49607888Y-35920000D02*
X-49607888Y-36940000D01*
X-49607888Y-33380000D02*
X-49607888Y-34400000D01*
X-49607888Y-30840000D02*
X-49607888Y-31860000D01*
X-49607888Y-28300000D02*
X-49607888Y-29320000D01*
X-49607888Y-25760000D02*
X-49607888Y-26780000D01*
X-49607888Y-23220000D02*
X-49607888Y-24240000D01*
X-49607888Y-20680000D02*
X-49607888Y-21700000D01*
X-49607888Y-18140000D02*
X-49607888Y-19160000D01*
X-49607888Y-15600000D02*
X-49607888Y-16620000D01*
X-49607888Y-13060000D02*
X-49607888Y-14080000D01*
X-49607888Y-10520000D02*
X-49607888Y-11540000D01*
X-49607888Y-7980000D02*
X-49607888Y-9000000D01*
X-49607888Y-5890000D02*
X-49607888Y-6460000D01*
X-54807888Y-44110000D02*
X-49607888Y-44110000D01*
X-54807888Y-43540000D02*
X-54807888Y-44110000D01*
X-54807888Y-41000000D02*
X-54807888Y-42020000D01*
X-54807888Y-38460000D02*
X-54807888Y-39480000D01*
X-54807888Y-35920000D02*
X-54807888Y-36940000D01*
X-54807888Y-33380000D02*
X-54807888Y-34400000D01*
X-54807888Y-30840000D02*
X-54807888Y-31860000D01*
X-54807888Y-28300000D02*
X-54807888Y-29320000D01*
X-54807888Y-25760000D02*
X-54807888Y-26780000D01*
X-54807888Y-23220000D02*
X-54807888Y-24240000D01*
X-54807888Y-20680000D02*
X-54807888Y-21700000D01*
X-54807888Y-18140000D02*
X-54807888Y-19160000D01*
X-54807888Y-15600000D02*
X-54807888Y-16620000D01*
X-54807888Y-13060000D02*
X-54807888Y-14080000D01*
X-54807888Y-10520000D02*
X-54807888Y-11540000D01*
X-54807888Y-7980000D02*
X-54807888Y-9000000D01*
X-54807888Y-5890000D02*
X-49607888Y-5890000D01*
X-54807888Y-5890000D02*
X-54807888Y-6460000D01*
X-56247888Y-6460000D02*
X-54807888Y-6460000D01*
%TO.C,C5*%
X-13180155Y-26668000D02*
X-12887621Y-26668000D01*
X-13180155Y-27688000D02*
X-12887621Y-27688000D01*
%TO.C,J3*%
X-48649888Y-46242000D02*
X-47599888Y-46242000D01*
X-43599888Y-49362000D02*
X-47479888Y-49362000D01*
X-48649888Y-47392000D02*
X-48649888Y-46242000D01*
X-42429888Y-47392000D02*
X-42429888Y-46242000D01*
X-43479888Y-46242000D02*
X-43479888Y-45252000D01*
X-42429888Y-46242000D02*
X-43479888Y-46242000D01*
%TO.C,C9*%
X-13237140Y-38206000D02*
X-11814636Y-38206000D01*
X-13237140Y-40026000D02*
X-11814636Y-40026000D01*
%TO.C,R5*%
X-15066612Y-43165500D02*
X-14557164Y-43165500D01*
X-15066612Y-44210500D02*
X-14557164Y-44210500D01*
%TO.C,C8*%
X-15597888Y-24453733D02*
X-15597888Y-24746267D01*
X-16617888Y-24453733D02*
X-16617888Y-24746267D01*
%TO.C,C10*%
X-16517888Y-20346267D02*
X-16517888Y-20053733D01*
X-15497888Y-20346267D02*
X-15497888Y-20053733D01*
%TO.C,R6*%
X-10899112Y-43165500D02*
X-10389664Y-43165500D01*
X-10899112Y-44210500D02*
X-10389664Y-44210500D01*
D14*
%TO.C,J2*%
X-43207888Y-9724100D02*
X-43207888Y-4569100D01*
X-41677888Y-9724100D02*
X-43207888Y-9724100D01*
X-35737888Y-9724100D02*
X-34177888Y-9724100D01*
X-35487888Y-1674100D02*
X-33927888Y-1674100D01*
X-21207888Y-4569100D02*
X-21207888Y-6229100D01*
X-21207888Y-9724100D02*
X-22737888Y-9724100D01*
X-21207888Y-9724100D02*
X-21207888Y-8519100D01*
D12*
X-41357888Y-624100D02*
G75*
G03*
X-41357888Y-624100I-100000J0D01*
G01*
D13*
%TO.C,C1*%
X-13237140Y-40746000D02*
X-11814636Y-40746000D01*
X-13237140Y-42566000D02*
X-11814636Y-42566000D01*
D12*
%TO.C,IC1*%
X-9632888Y-18413000D02*
X-9632888Y-19938000D01*
D13*
%TO.C,U1*%
X-20607888Y-43040000D02*
X-24057888Y-43040000D01*
X-20607888Y-43040000D02*
X-18657888Y-43040000D01*
X-20607888Y-48160000D02*
X-22557888Y-48160000D01*
X-20607888Y-48160000D02*
X-18657888Y-48160000D01*
%TO.C,C7*%
X-17910636Y-7044000D02*
X-19333140Y-7044000D01*
X-17910636Y-5224000D02*
X-19333140Y-5224000D01*
%TO.C,C6*%
X-13237140Y-35666000D02*
X-11814636Y-35666000D01*
X-13237140Y-37486000D02*
X-11814636Y-37486000D01*
%TO.C,Q1*%
X-47105888Y-5080000D02*
X-47105888Y-6755000D01*
X-47105888Y-5080000D02*
X-47105888Y-4430000D01*
X-43985888Y-5080000D02*
X-43985888Y-5730000D01*
X-43985888Y-5080000D02*
X-43985888Y-4430000D01*
%TD*%
%LPC*%
D15*
%TO.C,J6*%
X-13287888Y-11214000D03*
D16*
X-13287888Y-15024000D03*
%TD*%
D17*
%TO.C,J5*%
X-15573888Y-13084000D03*
D18*
X-9773888Y-13084000D03*
D19*
X-12573888Y-8284000D03*
%TD*%
D20*
%TO.C,J7*%
X-27477888Y-46300000D03*
D16*
X-31287888Y-46300000D03*
X-35097888Y-46300000D03*
X-38907888Y-46300000D03*
%TD*%
D21*
%TO.C,H8*%
X-51207888Y-47000000D03*
%TD*%
%TO.C,H7*%
X-15207888Y-47000000D03*
%TD*%
%TO.C,H6*%
X-15207888Y-3000000D03*
%TD*%
%TO.C,H5*%
X-51207888Y-3000000D03*
%TD*%
D22*
%TO.C,J1*%
X-53477888Y-42780000D03*
D23*
X-53477888Y-42780000D03*
D22*
X-50937888Y-42780000D03*
D24*
X-50937888Y-42780000D03*
D22*
X-53477888Y-40240000D03*
D23*
X-53477888Y-40240000D03*
D22*
X-50937888Y-40240000D03*
D24*
X-50937888Y-40240000D03*
D22*
X-53477888Y-37700000D03*
D23*
X-53477888Y-37700000D03*
D22*
X-50937888Y-37700000D03*
D24*
X-50937888Y-37700000D03*
D22*
X-53477888Y-35160000D03*
D23*
X-53477888Y-35160000D03*
D22*
X-50937888Y-35160000D03*
D24*
X-50937888Y-35160000D03*
D22*
X-53477888Y-32620000D03*
D23*
X-53477888Y-32620000D03*
D22*
X-50937888Y-32620000D03*
D24*
X-50937888Y-32620000D03*
D22*
X-53477888Y-30080000D03*
D23*
X-53477888Y-30080000D03*
D22*
X-50937888Y-30080000D03*
D24*
X-50937888Y-30080000D03*
D22*
X-53477888Y-27540000D03*
D23*
X-53477888Y-27540000D03*
D22*
X-50937888Y-27540000D03*
D24*
X-50937888Y-27540000D03*
D22*
X-53477888Y-25000000D03*
D23*
X-53477888Y-25000000D03*
D22*
X-50937888Y-25000000D03*
D24*
X-50937888Y-25000000D03*
D22*
X-53477888Y-22460000D03*
D23*
X-53477888Y-22460000D03*
D22*
X-50937888Y-22460000D03*
D24*
X-50937888Y-22460000D03*
D22*
X-53477888Y-19920000D03*
D23*
X-53477888Y-19920000D03*
D22*
X-50937888Y-19920000D03*
D24*
X-50937888Y-19920000D03*
D22*
X-53477888Y-17380000D03*
D23*
X-53477888Y-17380000D03*
D22*
X-50937888Y-17380000D03*
D24*
X-50937888Y-17380000D03*
D22*
X-53477888Y-14840000D03*
D23*
X-53477888Y-14840000D03*
D22*
X-50937888Y-14840000D03*
D24*
X-50937888Y-14840000D03*
D22*
X-53477888Y-12300000D03*
D23*
X-53477888Y-12300000D03*
D22*
X-50937888Y-12300000D03*
D24*
X-50937888Y-12300000D03*
D22*
X-53477888Y-9760000D03*
D23*
X-53477888Y-9760000D03*
D22*
X-50937888Y-9760000D03*
D24*
X-50937888Y-9760000D03*
D22*
X-53477888Y-7220000D03*
D23*
X-53477888Y-7220000D03*
D22*
X-50937888Y-7220000D03*
D24*
X-50937888Y-7220000D03*
D25*
X-52207888Y-41510000D03*
X-52207888Y-38970000D03*
X-52207888Y-11030000D03*
X-52207888Y-8490000D03*
%TD*%
D26*
%TO.C,C5*%
X-13896388Y-27178000D03*
X-12171388Y-27178000D03*
%TD*%
D27*
%TO.C,J3*%
X-44039888Y-46027000D03*
X-45039888Y-46027000D03*
X-46039888Y-46027000D03*
X-47039888Y-46027000D03*
D28*
X-42739888Y-48552000D03*
X-48339888Y-48552000D03*
%TD*%
D29*
%TO.C,C9*%
X-14000888Y-39116000D03*
X-11050888Y-39116000D03*
%TD*%
D30*
%TO.C,R5*%
X-15724388Y-43688000D03*
X-13899388Y-43688000D03*
%TD*%
D31*
%TO.C,C8*%
X-16107888Y-23737500D03*
X-16107888Y-25462500D03*
%TD*%
D32*
%TO.C,C10*%
X-16007888Y-21062500D03*
X-16007888Y-19337500D03*
%TD*%
D30*
%TO.C,R6*%
X-11556888Y-43688000D03*
X-9731888Y-43688000D03*
%TD*%
D33*
%TO.C,J2*%
X-42207888Y-7374100D03*
D34*
X-22207888Y-7374100D03*
D35*
X-41457888Y-2099100D03*
X-41207888Y-9649100D03*
X-40957888Y-2099100D03*
X-40707888Y-9649100D03*
X-40457888Y-2099100D03*
X-40207888Y-9649100D03*
X-39957888Y-2099100D03*
X-39707888Y-9649100D03*
X-39457888Y-2099100D03*
X-39207888Y-9649100D03*
X-38957888Y-2099100D03*
X-38707888Y-9649100D03*
X-38457888Y-2099100D03*
X-38207888Y-9649100D03*
X-37957888Y-2099100D03*
X-37707888Y-9649100D03*
X-37457888Y-2099100D03*
X-37207888Y-9649100D03*
X-36957888Y-2099100D03*
X-36707888Y-9649100D03*
X-36457888Y-2099100D03*
X-36207888Y-9649100D03*
X-35957888Y-2099100D03*
X-33707888Y-9649100D03*
X-33457888Y-2099100D03*
X-33207888Y-9649100D03*
X-32957888Y-2099100D03*
X-32707888Y-9649100D03*
X-32457888Y-2099100D03*
X-32207888Y-9649100D03*
X-31957888Y-2099100D03*
X-31707888Y-9649100D03*
X-31457888Y-2099100D03*
X-31207888Y-9649100D03*
X-30957888Y-2099100D03*
X-30707888Y-9649100D03*
X-30457888Y-2099100D03*
X-30207888Y-9649100D03*
X-29957888Y-2099100D03*
X-29707888Y-9649100D03*
X-29457888Y-2099100D03*
X-29207888Y-9649100D03*
X-28957888Y-2099100D03*
X-28707888Y-9649100D03*
X-28457888Y-2099100D03*
X-28207888Y-9649100D03*
X-27957888Y-2099100D03*
X-27707888Y-9649100D03*
X-27457888Y-2099100D03*
X-27207888Y-9649100D03*
X-26957888Y-2099100D03*
X-26707888Y-9649100D03*
X-26457888Y-2099100D03*
X-26207888Y-9649100D03*
X-25957888Y-2099100D03*
X-25707888Y-9649100D03*
X-25457888Y-2099100D03*
X-25207888Y-9649100D03*
X-24957888Y-2099100D03*
X-24707888Y-9649100D03*
X-24457888Y-2099100D03*
X-24207888Y-9649100D03*
X-23957888Y-2099100D03*
X-23707888Y-9649100D03*
X-23457888Y-2099100D03*
X-23207888Y-9649100D03*
X-22957888Y-2099100D03*
D36*
X-42557888Y-2874100D03*
X-21857888Y-2874100D03*
%TD*%
D29*
%TO.C,C1*%
X-14000888Y-41656000D03*
X-11050888Y-41656000D03*
%TD*%
D37*
%TO.C,H1*%
X-55207888Y-3000000D03*
%TD*%
%TO.C,H2*%
X-11207888Y-3000000D03*
%TD*%
%TO.C,H3*%
X-11207888Y-47000000D03*
%TD*%
%TO.C,H4*%
X-55207888Y-47000000D03*
%TD*%
D38*
%TO.C,L1*%
X-11207888Y-31600000D03*
X-14557888Y-31600000D03*
%TD*%
D39*
%TO.C,IC1*%
X-10307888Y-19176000D03*
X-11577888Y-19176000D03*
X-12847888Y-19176000D03*
X-14117888Y-19176000D03*
X-14117888Y-24600000D03*
X-12847888Y-24600000D03*
X-11577888Y-24600000D03*
X-10307888Y-24600000D03*
D40*
X-12212888Y-21888000D03*
%TD*%
D41*
%TO.C,U1*%
X-23082888Y-43695000D03*
X-23082888Y-44965000D03*
X-23082888Y-46235000D03*
X-23082888Y-47505000D03*
X-18132888Y-47505000D03*
X-18132888Y-46235000D03*
X-18132888Y-44965000D03*
X-18132888Y-43695000D03*
%TD*%
D42*
%TO.C,C7*%
X-17146888Y-6134000D03*
X-20096888Y-6134000D03*
%TD*%
D29*
%TO.C,C6*%
X-14000888Y-36576000D03*
X-11050888Y-36576000D03*
%TD*%
D43*
%TO.C,Q1*%
X-46495888Y-6017500D03*
X-44595888Y-6017500D03*
X-45545888Y-4142500D03*
%TD*%
D44*
%TO.C,MP1*%
X-32207888Y-41000000D03*
%TD*%
%LPD*%
M02*
